<mxfile host="app.diagrams.net" agent="Mozilla/5.0 (Windows NT 10.0; Win64; x64) AppleWebKit/537.36 (KHTML, like Gecko) Chrome/131.0.0.0 Safari/537.36 Edg/131.0.0.0" version="24.8.6" pages="2">
  <diagram name="Page-1" id="A3qXprlsuV0ASNOMoKOB">
    <mxGraphModel dx="786" dy="501" grid="1" gridSize="10" guides="1" tooltips="1" connect="1" arrows="1" fold="1" page="1" pageScale="1" pageWidth="1169" pageHeight="1654" math="0" shadow="0">
      <root>
        <mxCell id="0" />
        <mxCell id="1" parent="0" />
        <mxCell id="xukHjiyGvTGiKn0vxdyG-1" value="&lt;br&gt;CREATE STREAM coins_current_stream&lt;br&gt;( Code STRING,&amp;nbsp;&lt;br&gt;name STRING,&amp;nbsp;&lt;br&gt;allTimeHighUSD DOUBLE,&amp;nbsp;&lt;br&gt;rate DOUBLE,&amp;nbsp;&lt;br&gt;volume DOUBLE,&amp;nbsp;&lt;br&gt;cap DOUBLE )&amp;nbsp;&lt;br&gt;WITH ( KAFKA_TOPIC = &#39;coins_current_full&#39;,&amp;nbsp;&lt;br&gt;VALUE_FORMAT = &#39;JSON&#39;,&amp;nbsp;&lt;br&gt;PARTITIONS = 6 );&lt;br&gt;&lt;br&gt;" style="aspect=fixed;align=left;fontSize=10;verticalAlign=middle;whiteSpace=wrap;html=1;spacingLeft=9;" vertex="1" parent="1">
          <mxGeometry x="130" y="230" width="200" height="200" as="geometry" />
        </mxCell>
        <mxCell id="xukHjiyGvTGiKn0vxdyG-2" value="&lt;span style=&quot;color: rgb(31, 35, 40); font-family: -apple-system, BlinkMacSystemFont, &amp;quot;Segoe UI&amp;quot;, &amp;quot;Noto Sans&amp;quot;, Helvetica, Arial, sans-serif, &amp;quot;Apple Color Emoji&amp;quot;, &amp;quot;Segoe UI Emoji&amp;quot;; font-style: normal; font-variant-ligatures: normal; font-variant-caps: normal; letter-spacing: normal; orphans: 2; text-align: left; text-indent: 0px; text-transform: none; widows: 2; word-spacing: 0px; -webkit-text-stroke-width: 0px; white-space: normal; background-color: rgb(255, 255, 255); text-decoration-thickness: initial; text-decoration-style: initial; text-decoration-color: initial; float: none; display: inline !important;&quot;&gt;&lt;b style=&quot;&quot;&gt;&lt;font style=&quot;font-size: 11px;&quot;&gt;coins_current_stream&lt;/font&gt;&lt;/b&gt;&lt;/span&gt;" style="text;whiteSpace=wrap;html=1;" vertex="1" parent="1">
          <mxGeometry x="165" y="230" width="130" height="40" as="geometry" />
        </mxCell>
        <mxCell id="xukHjiyGvTGiKn0vxdyG-3" value="&lt;span style=&quot;color: rgb(31, 35, 40); font-family: -apple-system, BlinkMacSystemFont, &amp;quot;Segoe UI&amp;quot;, &amp;quot;Noto Sans&amp;quot;, Helvetica, Arial, sans-serif, &amp;quot;Apple Color Emoji&amp;quot;, &amp;quot;Segoe UI Emoji&amp;quot;; font-style: normal; font-variant-ligatures: normal; font-variant-caps: normal; letter-spacing: normal; orphans: 2; text-align: left; text-indent: 0px; text-transform: none; widows: 2; word-spacing: 0px; -webkit-text-stroke-width: 0px; white-space: normal; background-color: rgb(255, 255, 255); text-decoration-thickness: initial; text-decoration-style: initial; text-decoration-color: initial; float: none; display: inline !important;&quot;&gt;&lt;b style=&quot;&quot;&gt;&lt;font style=&quot;font-size: 12px;&quot;&gt;CONFLUENT&lt;/font&gt;&lt;/b&gt;&lt;/span&gt;" style="text;whiteSpace=wrap;html=1;strokeColor=#9f9999;dashed=1;" vertex="1" parent="1">
          <mxGeometry x="60" y="40" width="650" height="35" as="geometry" />
        </mxCell>
        <mxCell id="xukHjiyGvTGiKn0vxdyG-5" value="&lt;div style=&quot;font-size: 10px;&quot;&gt;(Tumbling)&lt;/div&gt;&lt;div style=&quot;font-size: 10px;&quot;&gt;&amp;nbsp;&amp;nbsp;&lt;/div&gt;&lt;div style=&quot;font-size: 10px;&quot;&gt;CREATE &lt;b&gt;TABLE ohlc_by_minute&lt;/b&gt; WITH (&lt;b&gt;KAFKA_TOPIC&lt;/b&gt;=&#39;&lt;b&gt;ohlc_by_minute&lt;/b&gt;&#39;, value_format=&#39;JSON&#39;)&amp;nbsp;&lt;/div&gt;&lt;div style=&quot;font-size: 10px;&quot;&gt;AS&lt;/div&gt;&lt;div style=&quot;font-size: 10px;&quot;&gt;SELECT&lt;/div&gt;&lt;div style=&quot;font-size: 10px;&quot;&gt;TIMESTAMPTOSTRING(WINDOWSTART, &#39;yyyy-MM-dd HH:mm&#39;) as window_start,&lt;/div&gt;&lt;div style=&quot;font-size: 10px;&quot;&gt;code,&lt;/div&gt;&lt;div style=&quot;font-size: 10px;&quot;&gt;EARLIEST_BY_OFFSET(rate) as open,&lt;/div&gt;&lt;div style=&quot;font-size: 10px;&quot;&gt;max(rate) as high,&lt;/div&gt;&lt;div style=&quot;font-size: 10px;&quot;&gt;min(rate) as low,&lt;/div&gt;&lt;div style=&quot;font-size: 10px;&quot;&gt;LATEST_BY_OFFSET(rate) as close&lt;/div&gt;&lt;div style=&quot;font-size: 10px;&quot;&gt;from COINS_CURRENT_STREAM&amp;nbsp;&lt;/div&gt;&lt;div style=&quot;font-size: 10px;&quot;&gt;WINDOW TUMBLING (SIZE 1 MINUTE)&lt;/div&gt;&lt;div style=&quot;font-size: 10px;&quot;&gt;GROUP BY code&lt;/div&gt;&lt;div style=&quot;font-size: 10px;&quot;&gt;EMIT CHANGES;&lt;/div&gt;&lt;div style=&quot;font-size: 10px;&quot;&gt;&lt;br style=&quot;font-size: 10px;&quot;&gt;&lt;/div&gt;" style="rounded=0;whiteSpace=wrap;html=1;align=left;fontSize=10;spacingLeft=6;" vertex="1" parent="1">
          <mxGeometry x="390" y="120" width="390" height="220" as="geometry" />
        </mxCell>
        <mxCell id="5QRQjYG-GsPYn9TENEEN-2" value="(Hopping)&lt;br&gt;&lt;br&gt;CREATE &lt;b&gt;TABLE 60_sec_mov_avg&lt;/b&gt; WITH (&lt;b&gt;KAFKA_TOPIC&lt;/b&gt;=&lt;b&gt;&#39;60_sec_mov_avg&lt;/b&gt;&#39;, value_format=&#39;JSON&#39;)&amp;nbsp;&lt;br&gt;AS&lt;br&gt;select&amp;nbsp;&lt;br&gt;TIMESTAMPTOSTRING(WINDOWSTART, &#39;yyyy-MM-dd HH:mm:ss&#39;) as window_start,&lt;br&gt;code,&lt;br&gt;avg(rate) as 60_sec_mov_avg&lt;br&gt;from COINS_CURRENT_STREAM&amp;nbsp;&lt;br&gt;WINDOW &lt;b&gt;HOPPING &lt;/b&gt;(SIZE 60 SECONDS, ADVANCE BY 30 SECONDS)&lt;br&gt;group by code&lt;br&gt;EMIT CHANGES;" style="text;whiteSpace=wrap;fontSize=10;fontStyle=0;strokeColor=default;spacingLeft=8;html=1;" vertex="1" parent="1">
          <mxGeometry x="370" y="390" width="430" height="170" as="geometry" />
        </mxCell>
      </root>
    </mxGraphModel>
  </diagram>
  <diagram id="3-ICLba1RjTUMKEP0JaC" name="Page-2">
    <mxGraphModel dx="1026" dy="501" grid="1" gridSize="10" guides="1" tooltips="1" connect="1" arrows="1" fold="1" page="1" pageScale="1" pageWidth="1169" pageHeight="1654" math="0" shadow="0">
      <root>
        <mxCell id="0" />
        <mxCell id="1" parent="0" />
        <mxCell id="zKrp2AEOSzv_7fgHDQ2_-1" value="" style="shape=image;verticalLabelPosition=bottom;labelBackgroundColor=default;verticalAlign=top;aspect=fixed;imageAspect=0;image=data:image/png,iVBORw0KGgoAAAANSUhEUgAABHIAAAHmCAYAAAAfhKkeAAAAAXNSR0IArs4c6QAAAARnQU1BAACxjwv8YQUAAAAJcEhZcwAAFiUAABYlAUlSJPAAALQOSURBVHhe7N0JnE3lG8Dxp8huQtHIljWkbJEl2cq+FMkuhYppsYVkJ1u2FMkSyS6yROhvqyxRlghZw4jshmxh/ud577kzd+7cWc0wZ/y+n8/9zD3vPXPvuee+5z3nfc673BdsEQAAAAAAACR499t/AQAAAAAAkMARyAEAAAAAAHAIAjkAAAAAAAAOQSAHAAAAAADAIQjkAAAAAAAAOASBHAAAAAAAAIcgkAMAAAAAAOAQBHIAAAAAAAAcgkAOAAAAAACAQxDIAQAAAAAAcAgCOQAAAAAAAA5BIAcAAAAAAMAhCOQAAAAAAAA4BIEcAAAAAAAAh7gv2GI/vy07d+6Tli27yYULl+yUUF26tJI2bV6xl+49XbsOk/nzf7CXQmXPnllmzRohGTNmsFOQ0JCvkRjdvHlLvv9+rQwbNlmOHftHUqdOKbVqVZD33nvVKo/S22sBAAAASIgI5NwBsQnkTJgwR4YOnWQvRY9WxjJkSCcFCuSScuWKS5kyxSRLlkckSZKYN7yKzeenS+dnKoH6uZUrl5ISJQpJ0qRJ7VediXyNxEaL/EmTvpFhw740AR1PJUo8KWPH9jLHMgAAAICEia5Vici//16Ro0ePy4oV66Rnz9FSuXJLKVu2sXz88SQ5fz7IXiv+6Gfs23dYvvrqW2nRoqv12U1k2rRFcuPGDXsNAHfbyZNnZNaspeGCOGrLlj/k55+32EsAAAAAEiICOYncmTPnZfz4OVKhQguZOPGbOxpUOXv2gvTtO0batu0rFy/+a6fCKbSif+DAERMIbNbsfTl16qz9Cpzs1KlzEQZ29Tc/fvykvQQAAAAgISKQc4/Q1jpDhkyQTp2G3PGgypo1m2To0Im0zHEA/Y22bdstvXqNlpIlG0i1am1MIPD48VP2GnC6LFkySebMGe2lsLQbZq5c2ewlAAAAAAkRgZx7zNKlP8o77wy448GcBQtWyi+//G4vIaH68MNR0qBBe5k5c4kEBYUfFwjOlz79g/LSSy/4HDurVKkiUrLkU/YSAAAAgISIQI4DlSv3tDRqVCPMQ2ec8fd/2F4jcuvWbZHRo782g57Gxhdf9JV9+5aHPDZtmiMjR34Q6Z38q1evyapVv9hLAO6mV199SYYN62IGQ1c6UHrDhtXl44+7SNq0qU0aAAAAgISJQI4DNWtWW/r3fy/MQwMpP/00XX78cZo0aVJLkiRJYq/t2zffLJfffvvDXro9eodfA0kzZw6XwoXz26nh7dv3l1y+fMVeAnC3aGucWrUqypo1U00wdtu2BTJgQHumHgcAAAAcgEBOIqNjX/Tt+47MmTNKsmXLbKeGd+nSZZkx4zu5efOmnXL7MmR4UFq0qGsvAQAAAACAuEYgJ5F66ql8MmrUB/LQQ+nslPDWr98qBw4ctZfiRpo0qexn4d1///1y33332UsAAAAAACCm7guO7UApXnbu3CctW3aTCxfCD5DapUsradPmFXsp1JIla+X994fKf/+Fn81Im/536dJaXn+9vp0SSmfW0c/77ru1sn79Fvn775NmVialXYoeeeQhyZkzqzz7bDGpXLm0PPZYligDCDod7/z5P8jixavl0KFA8366DVmz+kvt2hXl1VdflHTp/GTVqo3y5pu97f8KS8eOqVSplL0UqmvXYea9vWXPnllmzRohGTNmsFNCTZgwR4YOnWQvhRXR5/iycOFK8/k6rbAv/fu/K40a1bSXQsX28yPbPy1avCg9e7a1l+4cnXHp++9/lOXLf5YjR47L6dPn7FdcY4M8+mgmKVOmmBlrKHfubGHySkzztU7R3ahRR/M53iI6DpR2OXvrrT6yYcM2OyVU6dJFZNy4PpIqVUo7JTz9TqtX/2KOqf37j1jLZ0N+c8232mWmePFCUrFiSSlVqnDIe0X2/aISne3S4+qHH9abrnwHDwaGTHudIkVyM6ZSpUrPyCuvVI9wFiVP0TmOdP9PmvSNGVxbp97Xz/n8895WWVDcXjt+3U5e80V/w50791rl0hofZd398vDDGSRPnuxSs2Z5eeGFMua3jo6YlknRPQ7099Xfeu7c5XL48N+mxZ/7t27Z8iWpXr2cWY6O+CjnAQAAgMTgrrXIOXbsH/nkk6k+gziqQYNq4brpaMxJK6oVKrxqZtb56qtvZd++wyEX90orDnrBrwP6DhkyUXr3/lSuXLlqvxqeVpSmTl1ovWcLGTRovKk4uN9PX9PKyGefTZfnn3/NTKPtNBpwiWzcml9//SPWgx77sm3bHvtZWNpSR8fRuZM0oKFBlYoVXb/tli27wlSslf7Wmoc0L735Zq9wryd0p06dk/btB1qV2abSvftIk+//+ee0ybtuWrnW7zhr1hITZNu4cbv9SvzRwa0nTpxrjivdLt337iCO0td37dpvji39fd5+u7/5Lrdjx4698uKLb8ukSfNMEEfp51y//p95Hp/iOq/p7/fdd6ulfPnm8vLL70VQ1t0yv7X+5rqPS5VqJP37jzXdJu80LUO+/fZ/5vfWcvfgwaPW9rm6bbp/6y5dPpa6dQPM88jERzkPAAAAJCZ3JZCjd1rHjZtlWr74ki/fYxIQ0FSSJk1qp7j+Z+jQidKp02BTeYkL+p59+nxqKj+elQRf9E50t27DTQXNSXQGmuefL20vhactCC5fjpsK0O+//ylz5nxvL4VVp04l093rTtDfdezYGVKr1ltmQGfPoEZiohXihg07mEpvXI51dLtOnDgtzZp1MRXsqI4rpb+PtmBp2rSzHDhwxE6NGc3HenyePHnGTrkz4iOvXbhw0QTnOnSIWVmneUCD0lWrtpatW3fbqfFP48CTJ8+XDz4YEeXvrQGeTp2GyLFjJ+2UsOKjnAcAAAASm7sSyFm7drPp+uCLjukyaFDHcFNpa2VVKwtxVSnXSk///p/LrFlL7ZSo6V3+L76YbS85xxNP5JUHHggNink6cUIDOVFXtiNz7twFmTt3mbRp0zOkJYSnGjWek86dXzfdIeKbVgT1d9Xp1RNScCOuaeuW3r0/k6NHw3fhupu0gv7aax/I9u2+W2ZFRgO77dsP8pmHoqLH8d69f9lLd0Z85LWLF/+V994bKMuW/WSnxJwGs9q27WMCq3fC5s07TDAruvtAWy9pwNdXS8C4LucBAACAxOiOB3L0bv2IEVNMc3tvOuZD69Yvy5NPhm25oYEC7abh6+Je/ydv3hymK5aOO6GPYsUKmvEoIqPdS3yNEZEY6VgSEY2doV3bfP0WkdHuOXnzVg15lCz5iunacfbsBXsNFw3ctG7dQIYM6WxaBt0J2iJh9uylib4iqBX9bdt8t7rQvF+lStmQ40G7tGXJ8og5VrxpgC9LFn8zw5k+Ijpu9LfU8V3c6+njoYfShxmTRPPRgAFjTUXdFx0npW3bxtKnz9tmfB1fgb09ew6a3zAm3f20Nc7SpWvtpTsnrvOauzWKdhe6XRoM0xYyWt7GN+1yGtMxlv73v/XhAnbxUc4DAAAAidEdDeRo5UwHIo3ozrlepOuAmN4DVh49+o/8/fcpeymUXtxrS48lS76QgQM7SP/+75nH7Nkj5bff5ptBOwsWzG2vHUornHrXN6IAhk6jre+3ceNsq2K5VFaunCJNmtTyWfF0Aj+/NJIype8BRrU1TmwGuo2MDmaqAyj/9NM06dq1dbQHN71dOo6Gjo8SUcVaK3064LLml99+m2f9tt/L+vUzZciQTmaQV6fQ40jHNvJFB75dsmS8jBnTK+R4GDnyA6uyPdXk5/feaxHm93j88ZyycOEYWbVqinlUrfqs/UpYWbJkkm+++SRkPX2MHNnNylcp7DW0cr7BDLjszR2gXbJknHTs2FKaNq0tU6cOsSrt/eXBB9PYa4VatGiVGUMrujQYGZ0uXHEpPvLaL7/8HmFLRd2H5co9LTNnDpft2xfIzp2LZcWKSfL2200jDGZoORtRV8e4pmWjjmm2bt0M+eOP72Tx4s+lYsVn7FfDO3r0hPz11zF7ySWuy3kAAAAgsbqjgRyd7jqirkxaAX3rrcZhxsVx0xl4goLCBxuSJUsmRYoU8DlTiV78Fy/+hHTr9ka4WXV27z5oxrPwRbt2TZjQ3wSV9LlWULTipa0Ihg/veseCEk6mATIdWLd27bYyePB4M5PQnTBv3vIIx0jJnz+XLFw41syapWMwaXBL84jOzlOvXhVTSdTWIjpFekKng7pG9D3z5n1M/P0fspfC0lZZWvEvU6aonRJ3NCCoQQNfgQ2t0GsAyfvYLlu2mBk7yVtg4IlYjUWlQaEBA9pb/ztf9u1bboIdGvjIkeNRe424E9d5TbslzZu3wmdwWf+3XbsmMn58X3n66UKmPEuePJmZsUn365dfDjRllS869lB8D+DtCrS8Jj16tJVMmR6yyuUHzD7Q8vKZZ56y1wpL87AOVuwprst5AAAAILG6Y7VWHdNj1KipPisqWgEbPLiTuevviwZPfI3xopWBgQO/iLArR0Q2btzmc2YXrRR88MEb8tRTj9spobQSUbVqWalcOXrTfickWrm+dct3VxWt/PhqFREXtOuEtlp44YXXzYw2MekuE1PaLSOiLilauRwxolukFXrNYy+/XDXCCnFCosHFiAKK2iJG93lErc3iy8GDgT5nI9LjtnHjWj63V4+pUqWK2EthaeuUmNA8PGnSR9KwYfWQbnwa7NDAR+7c2c1yXImPvKZBjV9/3WkvhfXkk4+b1i6+gtyqaNEC1veuYS+FpeMOxffYQTornn6+d6BFfwedWj4i3oMZx3U5DwAAACRWdySQo/X3yZO/9TmmhwZP3nqrkc/giVu2bP7y8MPp7aWwdMrhWrXelHr13pGFC1eawUIjo3e+tUWOL1mz+lsVy8L2UnhakapRo7y95Bx6R/7iRd/dp7TiFFFQIK5otxcdr0O7s8VXMCeibhnqxRcrmxZfiYUGKLTFgy8awPn440lStmwT6dVrtPz556EIu//EJZ2NyFcXvUceedi0SomIdmP07J7lpl2rYjKdtGtWtIjLkLgUH3lNuxpF1HKmbt1KEY5xpTSAUq5ccZ/7Ubud/fHHPnspfjzzTOEIx8DScZGiGyiOy3IeAAAASMzuSCBHZzWZPn2RvRTWiy8+73NcHE86yKqODxERrajqhX7nzkOlRIkGZvYknTXHV9Dg6tXrEc6Ko5WOyCpMSrclvlqwxBe92x/RODj+/hlj3CXhiy/6mq4r7sfevcvM+Cs6foVWzH3RANr48XNk9+4Ddkrc0tm3fHXL0ECVduGJLH85kQ5mHFk+1H0xc+YSMy12+fLNzSCyvlqhxZWIWktoN6ly5ZqGGRzb89G4cSefAZtbt25FO+inAQwNsN6p3zg+8tqRI3+boIs3/W4RBe08aQugjBl9B0HiuyVL2rSp7GfhaR6NbvkSl+U8AAAAkJjdkUBORLOa6AC8eic9oi4DbtqVRMeIiM6dbg0Y6Oc1bNhB3nlngJw6FfYut47loRUxX9Kn9zOtHRITreRoV7KI6F3wVKnC38mPCa24ajcRHVfou+++MLPJ+KIBtG++WR4vFa/Dh8MOnOqm303HKElsnngij2nJpi3aoqJdWIYMmSiVK7cUnd45Pva/dzeZO0nznramu1PiI69F1MIkWbL4bzEXnyLqLuVLXJbzAAAAQGJ2RwI52rXC99gH12TQoPERtpDxpOPnTJ061MyqE53Kq9691YE+W7ToIseOhR1U816iXVRWr95kL4VXpkzROG3JoK0CAgKaRlh509ZZOl4Sbo/+Zq1avSzDh3eLsBWUt7NnL0inToNFZ45LTK0Y7r//vmiVCUj4KOcBAACAqN2R2k/NmuVNVxBf9uw5KKNGfSU3boTvVuBNgwSfftrDtPqoV++FaN2p1m4FY8fOMHdwo6KVgqgquNql4vLl6I/dcTfpd5k7d7np3uJL5swZzUCpcS1nziwRjnWh++7Gjah/i7hy/fqNOz7w752iwRw9tlav/spMa61dA6OieXzcuFnyxx/hBybG7bmdvBbRGDNaHEU0ULkn/V0jWi9NGt/vnVDFdzkPAAAAON0dCeRo64wOHVqaMRB8WbBgpaxcudFeipxWXrXp/ZAhneXXX78xM9XUqlUh0ot9nfbc3fRex2vQcWF8+euvYxIUFPkgmjqoq6+xLBKiFSvWyZdfzrOXwtPxKCL6TW7H9ev/3dFgjYpoZiIdf0V//4QgsrFKdEBobT0VG5qndVrrZcsmyJo1U6Vr19aRBnW0m+NPP/1qL8WNiLrD6NT969fPDDOmUnQeU6cOMd8rIYqPvJY5cyafLVA0cLxrV9SDFWuwNqKWjXnzRt1VKaG53XIeAAAASMzuWH8EHYwzojE99C62Ti97+PDfdkr06Hg2zz33tIwc+YGpwFarVs5+JSydsck9I0yKFMkinGJap0/WwTMjol2CFi5cZS8lXNoSZ+XKDfLhhyMjbCGgg5A2blzT+j2S2ClxR2cFO3vWd6VSPy8uu3K5aeui9Ol9dzH67rs1sQ6SxKXjx0+ZMZp80X2mr98O3a9ZsjwirVs3kKVLx8uYMb0iHBBZg5YxocHLyFqb5MuX0+exrd8polninCo+8lrWrI9Ihgy+y6X//W9DpPtej/elS9f6HDQ6TZpU8vjjUQ+WnJDFppwHAAAAErM7FshRL730vFSs+Iy9FJbOrDR48PhYd03Q4MybbzaMckYpDSQ8+WReeyksrawOGvSFz7EWtOvC7Nnfy44df9opCZPemdfBPwMC+kU4U5Vq2rSOGTA3rum+GzNmutlfvjz2WJYIu5Hcjpw5s8pTT+Wzl8I6dChQunYdFundes13U6cujNZ4TZGJrMXX1q27zcObDnSrLafisqWXBlW0O2PlyqXtlOiJaOBxrSBHFpDJnTubaVXiTb+TfrfENF10fOQ1Hay5UCHf5dLPP/8m06YtirDb52+//SGLFvkOMOv4ZNEZPNgpolvOAwAAAInZHQ3kaLP4d95pFmGLmNWrf/FZYdHZSbp0+Vi2bdsd4Vg6+j9//RXoc/warVx7Xvg//fST5k61L9r95fXXu5tuSdqt4dq162bK7Hfe6S8jR06JMEBxJ02btlh69vwkzKNDh0FmmueKFV81g39Gtp06RXLr1i/HWcsY3fdaKZ07d5nUq/d2hF2INLigs5TFx8xgmrd0KntfrULUL7/8LtWqtZbRo782lW1tGaO/rT7XMWN0iu6vvvrWTHt9O3TmIm2x4YtW4N977yMTEDx37oL5/F9/3Wnltw9l3bot9lpR023XYMGsWUsibYFw4cJFCQz03TrkkUcetp+F9dhjj9rPwtKAzODBE0yXLN3uP/88ZPabu4WRtgSqWLGkee5Nv5t+xz17DkUYjNBAz/ff/2j2T0JvVREfeU2PiZdfrupzkHA9locN+9IEZ7ds2WXeT8tBbVX1ySdTrWO5h8+grW5fkya14iVwGh/iupwHAAAAEqv7rAvjqEfSjIadO/dJy5bdfFYounRpJW3avGIviblDP3ToRJ/BBg3yjB/fT5566nE7RWTVqo3y5pu9zXNtUaPdtIoUyS/Jkj1g0nRMFq08RdSlQVsB6eCZ7gCCVhI6dx5qpmKOS1980VcqVSplL4XSSvf8+T/YS6F0/JBZs0ZIxowZ7JRQEybMsfbRJHsp7hQunF8++6yn+Pv7rsi7xcfnFylSwHrffpIunZ+dErc0UKIBLe2KEhu+fo+Y5Gs3bR3RqdMQe+n2lS5dRMaN6xMyZoxW5N96q49s2OCaVl73p7au0qnk3Y4cOW4q/b5auGmwYOLEAWbGMm86zogGBqLTOsh7u/btO2ztqw/k5MkzZtmX1KlThutCpEEc90xmkR0TsTmO4kt85LXbfU9vOgbWZ5/1CPl9PMV0X8bmOFCnTp2VRo06mvzozfv/4rqcBwAAABKrO9oix61Bg2ry9NOF7KWwtGVH//6fRzhFtc5KogMOayVk1qyl5qHPI7q41zu0AQFNwlzca/eRN954JcKWQZG5k5XFuKbjTEyaNCDKIE580H3ds2fbeAviKG0p0aNHu7velaREiScjHBA3Ihq4zJ8/dmOZ6LGirV7cx4M+NCDjK4ijtFVUyZJP2kthaVcc7ToUG3nz5pBevdqZ3yEiOqjz0aPHwzycOB19fOS1uHxPfY/+/d/zGcRxgrgo5wEAAIDE6q4EcrSp//vvt4qwGbw2rR8zZkaE3TCiS+/+a2XGs3WPW8GCeaRfv3fNOtGlXZK6dGltLzmHfseuXduYFkMPPpjWTr1zMmV6yAxU6ut3iGtZsmSSyZMHmZZHd4t2rerQ4dVIAxqetNI9aFBHSZ8+/oJcbhrM++CDNyIcC0enjW/WrE6E3YaiouPy6KxZ0f3uThYfeS0u3lP/V1tc6XvdCyIr5wEAAIDE6K4EcpRedOuAuxHRO7A6Tk1saTeeb74ZLdWrPxfhWDBa6Zw6dWikUzUrrdTWrFlePvmku/j5OWO8CeXnl8a0PNKZXnRMnIgq7/FFu0e0aFFXli+faLrh3Cna4mjatKEmoBCTQJ22Xrj//rg5JDRvdevWJsrP15ZpWunWWYvikyuY19qeySryYN4rr1SXzp1fN79fTOmxpoGgb7/9zByDMaHHWY4cWRzVqiI+8lroe7Yxx3B06br6P/q/OmbRvSA65TwAAACQ2Ny1QI5edL/22ksRVva0W8ioUV+JzoJUvnxJWblyimlJoK1idIYXzzv+WgHUwVuLFSto1tHAxZw5I6PVRUFnn1myZJxprVK+fIkwXX+0dUKtWhVl9uyRpkXJ3WjNEl2e++Dtt5vK/Pmfyi+/zDYtn+KzO5Mnrfg/+mgmU6kaPfpD2bx5rvTs2S7CgaXjk+YPnYZ7/fqZZlt0m3T/eLY00Yq3diOqV6+KTJ48UL799tNYdbfzRfN306a15YcfvpR27RqbYKE7MKKfW7LkUzJhQn+r0v1xjCvdGgTQsWkmTfpIGjWqabo0aV715PnddL1ffplj9kd0WsroPtJ1v/9+vJmiXrfPvd/0O+g4KhqsGTiwQ4Rdd/TY02NwxYpJ0rZtYzMjk3egw72NdetWlmHDusjPP8+QL7/8KEbBi4QgPvKa6z1fNu+pv5/+n8745vn76XNNc7+nHu/6P9H5jROi+CznAQAAgMQkzgY7vld4DsjpLaLBjgEAAAAAAOLCXWuRAwAAAAAAgJghkAMAAAAAAOAQBHIAAAAAAAAcgjFyYogxcuLGqVNnpVGjjnLkyHE7JXZ0Niwd+DeiQXeBnTv3ScuW3eTChUt2SuzUq/eCDBnS2V4CAAAAgLuDFjkAAAAAAAAOQYucGKJFTtwICrok48fPkQsXLtopsZMjRxZp3ryOJE+ezE4Bwjp27B+ZPPlbuXbtmp0SO0899bg0aFDNXgIAAACAu4NATgwRyAEAAAAAAHcLXasAAAAAAAAcgkAOAAAAAACAQ9C1CgAAAAAAwCFokQMAAAAAAOAQBHIAAAAAAAAcgkAOAAAAAACAQxDIAQAAAAAAcAgCOQAAAAAAAA5BIAcAAAAAAMAhCOQAAAAAAAA4BIEcAAAAAAAAhyCQAwAAAAAA4BAEcgAAAAAAAByCQA4AAAAAAIBDEMgBAAAAAABwCAI5AAAAAAAADkEgBwAAAAAAwCEI5AAAAAAAADgEgRwAAAAAAACHIJADAAAAAADgEARyAAAAAAAAHIJADgAAAAAAgEMQyAEAAAAAAHAIAjkAAAAAAAAOQSAHAAAAAADAIQjkAAAAAAAAOASBHAAAAAAAAIcgkAMAAAAAAOAQBHIAAAAAAAAcgkAOAAAAAACAQxDIAQAAAAAAcAgCOQAAAAAAAA5BIAcAAAAAAMAhCOQAAAAAAAA4BIEcAAAAAAAAhyCQAwAAAAAA4BAEcgAAAAAAAByCQA4AAAAAAIBDEMgBAAAAAABwCAI5AAAAAAAADkEgBwAAAAAAwCEI5AAAAAAAADgEgRwAAAAAAACHIJADAAAAAADgEARyAAAAAAAAHIJADgAAAAAAgEMQyAEAAAAAAHAIAjkAAAAAAAAOQSAHAAAAAADAIQjkAAAAAAAAOASBHAAAAAAAAIcgkAMAAAAAAOAQBHIAAAAAAAAcgkAOAAAAAACAQxDIAQAAAAAAcAgCOQAAAAAAAA5BIAcAAAAAAMAhCOQAAAAAAAA4BIEcAAAAAAAAhyCQAwAAAAAA4BAEcgAAAAAAAByCQA4AAAAAAIBDEMgBAAAAAABwCAI5AAAAAAAADkEgBwAAAAAAwCEI5AAAAAAAADgEgRwAAAAAAACHIJADAAAAAADgEAk6kPP33ydl44btcvnyFTsFAADfrl//T7Zs2SUHDhyV4OBgOxV3CvsfuLfcunVLdu7cZx76HM5x5sx52bhxu/l7ryMfw6mS9LHYz++affsOy7vvDJTly36WMmWLSqpUKeTChYvSr+/n8v33P8q//16Rp58uZK+NmNACuv17g2TWrO/lqafyyUMPpbNfAeBpxPApMnToJElyfxJ54ok8dqpvHFcJ0/Jl62TkyK/MxWnxp5+QBx9Ma7+CO4H9f/ecPXtBJkz4RkZZ+3/6tO/k9OlzUrLkU/arQPzYtnW39O83Ttas2Sz58uWQzJkz2q8gIdOgu17zzPtmhRw5clzKlCkqSZIksV+995CP4VT3BcfBbTNtNTNkyER7KawCBXJLz15tJWXK5HZKeBrI6dN7jKROnVIGDe5gKkU3btyUL8bNlnXrtkjA202kbNliZl0tfJYu+VHWr98qb7z5iuTJk92k34vmzlkuM2Z8Zy+FVa5ccenYqaWpcH7QbaQJhvXpGyB58+aw14DbzVvB8s3vf8mwNTtlx/Fzcs3Ke0nuv08eS59GBtd6Wl5+6jGz3m+BZ2TQyt8lXcpkMvGVsiYNd4e7zIiqtZ77OIgOvaj56affpEmTWtLglap2qm8cV77L/fvvv1+yZMkkLzeoKs8+W8ws30l79/4lAz8aL4899qi836WVOadEx904r1y8+K98O/9/snv3Aen8/uuJIhgY2/2fmPg6Lz/wQFLJmSurNGtaWwo9mVfuu+8++5W4ofl38OCJsnXLLkmRIpmkTZtaChfOb66dkDjpb75i+TpZsWKdHDt20rQi0HymFdC332kaq3PSb7/9IQsXrpJiRQvKiy9VtlNdtJWdVvr1mPbMV//8c0Y+GjDOPP+wx1vyyCMPmeeIHv3dfv99rzkX7N17SK5evW7KhwwZHjTXL42b1JRkyR4IOd9GVadylz9RXfto1U8/c+bMJdK4cU15qd7zcV4uuUWWr+60iLaFfAynitOrbD2JPPxwesmYMfSRLl3aWBUOSZMmMSeLGTOHhQRxlF78Ll36ozlx0XTbRS/cPPe5PtL6pbZfRWSu37wlreesk0Zfr5Ffj542adnSpZYUVv47cOai7PnngklT3+8OlHm//yWXr9+wU3C3aPnw8MPpQvK7n18ak+5dBnEcxD/PfZ4sWVI5evSEjBo5Vb4YN0du3rxpr3Vn5Mv3mEz5aqD06ft2jIIId+O8cuLEaVluVcTOnAktY5wutvs/MXKfl/XYUHv//Ev69BkjCxesMstxSfPSgf1HJHnyZKYSMn5CP4I4iZjeQOjXd6xMmjTPlLda7rrzmbauOHM6dl1l1q7ZLDt+3yv//Rf+GmfLb7tkw4Ztcu3adTvFRSu8oz/90Dyo/MaMnncGD5ogfa1y4fff/zRBHKXnIL1ZtG7dVrNOfNB6Wb36L8jcb0aZv/EVxFGR5as7LaJtIR/DqeI0kJMnTw5zEOhFhPvRpWsrc0GD+FOixJNh9rk+2rRpYL+KyKzad1ymbzkgyZMmka8al5N/BzWXIz1fkYsDm8vyN6pI1nSp7DWRkOTMmVU+Gd09JL+3bdvIpHuXQRwH8c9zn0+f8bE0blzDpP/446+mhQZwL3KflydM7CfTpg+VihVLmrvvS5asNYGXuKSVa23FrF0jNJiDxE0ro3/8sd+0vOo/4F1zw1Pz2azZw+Xdd5tJylQp7DWRUGkwbsjgibJ5805TR9KWN1pOfLvgU5n/7WgZM7anPP30E3e8VSsAZ4nTrlXR6UYVGHhCJk2cZ05CN2/esi52CkkF6wLn09HTzR08d9cq5d3VIaKuRJ5dIfRC6eeft8g3c5eHNDdNl95PatYsL3XqVDRNFN3c768FaOpUKc17awWxR8+2jgg+RacJZWRdQE6dOmeaVW765Xfzut5Zz50nu7z1VkPJkeNRs47egfl46JemWXjfvm9LmjSuwMaqVb9Yv9k0efzxnNKrdzszrpEa/cnXsnr1JnnHupioVOkZk5aQDVm1Q7ot+VVKP5ZJlrWpIn4pQvOH27ELl6Xsp0vk8LlLdopLjvRpZN07NSXLg6mkybS1MnPrQelXrag8aOWdnsu2SNEsD8mS1i9I6mRJ5cLV69J3+TaZ+tt+OfPvNXkodXLpWL6QdHjuCUn5gKtfsnbxWrzrqLVNv8vWY2dNFy/935Yl8srgmsUlTXLXtrm35/yV6zKvZSX5dsdhmbJ5n1y11n+pUA4Z93IZuXbzprwzf6Ms2R1o/qduoewytl5p87luaw+cMN/d/Vn6WpeKT5qH00RUBmnx9ueff8mc2d+bLix6x0vzuY7foUEebb7s5lnePJ7/MZk44RurvPrHvFeNGs9ZZUy1kPIjOsfVhvVbzedpeda0WW0pX/7pkIuyq1evWessNcGO8+eCTHq+xx+T9u2byyOPPGzWSegi2ueXLl2W3r0/k4MHjkrzFnWkXr0XTHp09otnN9vOnV+TyZPnm7QuXVtLyZJPmnFApk1bHKbMKlasoOlKoGWTr266Ss83U6culEMHA82dOK0AaVPyl156PlrnFe3CN3vW96Zs0zuk+v916lYKc07x/OzuH74h3y1eY35f93lOu2y585s7r3nran3PUqUL20vhaWVdWw4tWrjK5EFt8fraa/Vk86875WevboHu7+X9+7i3U3nmXT1Wdu7YJ19/vch0o1A6VsBbbRuFnA9UZOfNo0eP+9z/0X3vqH5fJ4jovHz8+Cn5sPsoOX/+onT7oI3Jz9HdL57v+az1+HzsTEmePLnZx5O/nB9pXnJ/xrTpi0Pyv/4+zz33tDRrXts6d4e2nIrs+MudO1tImde1WyvZuPF3Wb1qo1y/fkNKlXrKbLO+94QJc+W3X/8w76dj9Lz51ivmeFGxKY81nz32WBbzPTUA5s7z5Z4rHqYVgfe+1Gs//R66buXnS/lcR/na3wmd+zpLW6t36twyytYUUZVf7t/du6uylh0BbzeWvn3GWuX3WTvVJWPGDCb/KV/nQs88q5817vNZctDKf1oO1a9fxaRpy1o39znxfz+st7bjqumi26x5HausW23yimfZmBjOnxrQ1bqQlmtaHhQsmNt+xbe47lqlfK0bk/OYiqzM1jIvonyl30Hrg1GVN5rvvM+L7rLB+ztqd8Nl3/8kixatNudHPS6yZHnElFdXrlyLdFs0/XbqSiou951Tzne4++5oqFebfPbq+als27ZHkiS537rIe9CMEP7Zp9PDNdf0Jcdjj5oTV4oUyc2dJz35a7BA05Ve5H4+dpZp1q9BHD3ha3PTf62KxXTrYNGmqHqwePtj535zMOnJ45ZVmdaTfWKnd8rf7/yxdSH2i1nWJuApU6aQPbsPmnQNhim9gNL9eNoqyLTQUbp/tm/fY55rQa2DKiqtwB22fmM/vzSOGbuo8KMZ5AErL24JPCMzthwwwRRvqZIllfpP5ZAiWTKY5ZwZ0prgiqbpa540OPLh91sk6Op/5r1uWfvq0NmLUmb0Evnkp12SxS+VNC6aS5JaFx4fLv1N2s3bYLp3qRMXr0j7Bb/IX2cvSc0CWaV6/qxyw3qPMet2S/uFm+Q/ez23/6wL1bfnb5DZ2w6Z4JHSsX5azvpJGny1Wn48+I88lCq59R63ZI61Tnfr89xZ+/s9gVJ1/ArZfPS0lMj2sDQvnlvSWe+x7VjYizWn04rC1K8Wmvz+xBN5zcWAniz1okgHBdWTuzfN20MGTzJlxYMPpjHrfPPNCpky+dsoywb3caV3THPmzGY+78qVqyboOX/eD+b/9WJj6NAvTWVcfxC9GClSJL8c//uUBAXFTzPqO8m0Ckjmyo83b7jybHT2i6cbN27IxInfyJ49h8xF0C3roRfsfXp/ZsosrYhUqFDStAb666+/Iz1/6CxK2nR9/74jZn39P73Q0kqtiuq8on3nu3UdIYutizINTOjvpecvPafoOG563vGk+cZ9p9Vdgf3FulD77LMZ5rdXOpi2fo5+nn6ufr5+ZsZMrjLGF91Hmgf1oWWxlstagfn885mm28Pt0PfW8RK068+xY/9IyWeeNEH6vXsPS88eo63K9yF7zVDRPW9G971j+/s6hVaYkyZNavaH5ufY7HOdyXPC+LkmGKSBCn145iXP/Kt5yfMz9lnvq/lez/Xa5fF7q8LT2TomNX9783X8uen/jre2YZ11jeAOAq1fv01GfzJNPh46SXb9ccD8fvp/OsbhtK8Xh+SN2JTH+jmfjJpqjjPdfv3un302XbZu3W2v4cpjOn6LBpC1MqWVIPc1jbtrSmz2d0Klx4XS7jh67Lv3ry/RKb/8/FKbwJ67S4kGZjUPFSte0PzGpcsUMWlK19HXNC06rb90vw7oP07OWce35gstL7TcWL78Z3sNVwXcfU7UPKKVXS1H9Xf/6y9XOe2WGM6f+t10UF393Z5/vrQUKJDLfiXhiM55LKoyO7J8pXnQLbLyJrp0e7WON9k6P2pe0zyk3e+Dg2+ZPBXdbfEW3bqSp7jYd0B0ha2F3iaNmjdp3Nlecmli3yHUk//sWUvNAaYXHh90f8OclDVTj7Eyt0Yto6J3sDRKqweWHigNG1YPEzXdtm23uePgHeHWoE7/fp/Lrl0HrMJzk2md40nv1jZpWlNefLFyyJ3hxEz3uc5qoTODaXNvvRulF5l6Uah3bebMWWbumBWyfic98WvEWYNverc1e/bM1snykhw8EGiCZBr11osiTdfKhQZ8NAKud2ucoFLezNK0WG7ToqXtvA3y+fo90rdaMaldMJsZ8FilT5lMhtcpKQN+2G4CHaVyZJTJjZ41r3nT4El/6/87Vyhk/l+vr7TVy65/zksnK21IzadN+sEzF+WFL5abwEurZ/LKszkfMUGh8Q3KSOW8j4Z8tnb7em3Wz7Liz2Mm0KPj97jpWD35Mz0os1tUlAesfNv/h23Se/lW+W7XUSmf21/2fVDfDMw88sc/pOPCTfK/fX9b73FZMvulkllbD5lWONoiSL+b3tDTwNPOE66gXGKhJ+gGDarIE4XyhrSc0IsFLQ/0juzRI8fNnTxPGnD+sMebpvzQCy294NIySvurV6tezuR1X/S40lms9PjQrl7Pv1Da3BFyf56Oh6J307Xs2meVYVoRH/BRe3PnUenxkxjKHy1X9C6afves2R6J9n7x9w+9k6rnCQ0Ij/uid8gd1k2bdpgWUhpc7tvvbfO60rv0nq0KvGlLFW0poHefW772kvlsLev0d1aRnVf091+4YKUZh6Ju3UrS4tW65jf655/T0rvXGFOB1e+jd/Xc9M5ehYolTEsAveP849pfZfToaWYME91WzT9Vqz0ruazP3L3roDkPvvb6SyGtVyKyZ89BWblyo3nPd99rbgaTVnr+0gGGb8fhw3+bu5iaJ3v3CTDbqN99rnUu0DvfWmnSO58aKHCL7nkzuu+916qAx+b3dYqTJ8+YoIJ+l4esCkZs9rmWWdWqlTP5xV2eeeYl5Zl///rrmCyw8q+Wg2+/3TSkFYtux0cDvjCVbM3fbd5oYNLdfB1/eq5XWsnIap3jO4963byve3t//XWnubYb+3kvk6f1u2krmu3b/zTBl/Tp/WJVHmu50b//u+Y76vE5oP/n5n+0PNC712rnzv0yb94P5tjQlj3uMsZTbPZ3QlW+QgkzMLsegx999IUUKpTHOhZry+PWvvP83jEpv7TllLZ00MBP6dJFQlr2qdesclNbbxw6FGjGwdIW125RVTo1uNK+Qwt55pmnTNDo00+nmTLxV6uS+8ILZUw+0O+iswZphVbPvRpg0213n3s96Xdx+vlTj6WT1n7WQJgGErzzakIQnfNYVGW2thqKLF+5RVbeRIfmFQ3k6vGg/6+tYXT7vEVnWzzFpK6kPT/c4mLfAdEVp6We3lnRyr1GLN2PVKldXW70RL7fysRacDVqXMOc6JUeFBpYcXfNiS09kLWpnQaMKlcuFaaZohb0mqbr6MlDD05PevFRq1YFx1ai9Hu/9OI7YR56hysiekGjv4VeWHl2F9HvX6VqWcmUKYP8/fcpc9LW1woWdE3FvGPHPvNXT6TaCqdMmSKmoNZBHJUGdPQCUS8mImr2mdAksy4sdQYqHR8nQ6rk8vvxc/LS5JXy+OB5svHwKXut6Hsu1yPybrmCIYGYY9ZFzNLdgZIxTQppWSJPSHquh9LKM9kzyqVr/8m6QydNmgaMqjyeJWQdpes8bB1D2sLneNBlO9VFWxK9WTq/+Q56HVAtfxbTMkfTNZCkQRxV9rFMJv3c5Wvyd5CrRZq7JdEvR07J0fOuu1j6udpCKTHR/FvUuth353GVNesj4p/5YXNnUC/+vOkJ3n2HTC+wtEmsts7QCoUGMyOix9WfVgVDA5l6t9d9caaBUH3ohYkGD7Sc1GNNKyU7d+w1FwVK7yDpxalTafnqbjGg5YPu5wL5c0V7v3jSypR2+/BsJv+AdUGk+03X19YF+nlKA0CRlTfJ7LvGGqg5bQ8Cqu+jF1BR0fyhs1zoRVYl6xziPkfodmmXDG3iv3u3qwLtpuWqnk/0Ak49YVWy3HeYz9itF2Nj54795vOKFi1g5dHQZub58+c0FbnbsXnTTnOxWqLkkyEXwPo76bGjF5UHDgSaCpmn6J43o/vesf19Ezo9vjVIMf6Lueb3e9z6vTTfx2af67XMKw1Dz9lR0c/Qc7LmmbLPFg059rTCXPfFSmZZz+tatnnydfy56WtVresEzd+e26vpOguM+9pOy1BN//ffyyHlbGzKY71TrUEcpe9drNgT5vk/VoXHfS2nLX9031as+IzPII6Kzf5OqHQ/aJf2pk1rWdfUD5jf8INuI0zLGw3SuMWm/IprTz2Vz4z1ojTPlC5VxDzXslhbZarft/9pjne9TtcgjtLfRoM/3q27E8P5U4NfGtTSYyahjmkVnfNYXJXZkZU30aHll7Z+0fdp3aZ+yPF9u2JSV/J0J/cdEKeRC20W5j3Ysbv1i55QLl26Yi4gPO+8qvtMxTX8iTcmtOncqZOuA8R9IvCULZu/+XvNqjhr0z1PhTzuDjmRr1mr9OQeEZ3RQCPG/v4ZrRNfaBRZ6QXNQw+5ml7rvlIFCuYyJ5sjh4+bps96508LmtJlilqFUzrTlFn3vwZ0tGDSE7eTaACjxdN55HCPBvJx7RLySFrrou7MRXl+3DKZv+OwvVb0VMidOWTMG/X3hcty7rKVNy9dlSc/XiD3dZoc8tAxdZRnlykdh2fwqt+l5sQfJHv/OVLI+h/vAI5bKuuCJkOq0IuALA+mNsEbTc+UJjQw6k7XXmM37YueN0s9LtnTp5b1f52UXAPnmjF39Ll9LklU9CS/fNnPpn/5W2/2lTate5rxWyKiwWjPioBeNGe2jhX197GIg3vu40r7fbd8tXtIUFVbKWprRT1Ra5NhrYxVqFDCXMiNGzfbrDtzxhLzv07kbolZ76V3JaBdf9OV6cEH05p+3nqXKrr7xZNe9Lib8rvlL5DbVAi0YjpgwDjrd+xlWvN4B+a9aaVTy0S9i//Wm31MhUefuy+cIuM+b2keeu/dgSHbrg/3uCTu7mNu2n3G1/nEs0yNDXcQUccr0wtWt7ioDLjfW48Tz+/Y5f1h5rfTypK7wuQW3fNmdN87tr9vQuW+wVK/3nvSudNQ0zpGr0PefPMVs99is89z5cpmKgnR5f4MvTbzzDNKyzntIuCuVHrydfy5aV5LY3cXULqulpGarse9mztdu915fo+Ylsd6TeKL+1pOr0n02kQ9VTifzyCOis3+Tsg0D73coKp8Mb6vaW2oN0M1WN21ywgTOFSxKb/imuYL77yn3PlOf78TJ1zd+/LkDRu00d9Sryk9Ja7zZ7AE64VZAhSd81hcldmRlTfRcfLkWZPXtWyMzg2a6IppXcntTu47IE4DOdGhBXNEJ1rEjq9Zq/QuU1zRi0/tKnXixCk5c+ac7N9/2NxRzGVVKHLlzmruwutDAzo67lF26zUn0sGEtSXL/g/qS8MiOeXf6zdk8MrfzaDCt0vf+xXrPXVsHe/HU4+6pg3VsW4eHzxfeny/xYyTUyG3v3St9GSYAYrjio7383vnF2VA9WKmxY8Gccp9tlQGrtyeqII52nXg7YAB8sUXc0xlQe9C1qpdUR591NUcOzq0W47eVVZaMYmKVmaeK/+06X/t/dBxK/SiVrv4DBzUQQoXftzcpdEmuhGNV5HQebbEzJM3h7za8kUZ+3lP0wTfU1T7JSoaPO7StZXpNqtdofTCTQfQjGjsMze9QBz1yQfm7rX2k9cgTvcPRpqm2NEJ5ijPcWy8H+6xdO6UJPeHrxT5kiRpzE/v7nEDvB/RHQ8jMlG9d2x/34TK8waLtl7S2YSGDe8i3lPbxuc+T2jiojyOTHSOjcS2v7W1zWuv15NPP+thWudpq6P581aYSqNbQiq/IhOd3y8xnD/1fKk3tbUV2h4Hjc3kLT7LbA3geQfxouKk+mViO9/h7rljgRw9QWozM82gmmE96Yknqn62UdGLJo3qKl+D1ml3IJU2bSpJ5jVA7b1G95PevdHAzPnzQXaqi0afNVijv1caa18pvVDQgI12j9vx+15zZ1G7W2nE+fF8OUWbI+uddQ3maDTcyd1DlDvook5eumoCOrGl3bW0G1MS6+TSqfwTZmwd70edJ7KbYNHwNTtN65wJDcrKH11ekqlNnjODECfzcTcrLmh3qw+fLyzHejWUz+qVMi2TxqzbIwfOhM0TTqUXsjrugd7x0HE8xn3Rx4yBoGMFpLBOohHxvrOnZZaO+aIXkJkzR9z0V48XPW60NVyLFnXNOALeDz1hK73Y0IvuPn3fNtulARAdrFFnXHAaz5aYH3/c2exrz7voMdkvUdELO21urxXij4e9bwLM2i9eBxKMjG6P3r2e9OUAeeONBuZ9dPYn7Y8eGR1vTbdb19euKL62XcfYuRNS2UHEwGMnwgSg9A6e5nFvj2Z2VY61lYHn+q47wGEDWO7xebJl9zctqby/o46REdtZNGLy3rH9fRMizxssAz56TypalWbPu7Txuc/dHrXHD9GbL54Ve6XdH7VrS1q/1Ob4jG+xLY+jotdzel2n3C38fLkT+/tu0us6d7ezc+cuWuXCjQRVfkVEx01ytyB3X6e7adevoKCL9lIop58/9RpZg1Bq6ZIfzTieThVfZbYGH911upu3QssuPb61lZ8ndz7XlmeBXnnodsS0rhRTiel8h7vnjgVytDuVVvI18+uUbO7mY1pJWvDtynAXGVHRwI8GgNy0YH+6xBPmrw4IqQMbu2mAYfWaX8xretfFVzPPe0mWrI9YF3iPmAHGdKA/92+hF/wr/7fBTLWXLXtmc+dK6X4rXDi/KUDXrN1smupqdyuVN18OU5DpYNUa0NH1nLR/dUaocev3mLFq3K78d1MW7jxinmsQRsec8XTS+v66TnToFOU6Ro1OP65BEs//07RRP/4hF63P1mCRBo00mKLj6Si9HtVWOv9cjPvo/Pa/z4bM0KWfqYMt69TrOsOVTmOeGOiFrF7QKu3io/lYmYG7vcZk8bRhw/aQCys9Jn5Ysc70g/b3f0ges48JX/R40eNGjx89jjyb6WualntKA6KewWydWSGX/b5XrAvXxCa6+yUqWvH0DFhoS8HMmV1d3q76mO3GTQPP7s/UC6cCBXObizPtlqGtrTx5n1e0D7yO9aHnre+X/hhSVipNW7x4tekacDu0suIrEONNm2Fr2frr5j/CnN900Fe9+PPmDqBp5cg9BpF2R9DZYvROsCcdu0gvnLdu2W1VhkPHzNAyX6eS1tklYyu67x3b39ep4nOfu2ll0XzG1t2y7uet5r2V7ucl3601yzp+zp0IYMS2PI6KHhN6Xafvp5Nd6KC5bjpejI6doe7E/r5TdMYpHajYs0uc/qbu2US1UqsBktiWX3osuvOKtwsXLoV5n9ulwU33OIx67e7r3OspMZw/Na9Wr1HOtFLVPPph91HmGtrzWlzHXdFZePU6PaGKaZkdWb7y5hmg1XOcO69r90Gdrc2TO5/r+XvWrKUh+UM/a7tVvmi3bm/R2ZaY1pVi4l473yH+xGnTFL3r8+47H1mFlJ1g0T7YOmK9ZvRq1Z81d0y0wNIB2PRiWjPyQw/rmC7RuyOkzRE1s+sd8uHDJptlHVSqTt1K8uyzxU2LkVWrfjHTSWrUWy/c9cJcL9i1Gamuc6/T7iGtW9c3s1bohY8WkvpbaN9NjWjrPtXXPbuR6IBz2jJHx8HJmtXfFDpKC1CNWmu63vXWwI6T6Pg1PZdtkYD5G00ARVvO/HPpiglyJE+aRHpXKRIy3ox2R9Kgzur9JyTnR3NNkGbBa5XMLFAR0fU7ln9CVh84LlN/3S+L/jgiZR5z3SVde+CEFM3ykLR6Jp9puVPIP70ZI6fp9LXyfN5HZf/pIDOuTfpUyeTGzeid/KJryKodsmr/camUxzUonD4/8+8109UrX0bXXRCn06ar2v1Py5xpXy8yJ3S9aNUTqI7t5DkopCe9S92xw2CT3/XErceEdh9q1LhmpONT6PGid5dHf/K1mQXl+2U/m7uGF4P+NRcfpUq5BqjVskubz2bLltkqyx6W48dPm1aEetzpzAiJTXT3S1R0+vARI6bIk0/mM2X7wYOBZjDCzI9mNFMuR0SnN9+xY6/5P6XP9byj5wN3l47Iziv60MFE3WVl/vyuIPYff+yzzmvZ5Pnny5jlmNLm9enTpzUVlx4ffmLOlW+91TDC76LTNRcsmMtsS6+en5p9oBeUendS86WOE+DJHUDbv++wtf5oU2nQ/Hy/uQMe9nybN+9jZvB697lTx6HQGy861sbx46ekS5dW9poxF933ju3v61Txuc/dNK/Wr/+CzJixREaNmiqTJ883ZZnmfx3XTrt8vfTS8/ba8Su25XF0eF779e8/zsrracw4FXrt16BBNTNg/Z3Y33eKdiH65psV5vrWXQ5ogEUrplp26YQi7tZfMSm/tGWLjp3zP6uSqrOQ6XL79i3Mb5czVxYTNNPy8803epvWAzr7bFyoWKmkrF27yZSFHdoPClNWadnmrpirxHL+1LzXtVsrGTJ4ksmnI0d8Zb8SSvexDm7uyVc9S4+fbt1ah5k56U6IbpkdUb6KjDtAq4FYnfVp29Y9Jk/rjQ/3IMJuum6LV1+UQ38dCxkLT/OQTmuuASAdGNwtJtsSm7pSdN1r5zvEnzhtkaPBEj0pa5TS/dCR6d2RVL1g7/z+66Z1jrbE0YdeLOuUtHogRoceyDqFogYS9GDS6HxK68BSenAHvN3ETM2qUXqNouqI4FoYduj4qnnNuwC4V+mA0MNHdDUXNtoaSn+r69evm+bfmu49YLTuQ511Rmk3K63kKne3K6UzT7gjyk7RsGhOeb1kXnnUL5UZkPjvoMuSNvkDUvXxLLI2oLoZK8dNZ5R6r1xBM5ixtpLR86h3ax1fSj+WSX4KqGH+X1vk6CxWGsTRVjBj65c2n6fvOf6VMvJioeymdc4Sa508D/vJl42elTQezfHjiglKWReB2uJHH/r5Og25bo/OgpVY6EwI1auXM8/1zm9w8C15v8vrJvgYkWrVnjVT+OodS63waGVfy62yZYvaa0RMp4TWqW11+t8g68JaZ4/TFiE6vXbzFnXNOjpOi44xdejQUVOp0L9657z/gHd9DtSeGERnv0RFp2zW8kUrErrf9IK+gnXh3rfvO+HGHfHkHhz455+3mIeeQ7QbxZtvNQw5H0R2XtHfZOCg9lKkSH5TudCbEFoJck/Zq5Wc2NAKil58apcPPRdqfnPPsOWLfo72p9fppvVuu57f9H979mrrM9/oxWXnzi3NDI7a+kgrC3rR+LZ1HvQ+3+p+aNuusRlrQ7dLW/HovtIL4ZYtXzRT5MZWdN87tr+vU8XnPnfTO//1X65iKjJa5mirWT3Xp06dyhwDmh6bSkhsxaY8jg7Pfanvpcev5vfcebJblUFXoPhO7O87pVbtCmZ2RW1JpUEO/b5aqdQxyIYM6RSmPIhJ+aWzRmlZ7S5fklp/9bkqUqSA1LY+V1v76Odp3nK/drs0qK3lmI7tqGWVfif97XpZad4zGSWm86f+BjqeXL36L5ibou5WajpUhH6XVq3rm7zqyVc9S/eXeyKLOym6ZXZk+Soyzz33tBkPSfO2Bk40UKn1uEL2TRlP+nkDBri6sOp76z7SfVXOeg/3jWcV023R3yEmdaXoutfOd4g/91kHRtze6gcAAHfMiOFTzF3GJk1qSYNXqtqpAOBceiNWB6bX1kY9er5lZsoDAIRKPLfeAQAAADiGdm/79tv/mRZDbvpcxwLSLqOxHYcEABI7AjkAAAAA7jgd4+ebuSvk1Rbd5I02vcxDn+u4JDr2YqOG1e9oF0AAcAoCOQAAAADuOB3DpEaNcmbMRR1XU8ch0XG8dMyfwUM6MvgrAESAMXIAAAAAAAAcghY5AAAAAAAADkEgBwAAAAAAwCEI5AAAAAAAADgEgRwAAAAAAACHIJADAAAAAADgEARyAAAAAAAAHIJADgAAAAAAgEMQyAEAAAAAAHAIAjkAAAAAAAAOQSAHAAAAAADAIQjkAAAAAAAAOMR9wRb7eawcPnzCfgYAAAAAAJD45Mjhbz+7+wjk4J722Ojv7Wfw9Ne71e1nAAAAAICEFMihaxUAAAAAAIBDEMgBAAAAAABwCAI5AAAAAAAADnHbY+QATnZfp8n2M3gKHv6a/QwAAAAAkJAQyAEAAAAAAHAIulYBAAAAAAA4BIEcAAAAAAAAhyCQAwAAAAAA4BAEcgAAAAAAAByCQA4AAAAAAIBDEMgBAAAAAABwCAI5AAAAAAAADkEgBwAAAAAAwCEI5AAAAAAAADgEgRwAAAAAAACHIJADAAAAAADgEARyAAAAAAAAHIJADgAAAAAAgEMQyAEAAAAAAHAIAjkAAAAAAAAOQSAHAAAAAADAIQjkAAAAAAAAOASBHAAAAAAAAIcgkAMAAAAAAOAQBHIAAAAAAAAcgkAOAAAAAACAQxDIAQAAAAAAcAgCOQAAAAAAAA5BIAcAAAAAAMAhCOQAAAAAAAA4BIEcAAAAAAAAhyCQAwAAAAAA4BAEcgAAAAAAAByCQA4AAAAAAIBDEMgBAAAAAABwCAI5AAAAAAAADkEgBwAAAAAAwCEI5AAAAAAAADgEgRwAAAAAAACHIJADAAAAAADgEARyAAAAAAAAHIJADgAAAAAAgEMQyAEAAAAAAHAIAjkAAAAAAAAOQSAHAAAAAADAIQjkAAAAAAAAOASBHAAAAAAAAIe4L9hiPwcAAACAaNl89LSM+vEP+WHv33Lq0lU7FQCcL2OaFPJCvkel/XNPSIlsD9upCQeBHAAAAAAx8uWmffLO/I3yUY1i8kqRnPKoXyr7FQBwvr+DLsucbYfkw6Vb5NN6peT1knntVxIGAjkAAAAAok1b4lQY8738+HYNKZ71ITsVABKf3wLPyHOfLZU1AdUTVMscxsgBAAAAEG3anUpb4hDEAZDYaTmn5Z2WewkJgRwAAAAA0aZj4mh3KgC4F2h5p+VeQhJnXavOnr0gf/55WP7554xcu3bdTgUAJDTJkyeTRx55SB5/PIdkyPCgnQoAQPTc12myBA9/zV4CgMQvoZV7cRLIOXTomPz22y4pUCCXZM3qLylSJLNfAQAkNFevXpfAwBOye/dBKV68oOTMmcV+BQCAqBHIAXCvSWjl3m13rdKWOBrEKVeuuOTJk50gDgAkcFpOa3mt5baW31qOAwAAAHCG2w7kaHcqbYmTLl1aOwUA4ARabmv5reU4AAAAAGe47UCOjomj3akAAM6j5beW4wAAAACc4bYDOTqwMd2pAMCZtPxmgHoAAADAOZh+HAAAAAAAwCEI5AAAAAAAADgEgRwAAAAAAACHIJADAAAAAADgEARyAAAAAAAAHIJADgAAAAAAgEMkuEDO5ctXZd68FTJo0AQJaNdPWr7aTXr1HC1TJn8rhw//ba8FAAAAAABw70lQgZwtW/6QDu0Hydw5y2T7tt1y5sx5uXr1uuzd+5csW/aTdOs6XGZM/05u3rxp/wcAAAAAAMC9I8EEcjRwM3TIJLlw4aKkTJlcKlQsKT17tZNevdtJq9b1xT/zwxIcHCyLFq2SSZPm2f8FAAAAAHHn0NJv5L5Ok6XpVjsBCdLV7T9I5vcnS+bZB+0U4N6RIAI5165dlzFjZpnnOXNmkc/G9JK33mokTzyRRwoWzCMvvFBWRo3qLi++9LxZZ9XKjbJr137zHAAAAMC9I/DCv/LfzVv2EgDcexJEIGf58p8lKOiipE2bRrp1ayOpU6e0XwmrUaMaUrx4QfN89qxl5m/C8Y/MbFFP2i04Zy8DAAAAiGsvjFsu4zb8aS/htlw5KMM//0bST91tJ0TTiZ3SetQsKbPspJ1w56Uo/IIc//g1Od4wl52ChPC74M5IEIGcn3/6zfytU7eiPJjOzzyPSPMWL5q/f/55UM6evWCeJwyPyAvtP5DOldLbywAQP377bYvcuuX7TuSvv7rKUwAAEqvL/92Qf6//Zy/htlw4KZP2X5TzN+zl6DoeKJOOXpHzNIxKWPhd7hkJIpBz4sRp87dggdzmb2T8/R+WDBkeNM+PHklYs1g9XKyE5Io8DgUAt2Xr1u3SsOGr8v77H4YL5kycOEUaNGgu8+cvtFMAAAAAJDb3BesIwrdh9uzl8uKLleyl2GnerIv8998NGTK0s+TI8aidGrEPu4+UAweOyttvN5NnyxWzU2/D+e0yc8iXMuW3s2bx2s1k8lyXYdKvqt265uY52f7NWBk6aY+4Qk4iyXOUlXcHvCXPP2InWH78oK0cbPu5tMzuufyJPLflY+k51vW/125mkFqDPpLOJdO4VlLW50/pM05m7rpkfZa1ziMlpN/od+W5h+3Xo3LtH/nfJx/L6P/9I9d00XqPLI36yPQ2uUWOzJYGn2eXuYNKu9b1EHZ7N0jXl4/Iu1/ml5lvDZMfrI3N+uowmdT0EXu9j6XArA+l1//OyrUc9WT6hJcki1yXY8vHSZfhm+39kkYKNH5P+r2WX4hnAfFDy8qAgPbyww+rrLK3lowYMUTuu+8+mTZtlvTs2U/y539cZs6cLOnSpbP/I2oLFqyShg2r2ksAAEROBwIOHv6avXTn5RgwR9qWyS/dKj1lp8QtHew418qL0qTZazK9qJ1oWfrlZKn5R2ZZMvwFyfnjD9J0xXHZesV6IWVaaVXneZlY0jr33jgj82esllZ/2K1cPF/zEPpe1aTMno3Sas5emX/BNTNvOv/MMuCl8hKQx8dwE7cuyoaV6yTgp5Oy9V/X+pIypVR6spBMrF9IciZ1Jbl5fk7O1Uuk0rKTcuJWVlnycVaZ3mmjzLDX81Sgck3ZVSOTveTlxEYp+PFu8dURy3t/XT25U3rM2CmTjl9x7Yv7k4h/pkzSo3ZZCcif1rWSm/2+op9dJUnYfZjc+n6FC8v0BgXE37MZguf/hNvem3Jo41ppvTJQVp2191PyZFK0YAlZ2iyf+LtS5PyezRKw2Nr3J6/LVb0/5mOdyJw/vF0GfLs7zHfMmSufTG9WSkp7fcXb+ywf30d/9/LlZeULmaP3u3jur/KXpPNnP8vwkzel6At1ZEu1h1wruz9nhfU57vyYIZ20eqGiDPPKw5rXl67YLD02euZFK7/XqiiflXpIUrhSXLYuk/umHTfbMinDdiu/b5cZJ6z/SZpEij6h+0B/W/3sVVL/u0DXcRXmNdfbuESxL+LJ3S73vCWIFjnp07uq/f+cOGP+RubmzVshLXgyPBQH4YKgDdL1tQWSvO3HsnzF1+axZuXn0vmZ1PYKl+THHt3li8u15PPvXa/rY27PXPJdk/dkyhF7tQjs/rKvfCGt5Uv3e3/7ulwb9KHH/x2VKW99KdcCPnG990rrMfolKZjKfjkqN63/bzNQdj//oSxyf4b1Hp838IgwRds/MmXACik5zvU+GsRxOzb9E1lS8iPX+5sgjsjByX3lo/M1Q77b8hUfy2tBn0vbyUdd/wQgzj3wQFIZN2601KtXVxYs+E569OgbEsQpVqyozJ07LUZBHAAAEBM3ZevSb6XYuutSqUwB+TB/OvG/dlEmzV4krbceluHDF0n9Y8mkVXn7tf/s17Zft/8/rONWBTfnpANyPHNWGVajgHTKk1aunjwub38xP/z//HtQ3h7wjZRZdlx2p04nnSoXk+mVc0iNtNdl1abNkqvPMln6r72ul/Pbf5Ay352UExpsuKWV33RSqXBWaZUvravC/aBVWddl69E0i+/xSo2UGaSprpcjmVlMkSlTyP9VymCSjN2rF0nmIZtl+PGbUixPLvmsYSH50PosOW19twnfSLGlEYzhcutMyD6sX6qQfPZsZqmU7Ir1/TZK5uGb5ZC9WqRunZThH0+VXHMPy6r/0kqTkgVkeo1c0kqDR6fPisYI1Hnd9xN2yoyLqaReGf2srNIkk8jWo6HrROrERikzeosMP5lUyjxhfceXrN8vVzI5tH+3lBmySjZ4NJy+3c/abeU5833u19+9kAwrmdX1ux8971ohmr+Li7WPP1trgjjqqskPytrPM+aaz1mf3JW/dP8XuHZehs+28rzXuDtLpy6SmiuPy/EMmULWLX2/ld/nWumr7e3ydszaZ1/slvPZ88kwXT+5dTxt3ygFpu6WDfodvz0jmZ8sYF6rlNL92l65av+7inJf3CMSRIucL8bNltWrf5ESJQpJp86v26m+rVmzScZ9PktSpEguEyb0kweSPWC/EhvnZP7rfeRUz0/kzZx2kpdry/tK1U0vypqehe0UDzsnSZ3JeWTu8PKS3FoM3yKnlnRL9ZGs9/rfa0v7SoNjr8uiNtlE/v5WGrx7XUZ909AER2Jq+6BWMqPEJzLkeY8WPp5i0iKn8CfiN2GWfFjSvBxCv0cvv49kzQce32PP19LgqzwyzXpf/e4hbu6RYbUXS8nF78tzSew0AHFOi+6uXXvK3LnzzXKZMqVl0qQxVtkY5v5HtNAiBwAQE3fqzvTuf85L0RGL5NoNd0UzcjULZJPvWrtmub0dkbfIsZ5kKiC73i8lBdy3xA+tlVyfHZRDuvxwBK/lKSZX2hYOaaUQ8l6pM8u896tJPY/WG1cPr5Myn+2VrWnzya5eZaWASb0uM76YLk33JpF69evIvDJhb9qcWL9ECsw7KefzlZArbxby+px0UjrbZcn8dDWZ/qxXSwl3S44nSknw665Piha7hYXP1jvW9ucavVcOZcol698uL6Xd98fVv4elx2er5KOTKeXDdxvJgBx2uns7rP1WtHw1WV8rc+h23roo86d8K/X/uCn1GjSVeaVcwYowLUw8tmHDjKlS5rebUrSi1/uEcUaGD1kknS9klZUDXpBKHs0brl68KJLWDnBF5sQW6bzlIelRLYek8/j/rfNmSbH1Vzzyz+1+1l5p/f46mZS5kBzvWCJM653zF69IurQegbfIfhf3/sqSTs7dzCTz3yobptXQVet/0087KZVeqiNLnvXIXyYwtkQ6n84k0/vVlCb2xy1d+INcLV1J6mXyqPT9u11q9tkiSzMUkIMflJKQKra9XXJ/WhnW/mXp5K743gqUHgN+kI906Nuk1mvv+nrtIZk+oI79uTHYF3GMFjk+VKn6rPm7efNOE6iJyOnT52Ta14vM86rVnr3NII7l7zUyU16Q+hEEcdRPK/dL/Zd8BHFUoQrywo6f5acIzy1ppGbN8P+bvEAukYOBroVHC8gz5/bIL7EKIG6WectLSJOIgjgxdfNJeaa4/dzLMyXCfo+DP62XXFW9gjgqSX4pWfigHDxmLwOIF9qdSmf6c9OWOkmT3maZCABAApIjfRrpU7WI9K4S9vFgimRSOW/mcOltyz5u/2d8SiIBtTwCNSpnAWmlrR5uJZMPX/F+LZvU0Avmo2dkqysljHo1rIqwR2VapchRVoYVtirHF/6S6e4mKGe3y2d7rb95CsskryCO8i9TVgZoBXjvPpkebj6Y83IiW3mZ5x3EiSerfjoghySltS+8gjgqdQ4ZUCurtR1XZPi6g3aih7T5ZLp38MWq/Nd7sYDoben5W3eHaZ0RzpXtMuA3q3KWpZAsjTCIo6x1tMXMf1fkhFeTmBTRCeIo/2IyrEbYII4q+kQm8/9bj7tbsNzuZ92UK/r/ly7LcY9WPio2gYvdx5PI8HZhgzgiF2X62uNyNUsBmeQZxFH3Z5KAcg9Z3+GkrNI8aKtR94WwQRyVOpfU03x4+rzPbl4pChcLDdSo+7NK02Ku7+BfslS412rm0fc/L+sPu5Liel84WYII5OTMmUWqVS9nnmvrnGXf/2TuNnvauGG7fNh9lFyyfjT17LMRRBxiYu9+CSpcQCIeiuaoBB7MLwUiDE5nk1wFAyUwwqBFesni682TJPMIgOSXd8bll3m12krX2dvltA5yE11HDsruIrmsd4gj+fNIAZ+taLJJgXz2U1vgwaPyU//mUrVK+MdHv12S0wRygHg1dOhI+fLLqfLUU4WkVq3qsnbtT9Ku3XtyI5p3LQEASOhSJUtqxsHpU7VomMeDKR+Q5/M9Gi5dW+TEv7RSNKv91EMKU6tKJ8XcLUxCpJGcWmG+dl3OuRI8pJUyuezWJV7K5NLK9HU55L7Ze/iMbLD+1LDqLuHDOCqdVMqnFdnzsuEvV0qolNKqlI+NjhcnZetR61okbeaIb5YXyCr1rD9Xj54M31Uqe0a7BZKXDJmlku7H81fkuCvFtz3HZan1p1LR/FGMO5NJ6hW13vDWGWk65Fvp/HOgq9tZTN26Lrv/2C7DZ/8grT//RjL3mSr3TTjsFWy63c/KLU2f1MDeQSk2ZJkM33rSNcZObOXLK028A2wSKKt0dIxjOyVzp8mm9YnnI+U81xAoJoji4erZQFm6cq20nrpMKn80XTJ3/0ZaRzLKRpksGe1noVLc7xrYqVK28HnUP52ON3JTzoUEwOJ4XzhYggjkqFdffdEMXKwBnClTvpU32vSWvn3GmMe773wko0Z9JRcuXLTXFvl46MQ4mX48eSrfheedlDxvQ5m+dqC0TL5WXq/cVj763z/2K9GQLG34VjF3RDZ5daJ7bJzwj87he3IBiCMaxPn88wmSP38++frrSVb5OFSef76iGQC5bdt35eZNgjkAAMSPlJLZNYGuD0nsgE50pZECXr1f3FKkDFtHOXT8kvmbzivdk7tC7F3ZFkklOcONkxJfzsgWHc40efIIAk4W9z7yUQEvkCmi/0om6aNR6Tn0j2s/+acL09zEp5zVXpbjDXNIpfvPy/Bvf5DMH0yVYl9ulg0RjDMUjo738sF0KfjlFum846Ssv5ZGaubKIZ9VyxwuiHR7n5VMarRsIOut9y168bh0nrZEUlqfW3n2bjkRiyCGfwYf++bEBVeLMY+xknw9QsfbuSJLp0yXlB/9IDWXHZYlBy9JimyZpOmzXi1uvET6u0SrYXnc7gsnSzCBHO0mEBDQVBo3qWm6CFy8eEl27z5gHidPnpFUqVLKyy9XlcFDOsmDD6a10s5Kn96f3l4w5+EMcm2f3cXJp2ySNdceaxvsxXCOysG9uSSXPSbObUmSXgq8+K4sWtlZHh7XXT7dY6dH5uH0kmXffvHRKDGsKxfNbFZhnZPTMYgXecuaS6z94nvQNgDxZ+PGTSaIU6CAzk71lfj5pZUkSZJYaaNNMOd//1st06bNtNcGAAAJ13VtYOKTO3CT0q6t5XzY1W3k/JWorr+TSPpwPUySSbo71uvkISmolf1r1yTKkSNSJhPvzToX4fezA0RR1F5zZojufnLxL1lJVvZ5Ta50LCsf5kgiW//YKWUG/SBLoxyB+Lj0mLRbNiR5SCZ2bSHBA5rKrvbVZGKL8hJQMK3Ycx+HEfvPUiml9AvVZMvAFnK8bTFplU4HuN4omT/eGL0BoD2k9xUMzPSgmOF8/HLIgBYvWN/D96OV3eLs6sZVUnPHdSlQqpKcG2JtU5+XZYn1+rAahaVM1DG02xR3+8LJEkwgR2kwp27dyvLl5IEyYMB78uZbDaV5i7oy4KP2MmFiP3m5QVV57LEs0rffO3ETzClUQWrtWyFLguxlH8pVziPzFm+3l7xs+UHmFSgpz9iLcSJ5bnmhajIJPGEvRyaVtf251siSnfayL9lzSYFtByVcXChos/z4m/08FnI9U1i2fbMiZDp2AHdGqVIlpWvXjjJjhk4xHnpLMGlSVzCnY8d3pWnTxnYqAABIuC7KFp/DEZyXpXu0J8JDUsk9vEH2h0yXo6U7ws7gE8r+n/sfkjLhunfdSZmkqM4AffG4zAsZ18TLH4GiUzXkzBG+5cqJY2d8B4Ds//HPkzV0AF1fHklnXo94P/mWIks+GfB2U9lSJqXIlUCZHtVN9ROHZb5WQfPklVZe48RcPXzG5/gwbjH+rDCSWPugsEz8oJFMz2MtnrT2S3TqjVG5P62rC+Cx47IqGoGlVbt0/J+00qqc9xhBgRHk6fgQT/vCIRJUIMdNW+TkyZtDKlZ8RmrWLC958mQ3d5zd/P0fdgVz0vmZYE7vXqNjGczJLa++l0o+fmOSbPcsMa6dk4P/uKK4yat2kn5B46Td7ANyzaO3wrUjK6R9/4vSr7drxqpYO71d/rfFo8fstQPyw8rU8ky0Bo1PJs+/XUV+fK+vzD/iEXW+eV0OHnG/ZwmpX3WdDJhgbb+dop/xRfc94lfRXo6Np5pJv0dmS9tPtkuQ536xvs+UT1YIQ+QA8eett1r7nGJcgznvvPOW+QsAQGJVOe+jkXTBcZLrMnzeOtntNV7KiZ9/lM7WxXSKJ/JKPXeTFf/80kmHANq7RZquDx/qOL9po/Sw/idd0QIhswpFS8pkonEXCboiMaoDW/+ng/QeOu9qOeSpRhmrci9X5KNZa8N3HbpxXD76LlCu3p9OPixvPjmsw9slYFPocBrGv4el8yLrfyStdC4bxVg/OZ6QDyPZT6Guy/mz4VvtZPZz1ezcLaEiZL1uBim2vn+Y/fbvbmm11DWeTKjb/CxrX544691tPqX4p7Wv9zz/P5LfJXJZpVXJtGZA44CZu+W8dzeli3vl7YUeIx2bz7wsh7y+6u6lG+Ujr58vbsVgXyRyjv2qJpjT920TzDl16lysgzl+Fd6XRd0zyIx2HgP2NhotP56yV5A08tyAgfLm5WnSoHroOg1GnJPXJr8vz/nZq8VWqjQSOLWzlHnW/dnTJHn3PlLvEfv1qORsKHNnVJGD/d8L3f7q78tMj/5WhbsMkzdPjJaqlfX1VlKnzRLJ3fNdeT4mhXw4ul9GSw+/BdLM/bnW4/XheyTXSxViNZU6AAAAEJUvGz4rdQvFxdgGd9tD0iTjASnY6xupOXujjFm6SpqOmC6Zvz0jV1NnlXkNC3jMaJROWrUpJU1S3pT5876VlEMWSetvN8sM639qDpkq6Wcfl/P+BWR9o1z2+tH0YGYprQ18j26XSp+vleFLl0nTH9yzLUUiRyapYdUkr27dIGWmbpThs7+Vzu5ODPkryfrKaUVOHpQy/aZL5QmrZPjPm6XHhG8l84fLpMfpZNKqSTXXTF9eCuTPJLvnfiOZR1nrrbT+Z+oiKdjP+v/TIqVfeE46RT6CscX3fpqvA/Jan59rlLv7zXmZ9MV0SdnvW2lq7fsZP2+UztbrRVecF51evtOTZqWIZcovARow0sGBBy3y2NbNok2iwt6Tv83Pkr+k00fWb/yxx3f5fJZU3npT0j3xhLTyHGcpst8lCjmrPSfDrPc6/8dGSd/H3lbzWd9Y275Oxni0PahRSoN1N2XMlOnmc9x5t+COrDIgzmbi8SUG+yKRuy/Ye3qoGJo9e7m8+GIle+nOO3HitPTu/ZlcOB8kGTOml7793pUMGSIcgQwA4GXBglXSsGFVewkAgMjpLDbBw1+zlxKfQ0u/kVwrL0qTZq/JdDNwiMvSLydLzT8yy5Lh1aSGneZyUoYPWiKdT0f/tdD3Ki/ptRL880k5pM3nk6eUSoULycT6hSSna+zisG6ckfnzfpQeO87LbrsLTIoH00lApVLSo0zmcFNhR7zNHk7vltaTNsukkzdFkiaRerVfknnPRj3Qyfn9G6XVtN0yX1tgWNv9YctGMsBjptvzezZLwOK9Mv/kddfMQtZ7F308nwyoVUJqeE9bfWKjFPx4t0jlmrKr5BlpPdnanhOulhfp/DPLgNplJSC/1zZ5/k8Nrxq8r/2UOq3Uq1hKJlXU6c+vy9bVq6TV6pOy9V+7hUdKa98/Gcm+93bjuEyauk46/3lRzmurqrTppFONijIs+x6v7brdzzovS2evls7e36VcCRlTOfz05xH+LpHtL7dbF2XDynUSsPa4bPX8rFJPyYAq+cJs6/nta6X+wsOy6oL1ne63ftsCBWRMwxJybraPPLd1mdw37Xi4Y0pFdLyp8K/FbF/EpYRW7jk+kKM8gzmZMmWQoR93kRQpIh7R3S1ZmVJyo3sPuVWrlp3ikmTa15I0oJ0EP/HEXXldJX8wbaSv63skGTsm0tf1M/6bPjPS1/Uzrq/faKeGut3voK/fKvmMBOfzmrccQIJDIAcAEBOJPZBzJ0QrwHIviU6QAbiLElq5F48xqzvHs5vVC1XKRiuIo4KzZ5cHGr0i969dY6dYO2TJEknaupXcbBcQL6+rqF7X99DXz1w9Kfc3qC/dSlYN7TZlPfoWr2ze40jGiP/f/RlRva7bENXr+h6eovqO7tclfWLouwwAAAAAQMKRKFrkuP377xVJnToGA7/cumUCDkmWfCfX/jkl9wUGSrJiReRmg1fkxpixYV6/vnGTjsIc6evBOXNK8kwPR/q6fkaSQQMjfV0/49rJ05G+bj7j088if936jKSvvxbp6/oZyTM/Eunr+hk3e/aK9HX9DJ/7EECCR4scAEBM0CLn9tEixwstcpDA0SInHsUoiKPuv19uTJgot4oWk/sXLpSkjRvJrQIF5caoT8K9/kCD+lG+ru8R1ev6HlG9ru8R1evmPaJ63RLV6/oeUb2u7xHV6/oePl8HAAAAAABxJlG1yAEAxBwtcgAAMUGLnNtHixwvtMhBAkeLHAAAAAC4h9V4/TWrUkgQJ4R/KdllVZIJ4gDRQyAHAAAAAADAIQjkAAAAAAAAOMRtB3KSJ08mV69et5cAAE6i5beW4wAAAACc4bYDOY888pAEBp6wlwAATqLlt5bjAAAAAJzhtgM5jz+eQ3bvPijnz1+0UwAATqDltpbfWo4DAAAAcIbbDuRkyPCgFC9eUH766TfZv/8I3awAIIHTclrLay23tfzWchwAAACAM9wXbLGf35azZy/In38eln/+OSPXrhHMAYCESsfE0e5U2hKHIA4AIKbu6zRZgoe/Zi8BQOKX0Mq9OAvkAAAAAEj8COQAuNcktHKP6ccBAAAARFvGNCnk76DL9hIAJG5a3mm5l5AQyAEAAAAQbS/ke1TmbDtkLwFA4qblnZZ7CQmBHAAAAADR1v65J+TDpVvkt8AzdgoAJE5azml5p+VeQkIgBwAAAEC0lcj2sHxar5Q899lSGfXjH3SzApDoaLmm5ZuWc1reabmXkDDYMQAAAIAY23z0tKno/LD3bzl16aqdCgDOp2PiaHcqbYmT0II4ikAOAAAAAACAQ9C1CgAAAAAAwCEI5AAAAAAAADgEgRwAAAAAAACHIJADAAAAAADgEARyAAAAAAAAHIJADgAAAAAAgEMQyAEAAAAAAHAIAjkAAAAAAAAOQSAHAAAAAADAIQjkAAAAAAAAOASBHAAAAAAAAIcgkAMAAAAAAOAQBHIAAAAAAAAcgkAOAAAAAACAQxDIAQAAAAAAcAgCOQAAAAAAAA5BIAcAAAAAAMAhCOQAAAAAAAA4BIEcAAAAAAAAhyCQAwAAAAAA4BAEcgAAAAAAAByCQA4AAAAAAIBDEMgBAAAAAABwCAI5AAAAAAAADkEgBwAAAAAAwCEI5AAAAAAAADjEfcEW+3msHD58wn4GAAAAAACQ+OTI4W8/u/tokQMAAAAAAOAQt90iBwCQuGnLy4R0BwIAAEDNnr1cGjasai8B9w5a5AAAAAAAADgEgRwAAAAAAACHIJADAAAAAADgEARyAAAAAAAAHIJADgAAAAAAgEMQyAEAAAAAAHAIAjkAAAAAAAAOQSAHAAAAAADAIQjkAAAAAAAAOASBHAAAAAAAAIcgkAMAAAAAAOAQBHIAAAAAAAAcgkAOAAAAAACAQxDIAQAAAAAAcAgCOQAAAAAAAA5BIAcAAAAAAMAhCOQAAAAAAAA4BIEcAAAAAAAAhyCQAwAAAAAA4BAEcgAAAAAAAByCQA4AAAAAAIBDEMgBAAAAAABwCAI5AAAAAAAADkEgBwAAAAAAwCEI5AAAAAAAADgEgRwAAAAAAACHIJADAAAAAADgEARyAACJzqkVY6RF1dqSN29V86g7+YSVekQm1XEt5807WNa4VoW1X6Y1du2rMu+vkyA7FQAAAAnTXQ/k3Lx5S3777Q/p0GGwlC7dKOSiO3/+GlK5cksZNWqqXLt23V4bAOAkgRPbhJTrHVfZiZ5uHpGxIcGV+tY6l+wXYu/AxAApE7BINhz0OHfc5DwSocPrZO6vrv1zasFPssU8AwAgcfO8RvF+FCrZSCo26CmDJ66TA5ftfwASkLsayLl48V/p2HGQNGrUUb77brWcPn3OfkUDPDflyJHjsmXLH+a52/nzQTJ37jJ5+eX3ZM2aTXYqAMB5Lsmabh1k5G7XUsaGXWVQpTSuhdg6tUj6Dtnvep6xiHT7+itZv36ezHktuyvtrrsup3aslkk92ku15vMk0E69q3KUlWaV0ltPkknWJuWkmCsVAIB71rVz5yRw2yaZNKSfVCtcW6r1XienQqukt+3aqd2yYuJIaVG1vUw6bCcCMXDXAjkanBk27EtZuvRHs5whw4PyxhuvyKef9gh5tG3bWLJly2xed9MgTvfuI2X79j1y69YtOxUA4DQHJnaVNgvsFjhPtpSv+5aU5K6l2NuxSzbYTwu+HiCtSvlLxoxpJHkSO/Gu2yyD6g2WwbN3y4ELCaWVUHZp8MUs2bdvsazuW1b87FQAAO4VRVt3kzGjQx+9A8pK6VzJ7Fevy4EZ/aRMg5lyII6CORuGtpeAIctkw8F/7RQgZu5aIOfvv0/K6tW/mOc5c2aV+fM/lfffbyXVqpULeXTs2FI++qi9pEqV0qwHAEgkDs6UjsPcLWcqyoQpjSV3HAdbcudKKK1wAABAQpa1REWpUj300ax9L5m6fLH8NrOlVMhor7RjijQfuM1eAO6uuxbIuXDhkly+fMU89/d/WNKn5x4gANwTgtZJx2ZTZJfe1UqSR7pN6yYVOAUAAIAExu/pxjJhWmMpaC+fmjpFpun8CcBddtcCOSlTJpdkyVzN1Q4f/ltOnQodH8eXCRPmmIGnhg6dZKeIvPlmb5P29NP1ZefOfSbNvZ4+Vq3aKJs2/S41a75plnv1Gm3WUcHBwbJ58w5p0qSzPPlkHfN6iRINpEePUXL8+Cl7rVA6KLOOydO6dQ+znvszypVrarqIuYNSbqdOnTWDNes6LVp0NWP7TJu2SCpUaGHSSpVqKBMnfiNXr14z6+/ff0TeeKOX2Zb8+atLjRpvyNq1m812AkDicUQmtewni00xm0Zqjx0irXKZF8K7eU52zZsiAQ0aSfFCoQMQFi8XIB1n7A4zu1LIgIVvrrZTRBa/6f6fNlH3P7+5TfqWca/vNehyDLYjYuuko/k/67vbKbJ7ilS03yvv++vsRLfrErh2pnRv2cbjM2tL8ZrtpfuMbRLko2l3uIGlr52QFb0DQv+/eCN5pfdqCXSddjy4t8161Jnpe9we673WTOwnr1SoL4Xc6xaqL9VaTpGtDAIJAEjMcrWUDi/az2W3rFjrVW89t1/mjuoZ9hyZv7aUadBPpm0LO4nDmvddr7dZYCdY10WDn7f/J8yMmqHXAWWKu1/XQZjbSIuBcTteD5zprgVyHnssi5QqVdg8125WGlBZsWKdCZjElQ0btplgz969f5ll9+xXN27ckKFDJ0rz5l1MMMcdTNFgy+zZ35uBlHfs2GvS3KZOXSBt2vQ0wRVdz+3EidPyxRezpV27fmbwZl/0c/v2HWMex479Y9LOnDkvQ4ZMkEGDxptZu5o1e990NdNt0X2wb99hefvt/iYYBQCJxYGJQ2TwDtfzgl1HyohIBjde07uR1O02U1ZsOydBHsGHoBP7ZXHv9lItzqbK1kGX+8s0O4bvvV13bjtsN4/I3NaNpWLrKTJ33RGPz7wuQXt3y9zeXaV4BetiL7IPPbdOOlZ8VQJm7A/9/6BzsnXGYKn4fBT/6+3gPHml+KvSZsg62XrskoRszrVLcmDdOtkS/t4HAACJSoUXytrPrDrmDlcDApdN0r10gHQfsynsOfLmdTm1bZ30bfBqrGbkDJzcIeQ64JTHOfvauSOyYXLcjtcDZ7prgZwkSZJIly6tpXDh/Gb55MkzEhDQT6pUeV2WLFlrgi2emjatLevXz5R27ZrYKSJDh75v0pYtmyj58+e0U0NNn75YKlcuLZs3z5V9+5bLkCGdTfrUqQtl8uT55rm+r76+Z8/3MnHiAHnooXRmWz7+eFKYVja6PU8+mU8+/7yPbN++wLzf6tVfyQsvlDGvb9y4zbT+8eX33/dan7FTPvnkQ/npp+nSs2c7SZHCNaTn/Pk/yJtv9jLjBC1aNFZWrJgktWpVMK9pUEcDS0y/DiAxuPj9YGluzyiV8cVe8nXrKMawsa6GMpaqIwPnfyW/7Vxuyt2dy7tJA7sFz6kF1gWO3dIma5OR1vlglqz/uKQrwVLlY2tZ09aPlGZZ7UQfPAddztjQx3bFYDsiVkL6mG3pIFXsFMlXX+aYNOvRs4Sd6JrJq/ta1/Ykz1fNfK5ZZ0kvaWdml7KcWC1tAhZJRDGUtQNHyOK0FUP+d/X8DiHbq//b/ZNo9vEPWiYBNcbLVvvKNHetljJhib3NS4ZI7ybZbn+AagAAEro82SW3/VSu/Wc/Uf/JVUkvpV/rIAvXzJOd1jXCvj2LZdnoivbYf5dk8ajFIa1dS/d0nUNHVLcTJLu0m2mfV9e/LaXtVA0EJc9XVrpNHCO/bbevPdYPkW7l7RtNO6bImLWup7g33bVAjtKxcaZOHSwtWrxoAjtKpxxv336g1K0bIHv2HDJpSgc8zpgxg6RJEzrw8YMPpjFpDz+cXpImTWqnhnriibzSo8dbki5d6OALgYEn5OuvF5lWLzqgsvv1JEnul/LlS8jbbzc1623btkd27TpgnqsXX3xe5swZKc8/Xzpk8OWsWf3lrbcai59fGvN+27f/adK93XefSK9e7aRGjefMd27evI40aFDVvKbBmgwZ0smwYV2kQIHcJqDz4YdvSb58j5nXDxw4IkFBMY/iAkBCs2bx6pDAQ8bHs0U5O9ITnb6S9V8HSIMn/cXPjhYkz1VRBnZy3xU7Ilt22IHuVHo+SC8Z/VK7li3J/axlTYtk1qqgVWGDS8sGhJ+1KUbbEaFk4me2JW1o4CNJWnv7dLvtmTF2fyN9PWbyWriog/lcs451Qdfhi4kywh0J2viVjP3Vfu4lKH1VWbi0W8j/Zn2ymgyc20tq21/u1PRlsiYad/I2DJ8gK+z1CnadIMtGNpYK+extzldEmvXtJc1yuF4HACDRSpI8ghsXBeWDNbNkavdqUjCLdb2hSUmSSe7q3aSjO1ize1dIN2T3tUlajzdzXR/ow/5/S8Za/c0NnFbl84hfKlda8oxFpFX32iEBpa1b7UkjcE+6q4EcpUGRnj3byv/+96U0aFAtpKWKdodq1KiD6W4VW5UqPRMmiKMOHDgqx4+fNM9r1CgfLgD01FP5TWDmypWrYbpXacBIgzW//PK7fPLJVNN6qGLFV6Vp084hgZZ//jlt/nrLnTublChRyF7SwM59UqpUEXtJpFy5pyVLlkfsJTEDP+fO7bojfOtWcJx2NwOAu6X2R72ktj3zw64h/WXsQdfziGT09xe5fEJ2rV0mkwaOlI4t20hF7X8eEHpeCDwR+xEHrx+cKc3b2cElnf58sO+pt+N7OzwFbtxs37VLI826+JrJK43Ubl7N3s5LsuHXI+aZt6KvN5CC3v/rV1aav2jfybt5QA74HAzH0yZZPNsOKuVoLIOiakEFAEBideqs7zHkJL11nSBy7cRuWbNgpgzu0U9a1GwkFUvWloDv7FXkhJyMYTfk5Na1h592Yd64WqaNGindAwKsa49GUrzGTHE3NQg84RqyA/emux7IcdPWLQMHauBmklSt+qxpIfPvv1fko4/GmcGQY+Pxx8N3t9q791BIYESDMe6Bo9yP+vXfCQnMeHbv0rFxnnuumRnL5rPPppsAkwaEUqZMYbY1MunTPyjJk9t3W21Jk4ZeYfv7P2Q/c9HWSToYtLp48ZKcPh35QNAA4Ajpy8qI0XXEFcs5IiObRT5Wy4HZXaVMsVelbuuRMnjyMlm87ogEHrsuydOHLU9jZ7P0cc+c5VdWxkQy/Xn8bkdY+3e5765lkKyZ7afeMvuLu6eY3pzwJau/3QXLS8bMGexnR+SP0Eanvh0+IH+4W+0UzRsyYwcAAPeaUwf2hYyHpzfpQ+i4dm82kkLl2kub96fIpNnrZMPecxJ4OVlIK97YCNo4RqoVry/Vmg+WvmOWydwV+61rD6tO6G7Bi3teggnkuGXOnFFGjfrAdGVSOhDyhg1bzfO7ZZd1Yd216zA5e/aCGSdn0qSPZNOmObJ791L58suPJE0au70bACByTwfI113zuJ6fWi1tWvoerO/a2sHSvMc2MytDxvKNZYyO9fLbYtm3b7H8Njh0wMHYyyOlytqtU4K2y7JffXdhjf/tuFvSSza7dRQAAIjMOVm+YLf93F+qlne3UL0ua3p3kO6r9KZ7GqkQ0E0WrpnlGk9v5zwZHjIOTgwdnifNWy6SAzo+Xa6K0vvrMbJ+k157LJff5jbhxgqMBBfIUdrdqUqV0AvkiGaDio0cObLYz0S++KKvOSAierRp84pZT1vj6CxT2vqme/c35bnnnjatbLSLlHZ9YoZwAIi+3K2HhI7zsmOKNO8WftantQvc4+mUlA9Gt5QqOtaL+y7UjbgYAD691OnbVRqYYMYlWdyutXUhFj6YE//bEVY2u1utyFkJPG4/9ebRvLtgwZChF8MKO1+A7bps3eruiuUvWf3tpxHRsXXspxJ4IsKBlQEASMyCvhshfd1j0pWqL80K2M9vbpZF7i7IVdrIZ+0rSsEs6UNa4lz3eS6O2oHvl7laDFvXKu2GdZNmpfJYp2T72uPmtdCZsXBPu2uBnP37j8jSpT+Gm51KaZrn2Dhp04YOXnm7dNpznZlKLVq0yufne/vrr2Pm7wMPJJVkyUKbswUHB5vWQgxGDAAxkUZqDwodL+fUgn7SfKLnWC9H5GhIt58HJHmYpsmXZMX32+3ntylVSRk4raVrLJmb52Ruu64yKcy4PXdoOzzkfrpIyPg308bMk8BwrZUuyeLJi+zAl79UKOU7GrN44bLwU6IfnCETV9jPCzwjpaNqkZPKWudp+/mvM2RQLKZPBQDAua7LgRldpVqHTa7FJHmkW193F3FL4JGQ8WokmcdkBiponSz70X4eQ0cPuK+JrPf0qgYfsOrIUfWMxr3hrgVydLamXr0+kQoVXjVTfS9b9pN5zJ27TFq16iELFvzPrJcp00NSvHjoQMGeQR0NxBw7dlJ+/PFXM7tTdGifRp2SXOnnvfvuR7J79wEz1bhO833oUKCMGzdLhgyZaNZRefK47pBqwGbq1AVmzBptJaSzX+l4OQCAGPIrKyOmNQ5pHrxrSAfpGBIoyC65H7efyjoZM2qbnLosci1ov6wZ2FUCvovDgEKuxvL12Iqui7Kb+2VwmHF74mM7UsuD7hGVd6+SaRtPyKlTu2XSbHs68KebSLdSrqeycby80miMzN2h65yTU3vXycg3W0tHOxiTsWGAtHPfFfS2YqRUe3OmbDhm/Z/1vwfWTpE2zWbKLvNiGqndvn5oa5sIpZdmndwXrJdk8ZuvyisDl8ku+z11eya930+mRTn1OgAACVvg5tWy4nv3Qyc36Cl1i9eWar2tc7+ukMRfmk0ZIq1ymdVdslrXCe7x9b6fISOtc/q1m9clyDo/Dm7ZTxaHu6MS6kE/u3u3HJFFs7ZJoHVe3TV5keiAInked7fOPSLTRi2TA0HXXZMuzOgpzYdHr86LxO+ud63SmZ7Gj58j77wzwDy6dx8p69dvNQMS6/TiH33UXvLmDZ3bVIM6GtxRS5aslQoVmkvHjoPkypXoNTLTgYTfeaeZFC6c33zGDz+slzp12lnLL0qhQrWlSpVWMnz4ZDl79rz9H2KlPSuPPprJPF+4cKWULt1IihWrZwJQzZrVMdsJAIihXC1lhHu8HA0UeLSIqdAiNNCwa1xXKVO4qhQqHiBtpop0C5n2O274VeoW4bg9cb8dRaSOe+Yo6wJtUvNXpUyZ9jL4V3cX4vTSYMwoafe0q/XnqW2LpHs9XaeRlKnZT8aafvg6Xk+AfN23ZARToYrUblFHZO0UaVHB+j/rf6u1nilr7L5RGRt2lD6VQluXRkrHNBpQJCSYs3XySKlrv6duz+AFR2niDQBwvK0TB0vAu+6HTm6wSXbZgZjk+arJmOUTpHcprzpfkrLSuo3dMvbmfhlrndML5a8txa3z4yRpKR1quV7ypWj1SiEte3ZN7CoVrfNq3YG75IK1nPWV+lLFDhCd+n6kVCteW/IWflXq9t4lpbrWYYwcGHctkFOgQG4ZPbqH1KtXRbJnz2wCLEqnHy9YMI988MEb8r//TZYKFUqadDcN6owc2U3y589lZovSR44cj5opw6PL3/9hmTZtqPTp87b9PqGfrdN+t2vXWDp3ft2kKX3/KVMGScWKz5h19DP1/8aP7yc1ajxnrwUAiCkdL2dCyJTY+2Vw+ymuIMqTb8jCuW9I7SJp7GBFMvErohdSI6VVvmgGIWIgzHbouD1vLoq37SjafYyMaZIndDaL5GmkaO5H7AWLXwHpMG2qLBxcR0rnSy9+7rt91npZi5SVbhO/ktUT60Q4y5ZRNkCWzfLa7nwFpNVo638H+J5mPSK5Gw6R1f/rJd1ezCMZPf7Rzz+PVAloKXWibtoDAICDWOfMLNmldMOWMmbRLNm5pINUyeH7nF+w0xiZ07esFHWPYaPn9CbdZPXMxlIwqSvJp6cDZOGYaqH/Z64vcohpOuBnXWes6SWtyvqHXAP45Sop3WZOlBEvuGefxL3uvmAd6AUAgAgcPnxCcuSIamRc3G2BE9tIxSGuJte1v1guIyqZpwAAJFqzZy+Xhg2r2kvAvSNBzloFAAAAAACA8AjkAAAAAAAAOASBHAAAAAAAAIcgkAMAAAAAAOAQBHIAAAAAAAAcglmrAACRYtYqAACQEDFrFe5VtMgBAAAAAABwCAI5AAAAAAAADkEgBwAAAAAAwCEI5AAAAAAAADgEgRwAAAAAAACHIJADAAAAAADgEARyAAAAAAAAHIJADgAAAAAAgEMQyAEAAAAAAHAIAjkAAAAAAAAOQSAHAAAAAADAIQjkAAAAAAAAOASBHAAAAAAAAIcgkAMAAAAAAOAQBHIAAAAAAAAcgkAOAAAAAACAQxDIAQAAAAAAcAgCOQCAROna4W2y4vttEnjNTgASknP7Zc33m2TXOXs5CuRnxJsY5sW4c10CN66WFRtPCNkaAGKGQA4AIBHaJoPrdZWAd7tK3aHb7DQgoTgnc98NkDbv9pS67y6SU3ZqxMjPiBuBE9tI3rxVJe/76+yUmObFOPTrBKnbfLAENA+Qwb/aaQCAaLlrgZzLl69IixZdzcmkfPnmcvjw3/YrYXXtOsysM2HCHDsFAJDgHZ4pdbWyENUjpDIR1/JI+erpRZKkl6pl89hpsRdS+bEeAd9dslO9rBrsWqfOTAm0k5DQrJOO7rzn8ShUso20GLg6Xlq7nNo4U7q3fFVaTD5ip6j0UqxSHkkuyaRopSKS0U7VSvWGiSOlRdX2MumwnWTEbX7G3eI7/+Ut3kheeX+ebL3jLWJURHkx7lw7uExGBgRI8d5e5X2+IlLV3/rrX0LK53MlAXdchOfuS7Lm/fqu18oMljVBdnJ8c2+Pr4fDry8iLAsQKwmiRc7ff5+UkSOnyI0bN+wUAICjJU0tmbKkl6zuR/pkrvQkySRjmPQHXOlxLo1UGDBL9u2ZJQMrpbHT4saKzkNk8Z26oEO88fMPzZvXzh2RDZMHS8XnR8qay/YKceSPeVNk7roTcuGmnWDL/doY2blvscx5LbudonbJ3CHLZMPBf+1lt/jLz7g7QvJfljSSPOicbF0wXl6peQcrix5858W4c2rVPBm7Yr8EeR9bfmVl4E/LZd9P3aSCn50GJBAHJnaVNgsuWdcteaTbtLuQR72vl/SRKbX9ojNFWBYgVu56ICdp0qSSMmVyWbbsJ1myZK2dCgBwtCx1ZMKaWbLa/Rhc1pWer4nM8UzvXtKV7hDJUyUTublJOn6wTIjlOFl2aTfNzoObFsvOJY2lYBIr+cQy6Tt+v2sVIN545L8182TnTx2kilYST62Wvl+S/4C7LWjVYGk+xDoWk/hLsylDpFUu+4U7yft6SR8T60hW+2XgrgdytBXOiy8+Lw888ICMGDElwi5Wni5duiwTJ86V559/TfLnr26amlWo0MIEgoKDg+21QrtljR8/x7ym6+hyzZpvyu+/7zWf/eWX86RUqYbmfWrXbmvSPen7bd68Qxo16mitU8M8mjV7X/bv92wiDQCItWsnZMXA9lKtZG27+XBtKV6zp0z61aufQUh3rcGy5qb1P70DpHghV3Pj4vX6ydy91+0VXda873qt7kSv8tr9ecVdr7s+b7xstV+OzLVK1aSZ9j1YMVI+iKiLVRjXJXDtTOnYoJEUz29/XqH68krvdXLKs4WG53cL2i2TAl51rZ+/ttQduEmCdN0T66Rvg/pSyP0e7nRP57bJtPdD90uhkgHS93sGEo1K8nwtZVCb9OZ54I/bXU3Xz+2XuWHypZXPqlr5clvY390znx2Y3VMq6r6vN08C7d+0zQLXeruG2N3z7Kbx3mOVuJb7yWKzdEQGPx/6virC/Gz/5mXc+dnKM2UajJQVh8MeD56fd23vMulYz/5ehV6VgIm7wwYm9fjyPiat91xzRwdQuYf4V5MGlVxPA4/943piC/p1nlV+2Me9/TuE/W3d3bXayKTDl2TrxJ4hZVuh59vLyLVR99cKP26OLaqyMspjxLVtFYfYeXZBP3s9q5wzCZ7bbhJsVrn5/RhpUdP9vV3dHwMmbgtX5nkeF0Frp0iL5+1tKd5G+q44Ya8FxEDQMvmg3Wo5JWmk9tgx0ruUdytIO39WtfOaVeZWC5gZ0jXy2nc97Tw4Jvx1xcaRUlxfi6MuUq7yweP6Qrtp9g7fTdjzGA/aOEbq6jGd33Uchnlt20wJcH8v6xgabJcfp6xrnlfs41yvK9zpIW6jLEDsJYiuVeXLl5BGjWqYLlaffz4zyi5Wmzb9LsOGTZaUKVNIvXpV5Mkn88mJE6ekW7fhsmrVRnutUBrE6dt3jNx///2SOnVK2bv3L+nceYj06zdWPv10mqRKlVJSpEgue/YclA8+GC6nT7sypwZxJk+eL82bd5V9+w5L9erlpGTJJ+XXX/8wwZzff//TrAcAiKWgddL9easiOXm3HLiczNV02N9K3rtJBjduFL7SapyQL1ta//PdGfF7OL34JbfW32G9T50uMjeq63br8zpWtD/vX3ez5dTid+pfuWCvEqmkRaT36DpmHIkVvUfIiiib5WyWEa2nWBWvtPJEdauyViW7+N2wKlsz+knd3pt8BFgOyMiWXWTs79fEL6O2/rkuuyb3lObDZloV736y6MQDktHfSr9mvYeV3nq2x8XUwXnySrmu0nfBEfF7uqw0qFVAMl7eL9PefVVe8bkf4cnvwbSuJzdcleTAeUOk+9QDEpSjiDRoWFZK50gmQQetfNmoq1el0/b7BGndY5PrAlrfI1VuqdqwmvV/rpf9nrR+E2u5QdXcYmXZcJLn1deL2Hdb00hBzS/W+lXz2tvlS8hvvt+qdNhN7/2si+5tyyTg+cbScZWPYOOfM+SVOmNk7dnUri6PWlkf0l7eDslL52SuHl96jNz0lyq6zVWsg3LHLusYtVdBnLtuX/r6+YV2nTgwOUDKNB4vi3enkWK1qkntshnkmv62VTvIpIP2Sh7W9rCO9VG75Fra9JLRygfXDu+Wsa1bS9/YDCQcjbIy6mPkESlt5Z8qT9oVYbOe5uuCksmV4sMlWdOjhVR8d5Fs2HtdkpvPTS/Jg45Y+bSrFG8w08qX9qoegpYOkWpvzpP9N1Kb7y7W+tMCAmL33XHvunlEJrUcKSusPFaw60gZEa4rq0f+PO0qH6sUtI7VFVNCukYmr1RJqmgLz6CfZM0O13+5bfj+ZxM0L9qo2m23rAkpH7ZZZXdG13Hid+2cdX0xWCpWdG1LOJeXyQctF8kufc37OLLODc2bzZCt10KPoUmtu8jgiYOl7rurJDCVK/3auf1Wel+Z5nG9dTtlAW5D8F3y77+Xg5s37xKcJ0+V4JUrNwSfPn0uuFatt4ILFKgR/N13a+y1goO7dPnYrDN+/Gw7JTh4//7Dwfv2HbaXgoP/+++/4K5dh5n1OnUaEnzr1i2T7v7f555rFvzXX8dM2rZtu4OLF69n0p955pXg7dv3mPQ//zxklh9/vFrwmjWbTNrevX8FlynT2Pz/gQNHTJq+97hxs8z/d+gwKPjGjRsmHQASq7/+Om4/uw0rB5lyM0/tGcFH7SS1vperPM7z0uTg/VftRMuFpX2Di2n64+8Fz3F//F8zgutomvUo3fnn4Avu4vfqvuAxtV3pxfpttRODg1d3dqXVmeA+X1wMXtTOlZbnpS+Ct1ywk6Ph6ITWrv+zPldt6efa7mLtre0wKRaf33Ff8Oqlx4M9vlrwheX2d8vTN3i5+zt4fLcKw/bZiReDl7e394/1MN/ZfiV0v31jf9bZ4DnNXOu1++asSTEOTHa97+M9gpf/a6fd034O7mD2Z+vgiX/ZSca14OXvuPaf+zc+ufnn4C0euzL4xuGQfFb189BrEHc+y5OnXnDzL/eF+a1V+Hzo4p2nXCLaPl/vczb460autDDHg/Vd9n9mv3fpz4K32Okhn5enRXCfDRddiZ55rNnC4JOaFPiNnRe7BM/xPEbO7gveb1ZA7Pn+fS9s/SK4zuOu32bE73bi8YXBzTXNOnbneOTD/Z/bv+M7q+y85n5P6+FZjt44G/63tfjKd+HToldWRvcY8Z3XlY/9sWGEXfa3Cx7z5zU70XJ2VXCHYq73bj4r9ENDjj/rXPG1+1zhsR2e5wQkTrNmLbOfxVLIufuz4ImdXceM5/k2jM2fBZfWdStbZWtIYR9ajlYY6Tp/u8/Roedzy42twX1MHrauayIrSyO4Xgrj+DfBDXQd67zTYbnHQehxPVTaI++Hlv/WNvX6xeN8EfbcEFL+XLCOTft4M5+x0j5nhHwH61z0Zei14e2XBYiNBNEiRz30UDrp1q2NJEmSRD75ZKoc82pa6il37uySJ0/ogGw6zk6ZMkXN85Mnz8iVK1fNc7fnny8jOXI8ap7nzZtDChZ0zfhQo8ZzpjWPypr1EcmX7zG5efOWHDx41KStWfOLeT/9/1y5spm0++67T8qWLSYPPphGdu7cJ+fORXk7FgDgy811Mne2thhIL+36tpTcHs0U/Kq3lHYFrCc3d8vicF0DCki7TmXFT+94qeR5pNUbrrF2gjZukwPmmQ+nVsncFfqkgPQe+4YU1TtOsVS0e0/TxSrouxHSZ4WPVg8h8kiF6v5hWmD4PVtSSplnR+VouLbV1ndr4Z6VKI1UqV3Cfm5/Z3updHk7fdc+MSNqHF4m07RBql8daV3f1UXIyFVJ6pj9uEnWbHYlwcvlE7JhYk/p870upJFmDV3jOWV8uqwU9diVkiS7VCjvSjhwwHWdEMbTTWT4azr7zx1i/eZzTWuDkvJBX4/jQZJJ7rdaSm1dtvL8Iu+2/VUaS7eQrgIeeWzXUVdT/2QPyIMmYb+s+cGjW176PJI7PqY0uicdkbHNGknFCtajnHaXmie7rHKw9sgh0uFJ1xqB3y2WDTetQ7ppfWngkQ9zV68k5h72il9kg0lxs/JuF49yNEl6qfJ6Vdddf6tc3OqjFUuEollWxvgYiYY181zjj2Vt00Ha5bMHyVfpK0rHtq5r/w3f/RRumvSsbd6WZjoDlrK2o04d17pBe4/c2SnV4Vx7F8lgHdzYOpZKvVA45Hzrac1s1xT9pds0kaIhhX1oOerumlu6+rPm/wO//9k6tm2bV8sizdzV60qd6JSlu6dIRbubkvvhbqUc+N0yV7etKm1kUBWPg9C6HmrXvqJ5emrBuvBdu/yqycBeJT3OFx5K1ZdmdvmjA5HXsbt76rntA3fLpCRFpLydvutAaEvf+CgLELUEE8hRpUoVlnr1XpBDhwJl3LhZEXax0mDL9u17ZOjQSdKwYQd59tmm0qXLx/ar4fn7P2Q/E9ONKnNm19GjfzUwozzT3Z/rHgdn6tQFYQ6il156Wy5cuGRtx80wY/IAAGIg8IjdRL6IFHVfPITILrkfdz27cPGi60kIf9P9ylPygrkltz7Ze0IivGTYsctV8clXREp7/X+MWRcz3QZVlIxySRb3+SzSmWaundotKyaOke4BAabiVrzYSDF1JJ/8JaPnBV7uHK5Km/d3dqe7K2cHDrsuFoMWySse5ysde2LwbrOGXI1JRS7RCx2DJm/hV6XFkG3WxXkyKdp9pPR+2l7l5nU5sHGejOzRT1rUtCrcJWtL3XHeQcVQBSuXiJepmyPk/s0LFJSiqUxKqCTZ5Alzn+qSXPDOm6nS+g42BV10dZnJWE06vKaZ7ZKs6PaqFCr+qgSMWhcvU7Pfy4JOnJPAY9bjhHbDKyC9l86SEbVCD/L9f7quQYOmdvU4nq3H81Ncv3u44zmDZM1sP3Ur+IS4bnP6ChpHIrplZQyPkahZ5wR71IKiRcNPs581lynlrZPCv+G6pfo96BH08eRjXcCnfI1lTFfNd9Z5/d2uProvhubPDT0ahT0u31ztesHumiulaksz7VZ7eJ1sMF2LRLb+4OpWVfvFitEL+PuYtSqTTrhgcZcPBYsWDP9e7usDd5nuqVJJKe0riKOs+rLnOSzP43ajCeviw2f6tf9cf1WclwWIjgQVyNHWOG3bNjYtYxYsWCkrV4Yf70aDLH36fCovv/yezJix2IyTU7Xqs9KsWV17jbj31FOPmzF8vB/Vqz8nyZNHcOIAANw5Z/913XX1S2u3JohEkuRx0moiefmOMrBhGtGZZrr3X+dzFiud+aJimfYSMGSZLP/rASn67DPSrFd9u3IVD/zyuMY08fEo7V3Ju8eFTv9s7bPXWsqE/80LnX5Zx0loUFuqNR8vY7/fJVcfe0ZKv9hEOtTyvOWYWGlA6yv5bVEHaVXWX5IHnZAVY/pFPOYCYiG7dPvfctm3Z7Es7FtEMl7eLX3rBPgc9yZkbKVwj8jGmbGdPSOnzZPU4ucd7IuOyMrKe/oYQeKUXAq2HiITXrTO6zf3y+BmEZd5Wcv6OiatR8gYaHmkqgnMHpFFP2jQZZss0tY+ftY65c0KUfMxa9WEJpFFVu8SyoK7JkEFcpS//8PSsWNL83z06K8lMDBsF6sdO/bJd9+tkUcfzSQLF46VKVMGSc+ebeWpp1xdpOLSI488bP5qd6x+/d6V/v3fC/Po3Pl18fNzN08GAMRI1uyuVjTWBc5WrwEBPe98ZfX3vnC5Lte97kaf2rvPFUgpmC3iAQQzZnC9tnubbIiTCmkyqdC9qzTIqE2YR8jgVf/a6W77ZdJAnflCpMrImfLbklEyYkAH6fBi9rhvueH+bv9mkwZ9O8hA63O8Hw20ixVsntM/j5Ex3RtLhRyhN2aurZgggzVP5qgvCzfNkjljrH2o69zu6JRx6TF/1/Gze5ds9R6E+OZR+cNMwplessUys/kVqCbdpnwlOzcNkVaad3Rq7AlMjR2nkiSTgk2GyMS3rDLumlVxfGO87LLLtkz+rkpQUO7KPo/ngQPq2K31Ql3zbqVz4ID8oX/98kqemOSDaJSV8XOMZJdsdqObrVvD57XAg3bH2Wzp72zrN9xD0kiFwSOlm7YStsq8Ni09B9f2l0yukTbE79n6Po5J6xFQMiRvFmxUx9y02bVys5z6dZ3pVuX3YsWIW8TEQLbcrpsOu7buCt/izN1aM0uGqIO9ccAR58tEKsEFclSFCiVNFyudXUpnqPJ07twFM/14mjSpzAxU6uLFf2X+/B/M87hUseIz5nPWrNlknVDstukW7U7100+/yq+/7rRTAAAxlqSEVKuuT87J2N5T5IDH1UjQihkySYvdJCWlbiXvlo/rZMy4/aEXL0HrZNBnrjK6aPVyEV/gP1lJ6pgZhLbJyB7LPKb/vi4HZtj9zWMqVUnpbXexmjt7k53o9o8cNU2q00imh0OD/gdmLI6ka1Usub/bzdUy0qpsh7mwO2d938ne24bInDpmT8eR8SHJ6L7otvLZxHmxbyoeePSs/Sw6zkrgcftpRHI9K1VNft4kg3qv85iW2crPE2bIYl3OUU2qhuu2GIVTR+SA59dMX0TKF3Xl36DLkY0Hhdgq2L6DGXNLDs+T1gO3udJq2LPaLJ4hY/d6Tjdu/Q6/jpdJa+2FEEdk0qerQ/OB3iUf6hpvxq9W2Zi1AoxGWRmrYyTwRJTj1ZSv4hrvLHDCyLDf+9w6GfGlqztJlVqV4qRVJeBTkuzSauQbUlDz9Y4p0rybu8VtMivvufLnri9nyIowWf26BM6bInPtblSGfyVpoAPi/fqT9Jm8ynoPf2n2chHXa7cpd/myrvJhxQT5wHNDru2XsZ+5unllfdEeTyuexVdZgKglyECOZxcrbzlzZjWtdjTI07Tp+9K581CpUeMNuXXrlr1G3HnyybxSq1YFOXPmvDRp0llq124rXbsOk5o135Q2bXpKUBAXNAAQe9ZF0YBeUlsrMDtmSrXi9UMH/wzQlixppPbYrlIlXJeANHJqeoCUqdpeOgYESPEy/WSxXhE82VIGNYysKW8e6TC+pbk4O/X9SClT2P68kvWlWu9t0Zt+3IeQLlbhFJTSpgn1JZnW+lVp0WGkBNSrLXXXPhAPXavySKvuGlCyLjCHW/ukZBvzeR1bvirFS3eVsbs8+rIjSlmfLuIKCFoV5mr1ekr3Du2lYpkRctq+CxoTTxR1NYUKmtFTimt+aznPNaiwTwWlmBmjR/OMK3+2mOqqvIbnkZ8X9LN+c+u93fl5+H7rYiqPdNPX7bWj7fI66ViytrWd/aR7D1ceajPDut6x3q9d07iphMBLkiLSe3Qdk+dOTe3vmjK7wMvS2+7iMbJmfSle0yrvdPyJqlb52Hie/BESXHFLI8l/GSxlSgdIgJVfq1llgLlLnrGiDO8U098t6rIyJsdI1kIFXQPH6rrlrPcpN1LWmFfCS169a0jXFvO99XOtR/HSrnI+44u9ZFB1hjVAPMtRX74e6zqnavna3B5kOHmVNiGtdQJK15YyDay836OnvGIdGxVDAj5u6aVOEw387JYVK60yNEdFqRpXLWMLtJSJ7vF8AqzjQ48rPU6KB8hIPe6t66GJ74QfZyo+3G5ZgNhLkIEc5e5ilSJF2Ji7BnKGD+9qgjw6u9TPP/8mr71WT5o2rW2vEXd0NqzevQPMQ7dnz56DsnDhSrl+/T/58MO2ITNlAQBiya+sjFj9lYxpkkcyJr/kGvzTuljPXbaOjPnfTBnhnikhjBLSZ34vqZP6gCxesd+6cEojRV/sIMtmNpbc7rtBEcnVWBau6WXG/vC74fq8U+IvVbrWlWL2KjEX2sUqrPTSYMQo6VbFX5JfOyEbvl8lBzI3ka/HNHDdSYtjfpW6ybK5b0jtItY+O3dENny3TBbvuCa5a78hc7q7ZmJCNBUJkIVjqklB64ozaMcmWbTuP6kwYoz0ju7YBh4yNuwoA6084JfkugRZ+S0odepIWhOkl2YfBUiVXFZF9ZqVP0/8K2n90tqv+aD5ecMQK49lF79r9uC5l5NZx4P1m28YI61y2evFRKrcUqxIagn6VWeVs/LQr5ckqx6Py0fG7v0QPU+3sQPCl2Tau2Nk6800UuHjr2ROX9dsMEF7d8vi2evkj8vZpXbfIdInXF7MIK3GjpIOJS7J2u92y4F/k1nlaGOZsKSbVPA1/U5UoiorY3KMlGojn72WR/ysjK+DPJ9KnjqSscz0e8+U1aOrSVF/a33N09ZDchSQVqO/ktUfh87eB8QnPad+bYIlIruGdJCOqzSgnV1azbWuWV4rILlTX5dT2zZZ5eQ2OZAxt5U/+7sGOPaQvEo11wyCN0WKvl43TlvI5G49Rn6b2VKq5Esj1+zB06+lymPKh9/mRuN6KK7cZlmA2LtP5yC3nwMAEM7hwyckR44EMMDe4ZlS18zYUlEm7LMqJ3YyANy71knHvP1ksRlAeYK08qpIAond7NnLpWHDqvZSAhO0TAJKjpQVNwvIwPWjfNzwAWIvwbbIAQAAAADAeS7Jmv4TZIV2g6xeV+oQxEEcI5ADAAAAAMDtOjxPWpgxpRpLG51yPGNFmTCgIgN0I84RyAEAAAAA4HYlFbmgYzsF6Xh/tzFOFRAFxsgBAEQqwYyRAwAA4CFBj5EDxCNa5AAAAAAAADgEgRwAAAAAAACHIJADAAAAAADgEARyAAAAAAAAHIJADgAAAAAAgEMQyAEAAAAAAHAIAjkAAAAAAAAOQSAHAAAAAADAIQjkAAAAAAAAOASBHAAAAAAAAIcgkAMAAAAAAOAQBHIAAAAAAAAcgkAOAAAAAACAQ9wXbLGfx8rs2cvtZwCAxKhUqcL2MwAAAODelCOHv/3s7qNFDgAAAAAAgEMQyAEAAAAAAHAIAjkAAAAAAAAOQSAHAAAAAADAIW57sGMAQOJ2+PCJBDW4GwAAgNKJdxo2rGovAfcOWuQAAAAAAAA4BIEcAAAAAAAAhyCQAwAAAAAA4BAEcgAAAAAAAByCQA4AAAAAAIBDEMgBAAAAAABwCAI5AAAAAAAADkEgBwAAAAAAwCEI5AAAAAAAADgEgRwAAAAAAACHIJADAAAAAADgEARyAAAAAAAAHIJADgAAAAAAgEMQyAEAAAAAAHAIAjkAAAAAAAAOQSAHAAAAAADAIQjkAAAAAAAAOASBHAAAAAAAAIcgkAMAAAAAAOAQBHIAAAAAAAAcgkAOAAAAAACAQxDIAQAAAAAAcAgCOQAAAAAAAA5BIAcAAAAAAMAhCOQAAACfgoODZcaM76RKlVZSt26A/PnnIfuVqPXvP1Z27txnnp86dVa6dh0mly9fMcsAAACIvfusi7Rg+/ldExR0SRYuXCU///SbdbF3zlw4pkiRTHLkyCItX3tJ8ufPaa8pcuvWLdm8eacsXfKj7N17SK5evS7333+/ZMmSSerUrSTPPfe0JEv2gL22y8YN22XIkIlSoEBu6dmrraRMmdykz52z3Fyg3nfffRLwdhOpXLmUSfcU0f+qw4f/ltmzvpfff/9T/v3XdXHq55dGypcvIc2a1w63HVGJzn44c+a8fNBtpPm8Pn0DJG/eHPZ/u1y5ck369/tcdu8+YF00t5ZSpQubdPf/6cW0p9SpU0rJZ56Sxo1rSsaM6e3UuFtfpUqVMmRbPbcvQ4YHpf+Ad+XRRzPZa4YaMXyK/GTthyZNakmDV6qG/A5Rca8fHdev/ycrlq+TFSvWybFjJ03eeuCBpJI5c0Z5+52mZnvd2xEZz+/nzlOe3Pnz5QZV5dlni5llN1/ru5UrV1w6dmppL4U6ceK09OwxWk6fPuczX7p57rOHH05v9rW//8Nm2dvWLbvko4/Gy82bN63fNYMMGtxBHnoonf0q7nWHD5+wyiF/e+nu2LPnoHTrNlxGjvxAcubMaqciurSM/vTTadKlSytTZkXXL7/8LvPmLZeBAztI0qRJ7dTo0UDOSy+9IIUK5TXnhmHDvpTevQNi9Pnx5erVazJ37nKZOfM7cx2h5X9d6xqiQ4fwZS4QVzTf6Tn/m2+Wm3x348YNqVChpHTq9Jo8+GBaey0AMTF79nJp2DB61/6+rFq1UZYv/9m6Zu5sp7ho/W7w4Any8cddzHW8J62j6TlO9ezZztQlvU2YMEfGj58radOmtlNcChfOb51T25v3eP/9j6Vt28bmPOmm5UK/fmMle/bM0qrVy+Hee+/ev6R9+4EyalR3yZfvMTsV96K72iJHM/CGDduk7Vv9ZP68H+TkybMmTekJTu/87fh9r1lWGrwYMmSSDB40wRxcuo7SC7CjR0/ImM9myAcfjDQV3JjQz5wx/Tv5+++TdkrUfv55i7zf+WOz/ZcvX5V06dKaII4GY/bvP2JViG/Za0YtpvvhdmhhoNuqQRgNpGhgZfWqX6yL60/ln3/O2GuFup313Y+HH05nVQCS2GuEOnv2gkz9aqFVYN20UyKWPPkDYd5TA0pKA12e6alSpzDpUdG81K/vWJk0aZ7JO8mSJTXBDnXkyHE5c/q8eZ7WL3XIe+vrGuhR+luHpof/fp7bpUEW/YxRI6ea39f923ry/h760M/2Zctvu0Ly+KFDgfLXX4HmeWR0/U2bdthLYen2bNz4uwniAAmVXtD06NFWsmW7uwElp9Lz5JUrV+2l6Nu1a78JUsc0iJOQXbz4r1VxHmL2x/z5n1oX8VNkzZqp0q5dE3sNIH7ocViqVGFZvHicyXerV0+VggXzWBXCz03lDUDCcODAERk0aLxVr3wjXBBHHTv2j6kv6E39kyfD14fc3nijgTnWPR8jR3az6ga+6ytaDowbN1uSJEkiLVu+FC6Io/QGdI4cj8ratZvsFNyr7mogZ926rTJyxFemqXXu3Nlk2PAuMm/+J/Ltgk9l9pwRplVEmjSuCrtW9r+0Kt2bfvndVHobN6kpM2cNM+vO/WaUdVHW0tzNOHjgqIz+5GsTcIiuFCmSxyiocOHCRdMS57//XHdSZsz8WCZPGShfTR0k4yf0k6JFC9hrRk9M9sPt0oKj+4dvmu2c9OUAGT6ii2gLjON/n5IfflhvrxXqdtZ3Pz4Z3T3cHfQkSe43LZY0uLB27WY7NWJFixUM855161Y26SVKPBkmvWbN8iY9KmvXbJY//thvouTaUmXGzGEyYWI/mTV7uLz7bjNJmcpVwLZp0yDkvUd/+qHkyeNqAdW2baOQdF/fz3O7pnw1SF566XkTMFm+fJ3PAJj399CHfrY3bUWkd8iTJ08mjz2WxdzdW7v2V/tV3zTIpK2AtGWRu+WYJ92eLVt2mX2h7wskRNqK4+mnCyWqgIITJMbK5axZS+Sppx43Zaye/90o/xDftBzTwI1eAyn9W736c+b67/jxUyYNwN2lrfR79hxtgjhPPpnPTg1r27Y9UrHiM1adr6DpKRIXtJ4wZcq3JjD0oVWX8nW9ozciAgNPyBtvNDRdl3UZ9667Fsg5fy5I5sx2BUMqViwpAwd1MEEMd7cTreRrV6fqNZ4zy/v2/SXr128zEUptgvbKK9VCLsC0ovpsueLS7YM25iS5c+d+q7K73bwWHfq5epc3ukGF06fPy/nzQdZnpbBOwOXCXAhqSwrt2uOrq4svMd0PcU2DAe6uayd9BBi8xXT9iGiLpXLPFTe/XUxbQ8WF/fsPm796Mf/EE3lCIt663ytWekYKF37cLMcF/Y6lyxQxeVNbb91Ooat3CLRJZbbsmU0wU/Pezh175ZyVjyKSLVtmyWXlqUMHA02XNm+a77XbRdmyxczxBcQlvTDZvHmHNG36vlSq1NIq5161yu/25k6Wm1ZgevQYZV7Xh47Hot1wPMdT8R5jRS9gtFmz3hULCOhn/q9ChRby/vtDwxxj+vna4vHll98z6zz3XDMZOnSSXLvmatEZHd7bp48lS9aa1zzHgfHk3j4397K2cPl/e3cCH1WV5XH8oiAIDIi0io3tjoiIH1BAxQVZBIU0Iu6AQFhlERURCaNAPoIgKNoqCm4sIyKICyLbIGoD2khrSzcKdjsuqM2gTosgLoCtU/+TeuVLpapSValQecnvy6c+pCovSeWl6t17zz33XD0XnYe1a9+K/F4fffSZy80dY48/+eSL9jUK1D722CI7H/qZnToNtJ+r38mj76kM1QWhdkSf19d37Ng/0pYp6+Smmybbz1TqeOfO19n3euONd+zz8SgTVDVxlBaum75Gf0Nlo/p/L79456IsUXbipk0fuMsu6xBzphPY36pUOdCyfTVRAyC7NFk/ZcqjbtiwHjZGiEVt82uvbbBJWPWdlSGjx0pC7fqyZWvcxx//040ePSDupNU772yxVQFNmjSwMYDuo+LKWiBn41/fd59//oUt11HtkOLqySjrQG8SDbq9ui/RGjQ42p166on2ZtAL29/ZTUTPQTVoNOBWzZIvvvi/8Gdi01KaQw6pZYPyF198tdBgI1WpnodM0zn6+eeC81Q9vFwpkVSPT+SMMxq79u3PtmwoDUKSyYbKFC+zRgMgLVVK9rWSrl/snP1ir7GSzPq+HXqueh8o0KT3wlG/q+e2bfvK/TX0OopHF/q2bVpaSreycvy/qzJ09Nhvf3uYO6XxCSyvQsapg/Pcc6vczJn54aUEc9ycOXfZdVQ086UgSefOF7jVq2fZMcuXP2ppwyNG3JXw+qqvffjh+bbkyvveTZs2ctOmzY68lpV5N2/eEvf44xPCx8x1PXrk2HsxGfoZWkras+cl9vW6rVr1RKjz1ix8RPK0bPbZZ1e5WbPutOd63nnN7XFlkGqZ54QJN9rjPXt2sUyY++6b4447rr5bufIx+7mLFv3BAjA6p35z5rxgM/tarlFwfifbrJ6CRsqSVBq3vrZjx3Pd0qUFSzpatUr8/Bs2PM4tXjzd0sK91PB586ba0tkgUyC8du2a1ABDmaGaiFWqVLH6fACyR5NAqlnTqVPrhG2kSmhoMl8T740aHW9jN//kVDrUri9evNqCOPHqyKn//tprb1oWnwI96jetW1e4X4+KJWuBnPff/9heeCeeeLQ74oi64UdjU52Yzz/bbh83OqXgDROLsgm8AfpXX+6wr0uWlkMpqKAgzlNPLU0YVNASrquuvthmUF5//S9u0MDxbtEzK9MK6KRyHkrDxne2WDBDg31FlYtT3PE6B6Nuudtd2vX6yG1M3n0xl7pVCv1TZpWyoV5f94574/XEM8SZ1PqCFhYI0UV74sSZbtzYByJ/i0xT4GXJEgX8frQLfqzizgqm+M+ZbipW7Kesm/V/2mgX+DPPPK2g8HSLJvac/7xhU8IgTMOTj7eBy+b3Piy0tEsZOsrUady4gQ1sU8lSAIrzwQdb3bJlf3RjxgxyNWtWDz+qJZhV7XWs1+z99891vXtf6s4+u2kkQ0JBicsv72jvl1deedMei0VZLL16dY0MgPT1OTltLMtFgyNRNpACn14hUX3v+vWPSCr7TO/d++6b7YYO7V6o6L6+h4L5qVIm4NVXdypS+FCZdhdddG6hdfgrVqxzv/nNoa5du7Mj50XnTMuBVqxYG2lvdu/+3gITyjDR8xIVNddyzmQyTCuaTz/dZktb1qx5K3SOhkUyrFQIuqQzqkAqFKzdsOFvbvLkR1zfvt3iDt4AlL69ewsmT1S6oUOHc8KPxqZsnJYtT7N+hMZDzZs3tnY5XRs3brG+0tSptxTpH/gpA1kZ9BozirJyVCtTj6Niylog5/twrQ5lJxTXodZA1csCOfCA0ln6oY5yKkEF7T409e5bLBqrjvS8eS+5fn1vs12nlPmQrFTOQyYozf7OiTPdwAFjXW6fMe6OO2a4ffv2uX79L7NspmipHq/zGF3sWPe9gUi0Q+rUsmyoAw6oZAG04rKhMkVBkLHjhtjMvAopK9U+b/Q0N/rWaRl5Dho86px5503LERQ4GjjoypiZANViFDvW8/LTrj3KvlGmwlFHFRR8bdHyVLvo6/mroHI89erVdaeffkqhoscaRKtwtQKSF7RpYYE1IJM0U6QATbyOiYItygrTDg7RdM1QsHj9+o1xA6xau673g1+tWjWsMLlXEFyD9r///ZO0BunqIMnJJx9v/5eUdiCMFcitE7oONmjw684T+n3feutdK4oa7fDDD7XJDK/elWbl2rdvVeQae+yxR1lAC4UpeK9Os7KV5s+/J5JhpXN6550zy2VNIJQtyqpT8PDCC/u5vLxp9v49/vjfhT8LIBvUJmhX2HPPPSPumEXUt1Bmp7991tfosZ07d4cf+ZW3NNl/8y9tVmmN559fFboenBOZcIrHW87l9anq1Klt/SDVuUTFlLVAjkcBmlSyIP79c+kt/VBQQXVHFFR4esGyQpkLsWgAMWXqSDdu/FAL6OzZs8/Nmf2CmzljYcpLVFI9D+nSz/jmm29tAKX/NZN7xx3DLRsp1oUr1eNjFTsedWs/C1TEo9lybdmuAMrCBSv22xIrddy1nG3mI/muS5c2TmmSuhDfOmqa+/DDz8JHpUfZYDpnuulj1VIaN26ILaGLJVaxYxV49uj1pG3p9ffQ0kKvBpMGhSq0rMHJ3xLsbFap0gEWrNHMgVf0WIEfBYC0deEJJxRE94FMUiDEy5KMRR0iBV0UfIlFWYrKZIu325KCxNFLFXVd8jJTRAWSlU1z7bW3Wq2cVHYUVG2cI488vMjPSJcybrwd9/yUIeQ/B/p9P/nkn5HaP/5bTs5gyx7UklTRtVXr5aOpHUvUGa3INKOZm9vNroei10vv3l3tOqpzC5QmLdlQAFHLILVsUpM7/fvfZoNIANnRtOnJobFAW6v1prYgns2bP7S23NvpVtSGa0ImVpmDWLtW+ZdtaTL15pv7WkaPAjXxaDJK31+TY35t254Vupa8SUZpBZW1QM6xx9W3/7V1sgIEiWjQqowC2bL5o7gF4TTY9YrY6vhkCw77tWzZxIIK2pVJRYh/KiYgo+K4evMrO0c7GalBVsq2AgLJSOU8+GkJzO4YFxqdgz174y+PUequgk/a6atX70tsQD9hwsy4zzfV49OhTCQtVdOFUUGG9euTL1SdCRoE5fbt5h548DYb8KnQ2XPP/nfKwTi/8847w3Yde3D67VZoWMskFJVPN0ilOh0q4i2znngusvzqqitH2FI38QI08ShYo6CNV/RYWULKJmvTtmXc5YpASeh6eNBB2d0JSIP0/v2vcA89NNY6Sj16jIxk2iQjnXYkE5SVt2DBvUU6gLqpdo1q2CA9WprqBXE8uq/C8Im2kQUyTRl1Wspx0UXnWe0LANmjJVUaB0yd+njM7EyNC5YsecWKEvsnWNq1y3WvvrrBLV++Jq1JeY1D8vIGhcYJCyN9+mhbtnxkGfUDBowt9LOHD5/o3n77Pavbg4ona4EcLfNQapgGqCuWry12OVKrc5rZgF8DUG9pSLTNmz+yrAQdp+PTER1U0FbPydDM5+lnnGJ1ExQV3flN0fS6WFI9DzVqVLfUel1MtPVd9AVDM9xfffm1BWDqhouJxqIBVteu7VxOzgUWuHhk5kK3a1f855zq8alSZLtHz9/bx0/PX2pFQfc3Zcucfnpj+3jHjm9tvWxJ6XWkrfEVqV+9en3aNSv0t9b5rhZjCZaetwKKn336vwkHqArWKGij15iey9tvvWdFjmMtawEyoWbNGm779vhb6npLoHbtij37paxIvXcyUTvisMMOdfn517uRI/u6iRNnJJxx86hzpbXniTpmSouONROm92sqddr8lNmoLCBtMVoWqeZZdKBbkwupTEZky0knHWcZsLEUZHOV/hJnIJqya5UhCyB71Abk5l5m5QtUPzM6mKNMWU2AvvRSwaYB/tuSJQ9ZfybdejUaL0yaNMKCSJs2Fc2wVw2dW27pV+Tn6jZkyDWh/9eHj0RFkrVAjpYlqc6MPPPMSnfPPbNtaY3XYVZmwcoV69zyZWvsvnYiUTEpdZqnPzjPLV++NpKZoywHFcScctdj1qHWcTo+Xf6ggpazRNOyG2VF+OsP6Hm/9+7/hDqyu6wjGF3fJJ5Uz4MG8ic3KqjXoHOgTA8vy0NpuTNnLLABir+OSjy6YGlJkeoC6Xd6ev6yhAOWVI9PlZcNpaCWtr4tTfOeXGLb2fszZHTevLRI/f38yzNKQh20bpddaB//19wXrSFIhV4DCirKNd1ziizBenjGOHfaaSfZQGrtmsTV6xW0UfBGhZT1PM46u6kNlIHS0KbNmZbyG6/uiAKRCk6/+27RTotex6tWveGaNft1iWEmNGp0QiTgXhxlvSjIlGg3Ci1t9DJBPXrumgRIt96KrrV6r+r3z+Q1NhNUSFntXHQgX+3PP/5R9pclaRm0aiFEB/J0X5mx+jywv23b9qUVLgWQXer7q/i4Jiu0m6R/ObaWZ3sT8NFUr0b9C9UGTJfGbgrWTJr0iNu6dVv40YJJet1v0eLU8COFqZ6gJnx37ChYco2KI2uBHHVUVeS2Xfuz7L6KC183KN91u3S4LRnp2WOUmzFjgdu92yvoeKAbOqy7axIasGqWUxkhWlaiY6+4/Eb3wP1PWpRUn9dxOr4kvKBCLMpoePnl9W7ggHH2PFXQtvs1I929986xQFPr1s1Dz6Nh+OjEUj0Pot1IVDhXP0vnQb+/jh18Xb6t79cFpnefS5JaEuAVG9YazZdf/pNt255Iccf7iyP7b0uX/jF8RHz+bKjSppn+qVMet9eQilSrIHHvXnm2VbHO39XXdMrocqMLL2zlmjZrZNlMc+e+WGR5oL84sndT4eVvduyyLBtl2yg7QMv4oul5ahcuvZZUxNOrnRGLgjYK3oiyHLTEACgtGpjoWjF9+lOFAicKgut6rff88OHXuieeeNZeu17QQh2nRYtWWiBEuzmVhL6vat14lNUZeqvE7IhF0zGdO7d2+fnTC30P7Rjl1bNQkUNd37xOl34HLeFSNo1/p65UaamF3vs6D15HUt9b13htLZ4qtYn6G6jmUElo9zstQVq4cEXkeem6pr9h/fqJJw/KAtUyaNKkoXvooV9fk/pf9/W4Pg+UFhUxVyDUo/eQMnX1uLYSBpB9WvKogIrel7NmPWttr4L9KknQunXL8FFFafJKk8TJTBTFc1po/Ninz6VuxIhJNrEtKjmhSfTDD4+9u7EmjDUxRlZfxZO1QI5oAKptXfPzh9kLV9kmogGpOovqQLdtd6Y9JupUjx8/1N08Mte2XtMAQfT/SQ2PdaPzBtjnk+mgFydRUEFvpsuv6OCOPvpIG5CroK0aY90fNqyHGzzkmpQCSameBxXLHPOfA23HJS2z0nHe423anunumXZrSvUTvGLDCgzNnvW8BQ8SSXS8LnZecWT/7fvvkhs8eNlQ3t+2tOT8/gIrGKaBlgIfes563Zzfurm7666bM15/Qn/j7t0728/QFu6aaffzF0f2bnpeqtGkLBtl22jdbrwgl6rW6yKur4uVkumnDDA9D72HFP0HSos6Q2PHDrHrWLdu10fWdE+e/GgkmKnX9IQJN7q5cxfbOnN9/uKLBzjt/qCOlL5HSejaPHjweHf++T3tez/11Etu1KgBVhMlGR07nmtpyyNHTok8/169RkfSpxs0OMZdf31Pd9NNk0KduN4uJ+c6C/r07NnFPp8uvUenTRtt9cjatOllP7djx/7uhRdWWZuQKs0Wamv2K6+8yXXo0K/QrhmpUHtzww3XWsFgPa/27XPdjTdOso7n/gjCl5Sef58+XW2pXadOg+y86rWpyREVQPbaU6A0KJNt0KBxkWtJly6DbQtyXQMz0XcFkBleG6xyHtpVSjvHKls/Ub+5YWgsqiCO6tmUhGr1DBx4lbv99j/YpJGWTbVrF3uTGdGYVV+zePHqUJ8n/fqeCJ5KoYF32crbBgCUKVu3bg91Xsp+tgUAAKhYFixY6a66qmP4HlBxZC2Qo6VAAMouZVE89vgd4XuoyAjkAACAsohADioqMnJK0bR7ZkeK1EZTfZLx+UMtLR+Zo3T/vNH3On8haj8VIrt97OCsbSkMBFF5DOSooPqoUXcXKXrrUV2rvLyB4Xvlz/z5S92jjz4TvlfUhAk3uFat0tv9EQCA/YVADioqAjkAgITIyAEAAGURgRxUVFktdgwAAAAAAIDkEcgBAAAAAAAICAI5AAAAAAAAAUEgBwAAAAAAICAI5AAAAAAAAAQEgRwAAAAAAICAIJADAAAAAAAQEARyAAAAAAAAAoJADgAAAAAAQEAQyAEAAAAAAAgIAjkAAAAAAAABQSAHAAAAAAAgIAjkAAAAAAAABASBHAAAAAAAgIAgkAMAAAAAABAQBHIAAAAAAAACgkAOAAAAAABAQBDIAQAAAAAACAgCOQAAAAAAAAFBIAcAAAAAACAgCOQAAAAAAAAERKVfQsIfp2Xr1u3hjwAAAAAAAMqfY46pF/4o+0ocyAEAlG8K2JelhgsAAACoyAjkAAASUiCnXr264XvO7dv3k/v++x/t/59++nf4UQAAEBSVKx/oqlSp7KpXr2b/Ayhe1apVwh9lHzVyAABJ27lzt/vXv3a6H37YQxAHAICAUhuutlxtutp2AMFCIAcAkJQdO761Th8AACg/1LarjQcQHARyAADF0mzdnj17w/cAAEB5ojaezBwgOKiRAwBIKNbuhFpPX6PGwbZWuFKlSuFHAQBAWafh3549+9x33/1g9e786tatTc0cIA5q5AAAAksdvEMPreWqVTuIIA4AAAGjtlttuNry6KCNNjMAUPYRyAEApESZOARwAAAINrXlatP9ojN0AJRNBHIAACkpS2mlAAAgfdFtOjtSAsFAIAcAAAAAACAgCOQAAFKiAokAACD4otv0ypUPDH8EoCwjkAMASIl2uWDDQwAAgk1tudp0P3asAoKBQA4AICUqhPj117vcjz/uJaADAEDAqO1WG662PLq4cfXq1cIfASjLKoXeyPTCAQBxbd263R18cFX3ww97wo8AAIDyRm197do1w/cARCtLG36QkQMAKJY6dlWrHhS+BwAAyhO18QRxgOAgkAMASEqdOv9hs3UAAKD8UNuuNh5AcBDIAQAkTbN1devWtk4fO1sAABBMasPVlqtNJxMHCJ4S18hR7QQAAAAAAIDy6phj6oU/yj6KHQMAAAAAAAQES6sAAAAAAAACgkAOAAAAAABAQBDIAQAAAAAACAgCOQAAAAAAAAFBIAcAAAAAACAgCOQAAAAAAAAEBIEcAAAAAACAgCCQAwAAAAAAEAjO/T/i8qU5l7WSUAAAAABJRU5ErkJggg==;" vertex="1" parent="1">
          <mxGeometry x="160" y="70" width="444.9" height="190" as="geometry" />
        </mxCell>
        <mxCell id="zKrp2AEOSzv_7fgHDQ2_-2" value="" style="shape=image;verticalLabelPosition=bottom;labelBackgroundColor=default;verticalAlign=top;aspect=fixed;imageAspect=0;image=data:image/png,iVBORw0KGgoAAAANSUhEUgAABGYAAAIFCAYAAACQ+fs9AAAAAXNSR0IArs4c6QAAAARnQU1BAACxjwv8YQUAAAAJcEhZcwAAFiUAABYlAUlSJPAAALf9SURBVHhe7N0HdBRVF8DxqyBIi0YNRZrSQZAmSBEpIkWkCNKLKCBKLIBI+6QjxQJYQKUIIlIFqVKUJiKIICAIUqUKEgQJNUj55r6dTTbJbnoySfj/ztmTmdnJltk3b96788ptNy0CAAAAAACAJHe7/RcAAAAAAABJjMAMAAAAAACAQwjMAAAAAAAAOITADAAAAAAAgEMIzAAAAAAAADgkzrMy7dy5T9q37y3nzl2wt4Tp2bODdOrUzF679fTq9Z7Mm/edvRYmT54cMnPmKAkIuMfeguSGdI3U6Pr1G7J06Vp5773Jcvz435IpUwZ5+ulq8vrrz1n5kb+9FwAAAAAnEJhJBHEJzEyYMFveeWeSvRYzWrm65567pWjRfFKlSlmpVKmM5MyZTdKkiX1DqLi8/913+5lKnb7vE09UkHLlikvatGntZ1Mm0jVSG83iJ036Wt5773MToPFUrlwJGTeuvzmXAQAAADiDrkwp2MWLl+Xo0ROyYsV66dfvQ3niifZSuXJLeffdSfLvv8H2XolH32PfvsPyxRffSLt2vaz3biXTpi2Ua9eu2XsAcNqpU//IzJnfRgrKqF9//V1+/PFXew0AAACAEwjMpDL//POvjB8/W6pVaycTJ36dpEGSM2fOyaBBY+XllwfJ+fMX7a1IKbTifuDAERPYa9PmTQkKOmM/g5QsKOisz0Ct/uYnTpyy1wAAAAA4gcBMKqWtaUaOnCBvvDEyyYMka9ZsknfemUjLmRRAf6Nt23ZL//4fSvnyTaVOnU4msHfiRJC9B1K6nDmzSo4cAfZaeNrtMV++3PYaAAAAACcQmEnlvv32B3n11aFJHpyZP3+l/Pzzb/Yakqv//W+MNG3aVWbMWCLBwZHH1UHK5+9/lzzzzJNex56qUKGUlC//sL0GAAAAwAkEZlKAKlUekRYtngr30BlVsme/z94jauvX/yoffvilGQQ0Lj77bJDs27c89LFp02wZPbpPlHfar1wJkVWrfrbXADjpueeekffe62kGB1c6cHjz5nXl3Xd7SpYsmcw2AAAAAM4gMJMCtGlTX4YMeT3cQwMj69Z9JT/8ME1atXpa0qRJY+/t3ddfL5ctW3631+JH78BrYGjGjPelZMki9tbI9u07JJcuXbbXADhFW8s8/XR1WbNmqgmubts2X4YO7cpU2QAAAEAyQGAmhdOxIwYNelVmzx4juXPnsLdGduHCJZk+fbFcv37d3hJ/99xzl7Rr19BeAwAAAAAAsUVgJpV4+OFCMmZMH7n33rvtLZH99NNWOXDgqL2WMDJnzmgvRXb77bfLbbfdZq8BAAAAAICIbrsZx4FHdu7cJ+3b95Zz5yIPGNqzZwfp1KmZvRZmyZK18uab78h//0WerUeb2vfs2VFeeKGJvSWMzhyj77d48Vr56adf5a+/TplZh5R24cmW7V558MFc8thjZeSJJyrKAw/kjDYgoNPHzpv3nSxatFr+/POYeT39DLlyZZf69avLc881krvv9pNVqzZK584D7P8KT8deqVGjgr0Wplev98xrR5QnTw6ZOXOUBATcY28JM2HCbHnnnUn2Wni+3sebBQtWmvfXaXC9GTLkNWnRop69Fiau7x/V8WnXrpH06/eyvZZ0dEahpUt/kOXLf5QjR07I6dNn7WdcY2vcf39WqVSpjBmrJ3/+3OHSSmzTtU4p3aJFd/M+Efk6D5R28XrppYGyYcM2e0uYihVLyaefDpSMGTPYWyLT77R69c/mnNq//4i1fib0N9d0q11UypYtLtWrl5cKFUqGvlZU3y86Mflcel59991PpuvcwYPHQqdpvvPO9GZMoho1HpVmzer6nCXIU0zOIz3+kyZ9bQab1qni9X0++WSAlReUtfdOXPFJa97ob7hz514rX1rjJa+7Xe677x4pUCCP1KtXVZ58spL5rWMitnlSTM8D/X31t54zZ7kcPvyXaZHn/q3bt39G6tatYtZjIjHyeQAAACAlSLIWM8eP/y0ffDDVa1BGNW1aJ1K3GI0ZacWzWrXnzMwxX3zxjezbdzi0sK60IqAFeB3gduTIiTJgwEdy+fIV+9nItOIzdeoC6zXbyfDh401FwP16+pxWLj7++CupWfN5M+1zSqMBlKjGfdm8+fc4DwLszbZtf9hL4WlLGh2HJilpgEKDJNWru37bX3/dFa6irPS31jSkaalz5/6Rnk/ugoLOSteuw6zKaWvp23e0Sfd//33apF03rSzrd5w5c4kJmm3cuN1+JvHoYM8TJ84x55V+Lj327qCM0ud37dpvzi39fV55ZYj5LvGxY8deadToFZk0aa4Jyih9n6tX/zPLiSmh05r+fosXr5aqVdvKs8++7iOvu2F+a/3N9RhXqNBChgwZZ7opJjXNQ7755nvze2u+e/DgUevzubpJun/rnj3flYYNA81yVBIjnwcAAABSkiQJzOid0E8/nWlapnhTqNADEhjYWtKmTWtvcf3PO+9MlDfeGGEqIwlBX3PgwI9MZcaz0O+N3inu3ft9U+FKSXSGlZo1K9prkekd/kuXEqZC89tve2T27KX2WngNGtQw3auSgv6u48ZNl6effskMcOwZpEhNtILbvHk3U4lNyLGC4uvkydPSpk1PU2GO7rxS+vtoC5PWrXvIgQNH7K2xo+lYz89Tp/6xtySNxEhr586dN8G2bt1il9dpGtAgc+3aHWXr1t321sSncd3Jk+dJnz6jov29NWDzxhsj5fjxU/aW8BIjnwcAAABSmiQJzKxd+4vpauCNjokyfHj3SFM/a+VTC/8JVcnWSsyQIZ/IzJnf2luip3fhP/tslr2Wcjz0UEG5446wIJenkyc1MBN95TkqZ8+ekzlzlkmnTv1CWyp4euqpx6VHjxdM94PEphU7/V11OvDkFKxIaNr6ZMCAj+Xo0chdppykFe7nn+8j27d7bzkVFQ3Udu063Gsaio6ex3v3HrLXkkZipLXz5y/K668Pk2XL1tlbYk+DUy+/PNAESpPCL7/sMMGpmB4DbV2kAVxvLfUSOp8HAAAAUqJED8zo3fRRo6aY5u0R6ZgJHTs+KyVKhG9ZoRV/7RbhrbCu/1OwYF7T9UnHbdBHmTLFzHgOUdHuHN7GWEiNdCwGX2NPaFcyb79FVLQ7TMGCtUMf5cs3M10pzpw5Z+/hooGYjh2bysiRPUzLnaSgLQZmzfo21VfstOK+bZv3VhGa9mvVqhx6PmgXspw5s5lzJSIN2OXMmd3M4KUPX+eN/pY6Pop7P33ce69/uDE9NB0NHTrOVLy90XFGXn65pQwc+IoZn8ZboO6PPw6a3zA23eu0tcy3366115JOQqc1d2sR7Z4TXxrc0hYsmt8mNu3iGdsxir7//qdIAbjEyOcBAACAlChRAzNa2dKBOX3d2dZCtw4QGXEAx6NH/5a//gqy18JoYV1bYixZ8pkMG9ZNhgx53TxmzRotW7bMM4NYFiuW3947jFYg9a6sr4CETvusr7dx4yyrovitrFw5RVq1etprRTIl8PPLLBkyeB9wU1vLxGXg16jo4J46oPC6ddOkV6+OMR7sM750HAodX8RXRVkrcToAsaaXLVvmWr/tUvnppxkycuQbZtDTlELPIx0byBsdCHbJkvEydmz/0PNh9Og+VuV5qknPr7/eLtzvUbjwg7JgwVhZtWqKedSu/Zj9THg5c2aVr7/+IHQ/fYwe3dtKV3fae2hle4MZgDgid8B1yZJPpXv39tK6dX2ZOnWkVQkfInfdldneK8zChavMGFQxpcHFmHSZSkiJkdZ+/vk3ny0J9RhWqfKIzJjxvmzfPl927lwkK1ZMkldeae0zOKH5rK+uhQlN80YdE2z9+uny+++LZdGiT6R69UftZyM7evSkHDp03F5zSeh8HgAAAEipEjUwo9Mz++o6pBXKl15qGW5cGTedYSY4OHLwIF26dFKqVFGvM3FoYb5s2Yekd+8XI80as3v3QTMehDfalWrChCEmSKTLWuHQipTe5X///V5JFmRIyTTgpQPN1q//sowYMd7MlJMU5s5d7nOMkSJF8smCBePMrFA6hpEGqzSN6OwzjRvXMpU+bc2hU3ondzrIqa/vWbDgA5I9+732Wnjaakor8pUqlba3JBwN8GkQwFugQivoGhCKeG5XrlzGjD0U0bFjJ+M0lpMGeYYO7Wr97zzZt2+5CV5oICNv3vvtPRJOQqc17QY0d+4Kr8Fi/d8uXVrJ+PGD5JFHipv8LH36dGZGIj2un38+zOe0+Dp2T2IPaO0KnDwvb731smTNeq+VL99hjoHml48++rC9V3iahnXwXk8Jnc8DAAAAKVWi1Up1TIwxY6Z6rXhohWrEiDfMXXlvNBjibYwULdwPG/aZz64TvmzcuM3rzCVayO/T50V5+OHC9pYwWimoXbuyPPFEzKapTk60snzjhveuIVqZ8dZqISFoVwVtVfDkky+YGVti0z0ltrQbhK8uIFpZHDWqd5QVdE1jzz5b22cFNznRYKGvAKG2WNFj7qs1WGI5ePCY19l29Lxt2fJpr59Xz6kKFUrZa+Fp65HY0DQ8adLb0rx53dBucxq80EBG/vx5zHpCSYy0pkGKzZt32mvhlShR2LRG8Ra0VqVLF7W+91P2Wng6bk9ij72js77p+0cMnOjvoFOh+xJxcN+EzucBAACAlCpRAjNaH588+RuvY2JoMOSll1p4DYa45c6dXe67z99eC0+nyH366c7SuPGrsmDBSjN4ZlT0zrS2mPEmV67sVkWxpL0WmVaMnnqqqr2Wcugd8/PnvXdX0oqQr0p+QtFuJjrehXYfS6zgjK9uEKpRoydMi6zUQgMO2iLBGw3IvPvuJKlcuZX07/+h7Nnzp8/uNglJZ9vx1iUuW7b7TKsRX7TboGd3KDftyhSb6Y9ds375zkMSUmKkNe3a46tlS8OGNXyOEaU0IFKlSlmvx1G7ef3++z57LXE8+mhJn2NI6bhCMQ38JmQ+DwAAAKRkiRKY0Vk7vvpqob0WXqNGNb2OK+NJBx3V8RV80YqnFtx79HhHypVramYH0llhvAUBrly56nPWF61ERFUBUvpZEquFSWLRu/G+xpHJnj0g1l0APvtskOkq4n7s3bvMjF+i4z9oRdsbDYiNHz9bdu8+YG9JWDq7lLduEBp40i4zUaWvlEgH940qHeqxmDFjiZnGuWrVtmZQVW+txBKKr9YM2i2pSpXW4QaL9ny0bPmG1wDMjRs3YhzE04CEBkyT6jdOjLR25MhfJogSkX43X0E4T9pCJyDAe1AjsVuaZMmS0V6KTNNoTPOXhMznAQAAgJQsUQIzvmbt0AFp9U63ryb6btp1Q8dYiMmdaA0A6Ps1b95NXn11qAQFhb8LrWNhaMXKG39/P9MaITXRSot23fJF71JnzBj5TntsaEVUu2XouDyLF39mZkvxRgNiX3+9PFEqUocPhx9I1E2/m47xkdo89FAB09JMW5xFR7uMjBw5UZ54or3odMSJcfwjdktJSpr2tLVbUkmMtOarBUi6dInfoi0x+eqe5E1C5vMAAABASpYogRntyuB97IAQGT58vM8WLJ50/JmpU98xs8bEpDKqd1d14Mt27XrK8ePhB5m8lWiXkNWrN9lrkVWqVDpBWxroXfvAwNY+K2PaekrHG0L86G/WocOz8v77vX22UorozJlz8sYbI0RnRktNrQxuv/22GOUJSP7I5wEAAIBECszUq1fVdL3w5o8/DsqYMV/ItWuRm/FHpJX+jz56y7TKaNz4yRjdSdZm/OPGTTd3WKOjhfzoKqzaheHSpZiPfeEk/S5z5iw33Um8yZEjwAwcmtAefDCnz7Ei9Nhduxb9b5FQrl69luQD4SYVDc7oubV69RdmGmbtihcdTeOffjpTfv898kC9iJ/4pDVfY7RoduRr4G5P+rv62i9zZu+vnVwldj4PAAAAJHeJEpjR1hPdurU3Ywh4M3/+Slm5cqO9FjWtjGpT95Eje8jmzV+bmViefrpalIV3nabb3dRdxzvQcVW8OXTouAQHRz2opA5y6m0siORoxYr18vnnc+21yHQ8B1+/SXxcvfpfkgZflK+Zd3T8Ev39k4OoxvrQAZK1dVNcaJrWaZiXLZsga9ZMlV69OkYZpNFuhevWbbbXEoav7ic61fxPP80INyZRTB5Tp4403ys5Soy0liNHVq8tRDQQvGtX9IP3avDVV8vDggWj7xqU3MQ3nwcAAABSskTrD6CDU/oaE0PvMut0qIcP/2VviRkdD+bxxx+R0aP7mAppnTpV7GfC0xmJ3DOe3HlnOp9TIut0vzqYpC/aBWfBglX2WvKlLWVWrtwg//vfaJ938HVQzpYt61m/Rxp7S8LRWa/OnPFeSdT3S8iuU27a+sff33uXnsWL18Q56JGQTpwIMmMceaPHTJ+PDz2uOXNmk44dm8q3346XsWP7+xwgWIOQsaHByKhagxQq9KDXc1u/k69Z0FKqxEhruXJlk3vu8Z4vff/9hiiPvZ7v33671usgypkzZ5TChaMfPDg5i0s+DwAAAKRkiRaYUc88U1OqV3/UXgtPZw4aMWJ8nLsCaLClc+fm0c6YpIGBEiUK2mvhaeVz+PDPvI5VoF0FZs1aKjt27LG3JE9651wHwwwMHOxzJibVunUDM4BsQtNjN3bsV+Z4efPAAzl9dtuIjwcfzCUPP1zIXgvvzz+PSa9e70V5N13T3dSpC2I03lFUomqRtXXrbvOISAd+1ZZNCdkSS4Mk2n3wiScq2ltixtdA3FrhjSrAkj9/btPqIyL9TvrdUtP0xomR1nTw4uLFvedLP/64RaZNW+izm+WWLb/LwoXeA8Y6vldMBtNNKWKazwMAAAApWaIGZrQZ+quvtvHZYmX16p+9VkB09o2ePd+Vbdt2+xyLRv/n0KFjXsd/0cqyZ0H+kUdKmDvJ3mh3kxde6Gu6AWk3gpCQq2aK51dfHSKjR0/xGXBIStOmLZJ+/T4I9+jWbbiZlrh69efMYJhRfU6d0rdjx2cTrOWKHnutZM6Zs0waN37FZ5cdDRboLFyJMfOVpi2det1bqw3188+/SZ06HeXDD780lWdtuaK/rS7rmCs6pfQXX3xjpmmOD52ZR1tUeKMV8tdff9sE+M6ePWfef/PmnVZ6+5+sX/+rvVf09LNr5X/mzCVRthA4d+68HDvmvfVGtmz32UvhPfDA/fZSeBpgGTFigukCpZ97z54/zXFztwDSljrVq5c3yxHpd9Pv+Mcff/oMLmjgZunSH8zxSe6tHhIjrek58eyztb0Omq3n8nvvfW6Crb/+usu8nuaD2urpgw+mWufyW16DsPr5WrV6OlECoYkhofN5AAAAIKW6zSr4Rj/SpBc7d+6T9u17e60g9OzZQTp1amavibmD/s47E70GDzRoM378YHn44cL2FpFVqzZK584DzLK2eNFuUaVKFZF06e4w23RME60M+epCoK10dDBJd0BAC/09erxjpg5OSJ99Nkhq1Khgr4XRSvS8ed/Za2F0/I2ZM0dJQMA99pYwEybMto7RJHst4ZQsWUQ+/rifZM/uvWLulhjvX6pUUet1B8vdd/vZWxKWBj40QKVdP+LC2+8Rm3Ttpq0X3nhjpL0WfxUrlrIq9ANDx1zRivlLLw2UDRtc06Dr8dTWTzr1uduRIydMJd5bCzSt/E+cONTMyBWRjtOhFf2YtN6J+Ln27TtsHas+curUP2bdm0yZMkTqsqNBGfdMXVGdE3E5jxJLYqS1+L5mRDqG1McfvxX6+3iK7bGMy3mggoLOSIsW3U16jCji/yV0Pg8AAACkVInaYsatadM68sgjxe218LTlxZAhn/icUlln3dABeLVSMXPmt+ahy74K63oHNTCwVbjCunbXePHFZj5b7kQlKSt/CU3HaZg0aWi0QZnEoMe6X7+XEy0oo7Qlw1tvdXG860a5ciV8DhDriwYiixSJ21ggeq5oqxT3+aAPDbB4C8oobbVUvnwJey087fqiXXXiomDBvNK/fxfzO/iigxwfPXoi3CMlTp+eGGktIV9TX2PIkNe9BmVSgoTI5wEAAICUKkkCM9q0/s03O/hsdq5N2ceOne6z20NM6d15rZx4tr5xK1asgAwe/JrZJ6a0C1DPnh3ttZRDv2OvXp1Mi5677spib006WbPeawbu9PY7JLScObPK5MnDTcsgp2hXpm7dnosyQOFJK9HDh3cXf//EC1q5aXCuT58XfY4lo9Oct2nTwGc3nejouDY6K1RMv3tKlhhpLSFeU/9XW0Tpa90KosrnAQAAgJQoSQIzSgvROgCtL3qHVMd5iSvtNvP11x9K3bqP+xxLRSuRU6e+E+XUwkorqfXqVZUPPugrfn4pY7wG5eeX2bQM0plMdEwZX5XxxKLdEdq1ayjLl0803V6SirYImjbtHRMgiE3gTVsX3H57wpwCmrZ69+4U7ftryzGtROusPInJFZzraM/UFHVwrlmzutKjxwvm94stPdc0sPPNNx+bczA29DzLmzdnimr1kBhpLew1O5lzOKZ0X/0f/V8d8+dWEJN8HgAAAEhpkiwwo4Xo559/xmflTbthjBnzhegsP1WrlpeVK6eYO/3aakVnMPG8I68VOh3MtEyZYmYfDUTMnj06Rl0CdHaVJUs+Na1JqlYtF66rjbYeePrp6jJr1mjT4sOJ1iYx5XkMXnmltcyb95H8/PMs0zIpMbsPedKK/P33ZzWVpA8//J/88ssc6devi8+BlhOTpg+dNvqnn2aYz6KfSY+PZ0sQrUhrt53GjWvJ5MnD5JtvPopT9zZvNH23bl1fvvvuc+nSpaUJ/rkDHfq+5cs/LBMmDLEq0e/GuhKtlXod22XSpLelRYt6pguRplVPnt9N9/v559nmeMSkJYseI9136dLxZkp1/Xzu46bfQcch0eDLsGHdfHaV0XNPz8EVKybJyy+3NDMORQxcuD9jw4ZPyHvv9ZQff5wun3/+dqyCEclBYqQ112s+a15Tfz/9P53RzPP302Xd5n5NPd/1f2LyGydHiZnPAwAAAClJnAf/vVV4DlAZka/BfwEAAAAAAGIiyVrMAAAAAAAAIDwCMwAAAAAAAA4hMAMAAAAAAOAQxpiJBmPMJIygoDPSokV3OXLkhL0lbnS2Jx0I19cgtMDOnfukffvecu7cBXtL3DRu/KSMHNnDXgMAAACAxEGLGQAAAAAAAIfQYiYatJhJGMHBF2T8+Nly7tx5e0vc5M2bU9q2bSDp06eztwDhHT/+t0ye/I2EhITYW+Lm4YcLS9Omdew1AAAAAEgcBGaiQWAGAAAAAAAkFroyAQAAAAAAOITADAAAAAAAgEPoygQAAAAAAOAQWswAAAAAAAA4hMAMAAAAAACAQwjMAAAAAAAAOITADAAAAAAAgEMIzAAAAAAAADiEwAwAAAAAAIBDCMwAAAAAAAA4hMAMAAAAAACAQwjMAAAAAAAAOITADAAAAAAAgEMIzAAAAAAAADiEwAwAAAAAAIBDCMwAAAAAAAA4hMAMAAAAAACAQwjMAAAAAAAAOITADAAAAAAAgEMIzAAAAAAAADiEwAwAAAAAAIBDCMwAAAAAAAA4hMAMAAAAAACAQwjMAAAAAAAAOITADAAAAAAAgEMIzAAAAAAAADiEwAwAAAAAAIBDCMwAAAAAAAA4hMAMAAAAAACAQwjMAAAAAAAAOITADAAAAAAAgEMIzAAAAAAAADiEwAwAAAAAAIBDCMwAAAAAAAA4hMAMAAAAAACAQwjMAAAAAAAAOITADAAAAAAAgEMIzAAAAAAAADiEwAwAAAAAAIBDCMwAAAAAAAA4hMAMAAAAAACAQwjMAAAAAAAAOITADAAAAAAAgEMIzAAAAAAAADiEwAwAAAAAAIBDCMwAAAAAAAA4hMAMAAAAAACAQwjMAAAAAAAAOITADAAAAAAAgEMIzAAAAAAAADiEwAwAAAAAAIBDCMwAAAAAAAA4hMAMAAAAAACAQwjMAAAAAAAAOITADAAAAAAAgEMIzAAAAAAAADiEwAwAAAAAAIBDCMwAAAAAAAA4hMAMAAAAAACAQwjMAAAAAAAAOITADAAAAAAAgEMIzAAAAAAAADiEwAwAAAAAAIBDCMwAAAAAAAA4hMAMAAAAAACAQwjMAAAAAAAAOITADAAAAAAAgEMIzAAAAAAAADgkWQVm/vrrlGzcsF0uXbpsbwEAwLurV/+TX3/dJQcOHJWbN2/aW5FUOP7AreXGjRuyc+c+89BlpBz//POvbNy43fy91ZGOkVylGWixl5PMvn2H5bVXh8nyZT9KpcqlJWPGO+XcufMyeNAnsnTpD3Lx4mV55JHi9t6IDc1wu74+XGbOXCoPP1xI7r33bvsZAJ5aTVsrz36xWtLefrs8nj+7vdW74+cuycPvzZeBy7dJjYI5JOddmexn4KTly9bL6NFfmMJm2UcekrvuymI/g6TA8XfOmTPnZMKEr2WMdfy/mrZYTp8+K+XLP2w/CySObVt3y5DBn8qaNb9IoUJ5JUeOAPsZJGcaRB/1/hSZ+/UKOXLkhFSqVFrSpEljP3vrIR0jubrtZhxuc2mrlpEjJ9pr4RUtml/69X9ZMmRIb2+JTAMzAweMlUyZMsjwEd1M8ODatevy2aezZP36XyXwlVZSuXIZs69mJt8u+UF++mmrvNi5mRQokMdsvxXNmb1cpk9fbK+FV6VKWen+RnsTmOnTe7QJbg0cFCgFC+a194CbRsd/+mmbLJi/Ug4f/kv++++a3G5VzrNmvUfatmtoXbBKmf30LrBexDSdapqEczYdCZJan62Qc1eu2lu8a1k6n0xvU9Vei5oGZmZsPShD6pSRt54saW/1TgMzlT9aIv9eviorOteS8nluvYu4t3xfz5ucObPKs01ry2OPlTHrSWnv3kMy7O3x8sAD98ubPTuYczUmnLiunD9/Ub6Z973s3n1Aerz5QqoImsf1+Kcm3q7Ld9yRVh7Ml0vatK4vxUsUlNtuu81+JmFo+h0xYqJs/XWX3HlnOsmSJZOULFmE61Qqpr/5iuXrZcWK9XL8+ClTjtF0phXKV15tHaey3pYtv8uCBaukTOli0uiZJ+ytLr7KP3///Y+8PfRTs/y/t16SbNnuNcuIGf3dfvttr7kW7N37p1yxyjSaP9xzz12mHN+yVT1Jl+6O0OttdHUqd/7jrgP4olU9fc8ZM5ZIy5b15JnGNRM8X3KLKl0lNV+fhXSM5CpepWi9KNx3n78EBIQ97r47S5xO9rRp05jMf/qM90KDMkoLs99++4O5ENFU2kULYp7HXB9Z/LiDHxMaABz78XR5/73Jsn//EbNN03C6dGnl5MnTcvzY32ab+nXLLtmwYZuEhEQdDEDiS5cmjeS6O6Pk8c9kHvdlutNsT2/lG7nvdm3Tx72ZfAeEkTA88309b44ePSljRk+Vzz6dLdevX7f3ShqFCj0gU74YJgMHvRKroIAT1xXNX5ZbFat//jlnb0n54nr8UyP3dVnPDbV3zyEZOHCsLJi/yqwnJE1LB6zrV/r06UylYvyEwQRlUjG90TZ40DiZNGmuyW8133WnM2398M/puHVNWbvmF9nx215zcyoiX+UfrcB++NH/zIPKbOzodWfE8AkyyMoXfvttjwnKKL0G6U3V9eu3mn0Sg9bLGjd5UuZ8Pcb8TaygjIoqXSU1X5+FdIzkKl6BmQIF8ppErYUC96Nnrw6mgILEU65ciXDHXB+dOjW1n0VUdlgXw7VrN5vK5Wuvt5WZs96XCRMHm4DggIGBcu99dP1KjkrlvEd2vvmMHH6rmXl81rSS2V4u933ye8+w7R89U8FsR+LxzPe/mv6utGz5lNn+ww+bTQsK4Fbkvi7r9WTaV+9I9erlzd3xJUvWmkBKQtLKst5k0K4IGpxB6qaVy99/329aRg0Z+popr2g60/LLa6+1kQwZXTcqkHxpcG3kiInyyy87TR1JW8ZoPvHN/I9k3jcfythx/eSRRx5K8lanAJKXeHVlikm3pWPHTsqkiXPNReX69RtW4aW4VLMKLB99+JW5w+buyqS0/+O6dVukVaunpWmz2j677rifV1rw+fHHX+XrOctDm3fe7e8n9epVlQYNqpsmgW7u19cMMVPGDOa1H3wwl7zV7+UUEUyKSZPFqLoyBQWdNc0YN/38m3legxP5C+SRl15qLnnz3m/20Tsk777zuWmGPWjQK5I5c0azfdWqn63fbJoULvyg9B/QxYwLpD784EtZvXqTvGoVDmrUeNRsS87mzftOvpy6MNL38OQ+hkFBZ+wtLgEB94Sm1+jSkg5gPWvmUnNs9A6IFqgaNKwRLk1qWtWLtH6mPw8eMxF9/d/qNSpIu3YNrGXXeeX5m/bq3UE2bvxNVq/aKFevXpMKFR6Wl15uYf53woQ5smXz7+Z/dKyBzi81M+/rpufg1KkLQt9Ln9PmrM88U9PeI+WYt+OwNJmySh57MJt82+lJyZLedUw1N9tw+JQMXrFNfvzzb7loHSNtVVOvaC75qHEFud/PlZ6VZ1emig9klde+2Sh/nDonmdOnlVcqF5W3niwlGe5w9cGOqivTkbMXpf9yKw/afsi8X667MsnbT5WR1mXyS5rbXXelLoT8JwOWb5Xpvx6Uk+cvm+0V8gbI1JaPS757U8a4HL7y/QsXLsmAAR/LwQNHpa2Vbhs3ftJsd+c3G37aau4M6nnTuk19qVr1kdDCp2e31h49npfJk+eZbT17dbTScAkzjsa0aYvC5VllyhQzTfc1b/LWLVZFldZjcl2Jyfnr+d59//eiLF60xgSn3Nc57SKlzdOVO7+IqJf1PStU9N2NTivf2rJn4YJVJh/QFqnPP99Yftm8U370uFYq9/eK+Pu4P6fyvCbopX/njn3y5ZcLTbcFpX3tNT9xXw9UVHnd0aMnvB7/mL52dL9vSuDrunziRJD8r+8Y+fff89K7TyeTnmN6XDxf8zHr8cm4GZI+fXpzjCd/Pi/KtOR+j2lfLQpN//r7PP74I9KmbX3rmhfWsimq8y9//tzxvu7oZ9mz55DMnrXUdOHTfEB/Yx2PSG8muc8P5ZnOHnggp/meGtByp/kqj5cNd5c/4rHU66l+D933iZquAH1Mj3dy5y5naWvyN3q0j7a1Q3T5l/t3jzjRhuYdga+0lEEDx/ks/yhvZUzPNKvv9eknM+Wglf40H2rSpJbZpi3j3a5cCbGuD9/K99/9ZH2OK6ZLbJu2Day8brVJK555o3tfzV//PRtsrh+FCj8gXbu2lWzZ7jP7JHcaoNW6kOZrmh8UK5bffsa7hO7KpLztG5vrmIoqz9Y8z1e60u+g9cHo8htNdxGvi+68IeJ31O59y5auk4ULV5vro54XOXNmM/nV5cshUX4W3e4tHauY1JVUQh67lHK9Q+JL1NCsNrHs3+8j2bbtD0mT5nar0HaXGQH744++ilH3kLwP3G8uRFpB1TtDejHXyr9uV1po/WTcTNOMXoMyegHX5p0XrYrCV1bi16afmvgj+n3nfnNy6MXgxo2b5uKd2umd7Dd7vGsVrH4269rkOkOGO+WP3QfNdg1uKS0Q6XE8bWVMmokoPT7bt/9hljXj1UEGlVbIDlu/sZ9f5hQz9s+D1vfTtHTw4FFZZ2WgWpiLSO9AVqxUylQ+lDZz1HSn2yLenfSWlrTvau9eo2SRlUlrRUUvJpr+NU3qOEqabtVZq4ChF+pTp86YtK0ZtGboS62KmG6P2C1E18ePnyPrrd/KXbjWsXI+/GCavPvOJNn1+wFTANPX0LGapn25KDRt68wp2nx2/74jpsVDtWrlzcVEC+6pyQXrQt1r8Wb5+UiQVM2fXRqXyCvp095uAjltvvpBzof8Z+8Z5vt9f5kgjwZdAjLfKRdCrsmwlb9Jj0WbrONn7+SDvk+5MQtl2pYDUjrnveb9gq287fmZP8qIVb+Z/7/833VpOnW1jFr7u+jL6Tg4tQrllH1BwXL64hXXC6Vg5q59Otd5cf2a63xy5zd6p/fBB3ObQtbly1dMcHfe3O9C06XbtWvXZOLEr+WPP/406feG9dAC+MABH5s8S9O1pllNu4cO/RXl9SO6tB7ddSWm56+bXmPcd0LdFdKfrYLXxx9PNwVH9dBDBcz76Pvp++r763sGZL3HPO+NHqMpk78xD82LNV/WCsknn8ww3QziQ19bxxvQrjbHj/8t5R8tYYLVe/celn5vfWhVpv+09wwT0+tmTF87rr9vSqEV4LRp05rjoek5LsdcZ6qcYOX5GtzRa5U+PNOSZ/rVtOT5Hvus19V0r9d6vXYstSowPaxzUtN3RN7OP7f4XHc0EDP1iwUmP3jooYImH9DKiFY6ddBirTxFpO/zwZip5jzTz6/f/eOPv5KtW3fbe7jSmI5/ogFhrRxppcZdpnF3BYnL8U6u9LxQ2v1Fz3338fUmJvmXn18mE6hzd+HQso6moTJli5nfOKblH2/0uA4d8qkp32i60PxC843ly3+093BVqN9553MTcNY0opVXzUf1dz90KHyZxHNf64ub71OqVBE58VeQBAcnTrefhKbfTQeZ1d+tZs2KUrRoPvuZ5CMm17Ho8uyo0pWmQbeo8puY0s+rdbzJ1vVR05qmofvuu9s6xjdMmorpZ4kopnUlTwlx7AC3tPbfONGodquWPew1l1b2HTy9mM+a+a05YbQg0afvi+Yiq4lUx/jQqGJ09A6TRlH1RNGE37x53XBRzW3bdps7AhEj0BqkGTL4E9m164CVGW4yrWc86d3UVq3rSaNGT9wSzQb1mOusDTrzlTav1rtFWmjUQp7eVZk9e5m5o1Xc+p30Qq4RYQ2m6d3QPHlyWBe/C3LwwDET9NKotBZydLtWFjSAoxFqvZuSEpR4uLC5Y68tgD61CinLlv0oLVo+ZaLb7rSg6en5558xdxf+/POYGUdBWwR5EzEt6YX3y6krTT/whg1rSLvnGprtf/99Wgb0H2sKtDWf1AtzflPI6RLY0sye5X7vH9Zulg+tyqsefz133P3IlWbeuaxj3WPMC+bCMsf63fQu0ubNO805Nu6T/uYc07sHerdx+/Y9plDr7+9n7q7r3U29Y9be+m56Z0F/fw2epiY6w9L/apY0QRl3a5efDp2SpyZ8J1uOnZbfT/5rWqp42nnyrCzqUFOq5Mum5T75cst+6Th7vczZfkherlREimcP+w08acBl4PKtcvpiiHz6bCXp+Ggh67iGvd9nG/ZIi9L5TMDn58NBki1LBlnbpa4Uzuq6g/JX8CVJE82dz5RA8xW9y6VpKlfubCa/0VnhNN942cprNL3rc1oI03xZx1nRVgDZs4fd6dS0rgHeTz8bYBWkXNs3bdohx479bYLFgwa/Yp5Xehfd865/RNGl9aiuK3r+6qDgMTl/3fTOW7Xq5cyder0j7D6HdQwQ/ayaV9au85jks95z966D5hx9/oVnTF4blT/+OCgrV240r6ndLnVwZaV5jg64Gx866LnmExrs0S6c+hn1u7vzFK0E6Z1Jrfi7xfS6GdPX3mtVqOPy+6YUp079Y4IE+l20i2xcjrm28qhTp4pJL+6WWp5pSXmm30OHjst8K/3q9eGVV1qHtjLRz/H20M9MpVnTd6cXm5rtbt7OP73Wq/hcd3T/pk1ryUPFC4Z+fnc+oN/tqHVOassHT5pvDBnymvmOen4OHfKJ+R/ND/Tmhdq5c7/MnfudOTe05Y07j/EUl+OdXFWtVs4MVK7n4NtvfybFixewzsX6Utg6dp7fOzb5l7Zs0pYIGsipWLFUaMs7FVX5J7pKpAZLunZrJ48++rAJAn300TSTJ262Kq1PPlnJpAP9LjorjlZQ//dWZxMw08+uwQutH3jS77LPyqv1dxz6dlfTskZp+TOqfCg50XPplHWctcyngYGIaTU5iMl1LLo8W1v1RJWu3KLKb2JC04oGZvV80P/X1ir6+SKKyWfxFJu6kvbMcEuIYwe4xStX0zsfWnHUiKL7kdEelFMvzDq4qmZEWvHVC7fSRK6BEm9dSGJDT0xt2qYBoCeeqBCuWaBm3LpN99GLgTti6aaFiaefrpZiMvWI9Hs/0+jVcA+9A+WLFlD0t9CCUtNmdUILSPr9a9WubGYj+uuvIHMR1ueKFStgnt+xY5/5qxdGbSWjsxVpxquDGioN0GiBTwsHvppZJjeaaeogiVrR0QCMFmR1MLbALkNCv1dsRExLWljQUeA1061hpUH3dr14aBNqbZK7e7erQK3vr3d+PNNhQWsfjfTrXSa9eHnSAmRt6/fS76AX9tJWIVUzdN2uo827zzG9G6PbL168FNrqKZ19p0sro6ftgQL1ffUikZpoMKZOkZyhQRlVJOtdkv++LBJ85T8TDImoSYkHTJcopeWlp4vllhI5/CXowhXZddJ3YWHHiTOy4VCQCbQ0LJ7H/K/S/9WHdn/6/eRZ02InrVVB0QDN6v0n5PoN191O7ValwZqUSvNX9x19zR9y5comRYvkM/nNHqsipQFbvUvtLoRqwFcfWgCLGBDUNKzdLNyFNHWHlc41jer+evdf309pQCeq/CY+aT0256+b5quaB+h5qR6yKk3uO8D/2K0L42Lnjv3m/UqXLmoVKsOadRcp8qCpmMXHL5t2msJnufIlQgu0nnnKgQPHIt2Njul1M6avHdffN7nTQrwGHcZ/Nsf8foWt30vTfVyOuZZlmjUPu2ZHR99Dr8maZio/Vjr03NMKcMNGNcy6Xtc1+OHJ2/nnFq/rjvW5dX/Pz6/5RPYc95lrnHs/T3onWYMySl+7TJmHzPLfVgXGXZbTljl6bKtXf9RrUEbF5XgnV3octOt169ZPW2XqO8xv2Kf3KNMyRoMubnHJvxKa3mjSsVKUppmKFVyzXGperK0m1W/b95jzXcvpGpRR+ttoMCdi62utZ+j30Px054695vxSmsdqsCYl0GCWBqn0nIlJqyMnxOQ6llB5dlT5TUxo/qWtU/R1OnZqEnp+x1ds6kqekvLYIfWLuoQVDW2GFXHwX3frFL1AXLhw2RQIPO+MqtvMuAuRL6SxoU3Vgk65Erw7Y/eUO3d28zck5D/TVM5TcY+7NymRjkPiGQzTh16sfdER+zWimz17gHUhC4vyKi2g3Huvq6mzHitVtFg+c/E4cviEaWqsd+Y046hYqbSV2dxtmg7r8ddAhmY0eiFOSfQzazRcB897rn0jc3HXqPWAAR9FGeDyJmJacqd7vXC8/tqwcMEz97gA7u4eSlsaaNcObfrbqWN/8z8RAzJu+ptktptJKs34tcCm2++6K6yA4t6u3Q3chRgtWGs60TuPL3UeaAp1uuy+OKQm2j3o05/+MN2T8g/7WvIMmS2/HovcfN9NZ3XyLNf7W2m9wH2u82RvkPffQh07d8lM3737738l24AZctsbk83Dr+80M77NDevYXrN+g8IBd0mbMvnlPysfennuBsk2cIb0X7Y12qm/kyt3S8nGz7xmApradUjTn/aT1rtI7vxG+5O3f65vaPrX/9H/1TQXsemypll303m3IkXzmwK+VjSHDnWdH9raJmKgPaL4pPXYnr9Ku6t4u5545qlxoS0WlY73pQVQt4Qo3Ltfe/myH8N9x55vvmd+O8033HmHW0yvmzF97bj+vsmV+4ZJk8avS4833jFBfy2HdO7czBy3uBzzfPlym0J/TLnfQ8tmnmlG6U00bZLvriR68nb+ucXnuqP0XNLvrONlvNR5kPU79zPjUfmiZRJv3GU5LZNo2UQ9XFJbKXovS8bleCdnmoaebVpbPhs/yLQG1JubGnzu1XOUCQSquORfCU3TRcS0p9zpTn+/kydd1+MCBcMHYfS31PKZJw1OVqtWzvyvtnLWa8qM6UvMb5jy3JSb9o2Z5CYm17GEyrOjym9iQrv/a1rXvDEhby7Gtq7klpTHDqlfvAIzMaEZra8LJ+LG26xMehcooWhhUrsmnTwZJP/8c1b27z9s7vjlsyoI+fLnMnfJ9aEBGh03KI/1XEqkYz1os/xPPh1guglosGnuvO9MlDu+PMeRiPhwj2WhfVW1YvvVV4tNs3et+DzT+MnQPqoJSS+CYz7oY+64aYscraj27TPaNAdNTcGZDYdOSZGR8yRw3kb59fg/8mieAOn6+ENSKCDmlZsrVgFQW7eouzNEXwHOmvlO0YF+25crGOmR1z+z3JHmdnm/QXlZ98pTUrPQ/ea1h3y3TcqNXiR/njlvv0rK4dlSskDBvCa4Oe6TfqbJuyettD1e9RGv50BUY6u4aTC4Z68Oppuqdj3SgpgOKOlr7DC3hEjrMTl/k0qa2yNXcrxJkzb2l3M9Vt6+Y0zHk4hKdK8d1983ufK8YaKti3S2nPfe7ynuMQ7cEvOYJzfadeqVwKHy2WezTTBGW208Xb+63H+/qztKfMXk3Ehtx1tbwzz/QmP56OO3TOs5bRU0b+4KUwl0S075V1Ri8vtpkEe7pA4b3k1Klixs8gbtUuJrvKTkSK+XWq7TVmJ/pKCxjSJKzDxbA3IRg3LRSUn1y9R2vUPiSbTAjF7wtFmXJjhNgJ70QhJdP9XoaCFIo67K2yBu2v1GZcmSUdKli9dQOimeHie9u6KBln//Dd8CQKPDGnzR3yuzdayUXvg1AKPd0Xb8ttfc+dPuTRoRLlzoQdHmv3rnW4MzGq1OKc1JfXEXYtQ56ztrc9+40u5J2npJLzDadFz7Zkd86BgXel4sWLDK3AXScWa05dnrXduaO0Pu5pAJTSP+esdt0udD5cUXm5rPqDO+aGuh1EBbpOgAu/9cDJEe1YrLwb5NZXqbqtK96kOSOYoWZRFbrvx7OUQOn71gAiruljPe3JMxvWS08hZ9jHi6rExu8VikR9lcrkqZlh0qPZBVvutc23wuneZ73+lgGbfeNah2SuLZUvLdd3uY4KbnXW7NRzQ/0fOgXbuGXs8BLZjEhKZRbd6uFdx333vTBIy1X7kOrBeVuKb1mJ6/SSFjJtcxPXb8ZLiAkt5h07tuEd2fw1XZ1VYAnvu77tCGD0i5x7fJnSe7aekU8TvqGBN6LOIiNq8d1983OfK8YTL07delulUJ9ryLmpjH3O1+e/wNvZniWVFX2t1Qu5Jk8ctkzs/Epu+v47hoWtU84tPPBpoxXXTskzutSkpcaXlOy3XK3QLPm6Q43k7Scp27m9fZs+etfOFassq/fNFxh9wtvN3ldDctewUHR75ZoZVvDUINHPSKSUd6Q0AH/9UZeVICLSNrUEl9u+QHMw5mSpVYebaWw911uus3wvIuPb+1FZ4ndzrXlmHHIqSh+IhtXSm2UtP1Dokn0QIz2n1JK+2amHUKMXdzLa2Qzv9mZaRCQ3Q0kKMBHTfNqB8p95D5qwMk6kC/bhowWL3mZ/Oc3hXx1qzyVpIzVzarwJbNdJHRge/cv4UW4Fd+v8FMDZc7Tw5zZ0npcStZsojJENes/cU0jdXuTUrHQNGMSQdv1gCN7peSjq/OeKRNmz2DL3o8Nm1yZYz63SIGRs6duxB6zKKjfVC1r72me30vz//TbYsWrTZNefX9NQikGfVdd7kGAdPjrTNSaEAsoWlwzd1sW9+zaLH85gKkTcN1oNTUQFu66FTUKrtfBisdm0X5bu9fZtBfX3TGpj2nXMFjHf9lwsa9ZsakfPdahan7vQ/8q0rdf488lO1uM1325z/vCx07Rum2D9btMst/W5/Jc2wb7TqlMzipC1ZhOrXRfETzE81XNH/x7C6g2/R6EBNakfQMQGhLvhw5XAM3X7HOIV9ik9YjXldiev7Gh5773gIrEWmzZ81bN//ye7jrmw6CqoW5iNwBMa3suMfw0cCvzoaid2o96dg/WhDe+uvucGNOaB6kUx/r7IlxFdPXjuvvm1Il5jF308qfeY+tu61ryVbz2kqP85LFa826jj+TFAEJDRRowEBpF0ctVygzsUA8Bp3Xc0LLdfp6OvmDDiLrpuOt6NgTKimOd1LRGZV04F7PLmj6m7pny9RKqgY84pp/6bnoTisRxab8ExMarHSPY6hld3eQQvPs71asN2N4eNLykOfNXZ15J59dVr0cj5toSUnTat2nqphWpJpGdRp9LUO7j6t+dx23RGeZ9dWVPTmIbZ4dVbqKyDPgqtc4d1rX7no6G5kndzrX6/fMmd+Gpg99r+1W/qLdqCOKyWeJbV0pNm616x3iLl5NSfSuzGuvvh1aAVLah1lHZNeEW6fuY+aOhmZAOiCZFo41Yd57n46JErM7Ntr8TxOvjsXx/nuTzboOstSgYQ157LGypkWHzrCj0x9qVFoL4lrQ1gK4NtvUfW512u+7Y8cmZlYGLchopqe/hfZ91IizHlN9Xvdz0wHYtOWMjiOTK1d2k4kozRA1qqzb9a60BmpSEg0yTZ++2DSt1oCIphe98GvGq100mreoG9pv/sF8OU0hcMeOvdL5xQEmuq2zi0XV51/317Spg/O5j3WRIq6g1u+/77POi9xSs2Ylc8zz5NXK6xkZPeoLedgqUJ88cdp8Di00RxwXKb50HBv9HiVKuMYD0mU9F/UcSahm5U7LYhVOS+e8x4zv0mfJFvluz19meuyj/16UnHdllIP/eA946aDApUctkPsy3WlmWtIxatKnTSODapeWHH6+KzDazemNasXluRnrZMDyrfLJT3+YVjE6S5NOo61TZ0sVMa1v6k74Toplu9u0wNl/Olg2HD4l92ZKL+3Khg1anlpoPqJ3xT/84Esz+8nSZT+au53ngy+aQlaFCmED2UZFp7seNWqKSbOatx88eMwMzpfj/gAzRbAvMUnrUV1XYnL+xoU2Z/f3z2IqIm/97wNzrXzppeY+v4tOL1ysWD7zWfr3+8gcA80f9O6h5kHaz96TOyC2f99ha/8PTT6mBcvbzR3q8NfbggUfMIO5u6+dOo6D3kjRsSpOnAiSnj072HvGXkxfO66/b0qVmMfcTdNqkyZPWte4JTJmzFSZPHmeua5p+teuutrF6plnatp7Jy5tuq/dn7UMOO3LhabCpEEBraDoWHWeg9bGlmfZb8iQT821XMd50LJf06Z1zCyLSXG8k4p22fn66xWmvOLOBzRgohVNzbt0gg1366zY5F/a8kTHnvneqnTqLFu63rVrO/Pb+Sr/JITqNcrL2rWbTF7YrevwcHmV5m3uirbSPFq7e+TOncPKs++zfrvTppW8fm8dKzCl0LTXq3cHGTlikkmnWu6LSI+xDvbtyVs9S8+f3r07hpsZKCnENM/2la6i4g64amBVZzXatvUPk6b1RkbEm6W6b7vnGsmfh46HjiWnaUin4daAjg6U7RabzxKXulJM3WrXO8RdvFrMaPBDL7IaRXQ/dOR1d6RTC+A93nzBtJ7RljL60MKvTqGqJ1ZM6ImpU/5pYEBPDq1EZ7BOFKUnq3uGHY2ia5RTR7zWzK1b9+fMc4nVLSSl0QGS3x/VyxRUtLWS/lZXr141za11e8QBlPUY6qwqSrs1aZBGubs5KZ1ZwR3xTSl0LJknalYwwSUt2GgBQAshehdRm5+7p6RVpUoVlfr1q5m7UZru9K6H3pWKjh7LYcO7mhmXtLChQUktFLmnqNT303TdpUtL06xRC8x6B0+P56uvtjZ3+RKaewBRHddGH/r+2pS7s1UxTE3nyLCnykqXykXM8oq9x80AvLPbVTMzIPmiU2L3r1XKdGk6cynEjEej/9OsZORBxSNqXupBWf5iLSmfx6rkX7xiWt/8duKMtCj9oIyo94jZRwM+OuX21uP/yJRf9pm/NQveL6tfrisVH0gdQbGI9DzSKWp1Gt9g6zzTQbW1JYtOk922XUN7r6jpFMOav2jFQCtXWkCvZhXEBw16NdK4HZ5iktajuq7E5PyNC61waGFSu1jotVDvYLtnkPJG30f7o+v0yJrv6PVN/7df/5e9DnivhcUePdqbGQo1sKuFfy0EvmJdByNeb/U4vGzlPzpWhX4ubWWjx0oLtu3bNzJTusZVTF87rr9vSpWYx9xNr1FNnq1lKiY6Lpy2atVrfaZMGc05oNvjUqmIK515pW7dKmZZW8rcvHlD3uz5grn+xofnsdTX0vNX03v+Anmsyp0r8JsUxzupPG2VQ3S6X71po2UW/b5aSdQxvEaOfCNcfhCb/EtnRdK82p2/6OyB7jJOXMs/MaFBas3HdGxEzav0O+lv19/aFnGmHh0nTNPyn38eNfmE/tWWYUOGvuY1H0zO9DfQ8dgaN3nS3OTUY6p0aAb9Lh2sSr+mVU/e6ll6vK7fSNxBnL2JaZ4dVbqKyuOPP2LGE9K0rYEQDTxqPa64fZPFk77f0KGuLqP62nqM9FhVsV7DfSNZxfaz6O8Qm7pSTN1q1zvE3W1Wwo+6bRcAAEg2Rr0/xdwFbNXqaWnarLa9FQBSLr2xqgO1602zt/q9ZCZEAIBbScKEvwEAAAAgCtqd7Jtvvjctetx0WcfS0S6acR3HAwBSOgIzAAAAABKdjpHz9ZwV8ly73vJip/7mocs6roeOXdiied0k7XIHAMkFgRkAAAAAiU7HAHnqqSpmzEIdl1LH8dBxsHTMnBEjuzMYKoBbFmPMAAAAAAAAOIQWMwAAAAAAAA4hMAMAAAAAAOAQAjMAAAAAAAAOITADAAAAAADgEAIzAAAAAAAADiEwAwAAAAAA4BACMwAAAAAAAA4hMAMAAAAAAOAQAjMAAAAAAAAOITADAAAAAADgEAIzAAAAAAAADrntpsVejpHDh0/aSwAAAAAAAKlP3rzZ7aXER2AGQIrwwIdL7aXU59Brde2l5Gnjxu32EpA0KlQoaS8BAAA4IykDM3RlAgAAAAAAcAiBGQAAAAAAAIcQmAEAAAAAAHBIrMeYAQAn3PbGZHsp9bn5/vP2UvI0a9ZyewlIGs2b17aXAAAAUj8CMwAAAAAAAA6hKxMAAAAAAIBDCMwAAAAAAAA4hMAMAAAAAACAQwjMAAAAAAAAOITADAAAAAAAgEMIzAAAAAAAADiEwAwAAAAAAIBDCMwAAAAAAAA4hMAMAAAAAACAQwjMAAAAAAAAOITADAAAAAAAgEMIzAAAAAAAADiEwAwAAAAAAIBDCMwAAAAAAAA4hMAMAAAAAACAQwjMAAAAAAAAOITADAAAAAAAgEMIzAAAAAAAADiEwAwAAAAAAIBDCMwAAAAAAAA4hMAMAAAAAACAQwjMAAAAAAAAOITADAAAAAAAgEMIzAAAAAAAADiEwAwAAAAAAIBDCMwAAAAAAAA4hMAMAAAAAACAQwjMAAAAAAAAOITADAAAAAAAgEMIzAAAAAAAADiEwAwAAAAAAIBDCMwAAAAAAAA4hMAMAAAAAACAQwjMAAAAAAAAOITADAAAAAAAgEMIzAAAAAAAADiEwAwAAAAAAIBDCMwAAAAAAAA4hMAMAAAAAACAQwjMAAAAAAAAOITADAAAAAAAgEMIzAAAAAAAADjktpsWezlWzpw5J3v2HJa///5HQkKu2lsBAMlN+vTpJFu2e6Vw4bxyzz132VsBAAAAJAdxCsz8+edx2bJllxQtmk9y5coud96Zzn4GAJDcXLlyVY4dOym7dx+UsmWLyYMP5rSfAQAAAOC0WAdmtKXMqlWbpEqVsnL33VnsrQCA5O7ff8/LunVbpEaN8rScAQAAAJKJWI8xo92XtKUMQRkASFk039b8W/NxAAAAAMlDrAMzOqaMdl8CAKQ8mn9rPg4AAAAgeYh1YEYH+mVMGQBImTT/ZsB2AAAAIPlgumwAAAAAAACHEJgBAAAAAABwCIEZAAAAAAAAhxCYAQAAAAAAcAiBGQAAAAAAAIcQmAEAAAAAAHDIbTct9nKMzJq1XBo1qmGvxd+lS1dk6dIfZO/ew3Ls6Am5ePGS5Mlzv+TLl1uq13hU8ua9394TAJAQ5s9fJc2b17bXAAAAADjJ0RYzv/76u3TrOlzmzF4m27ftln/++VeuXLkqe/cekmXL1knvXu/L9K8Wy/Xr1+3/AAAAAAAASD0cC8xoIOadkZPk3LnzkiFDeqlWvbz0699F+g/oIh06NpHsOe4TbcyzcOEqmTRprv1fAAAAAAAAqYcjgZmQkKsyduxMs/zggznl47H95aWXWshDDxWQYsUKyJNPVpYxY/pKo2dqmn1Wrdwou3btN8u3jL/Xyftf7rRXktJOmTpqnQTZa1Fy7DMCAAAAAJA6OBKYWb78RwkOPi9ZsmSW3r07SaZMGexnwmvR4ikpW7aYWZ41c5n5mxCuBW2TGR9+Lm+//bmMGG79Hfq5fLDsuP1sKhG0ScbNJGgCAAAAAEBy5khg5sd1W8zfBg2ry113+5llX9q2a2T+7tlzUM6cOWeW4+XEOhk747SUfeEF+d//XpDefay/bz0n7R71t3dIJW6EyOX/7GUAAAAAAJAsORKYOXnytPlbrGh+8zcq2bPfJ/fcc5dZPnrkL/M37kJky7KDkq9hTSmU2d5kpBF//4z2MgAAAAAAQNJwZLrstm16yn//XZOR7/SI0XTY/+s7Wg4cOCqvvNJGHqtSxt4aF6fl+zFL5Frz56RODnuTLzfOy97vv5dFW86Kq+FJOslbu560LOPRssba5+jP62XR+r8k2Nrp+g2RzEWqyItNCoq7c1bQimmyNFsbqRn8jcz40XqtG/dL/f/VkYf0yWunZcuC72XN3kvmPcz/l60tr9fJ6Rq/ZYW/vNEkk3w/Y71sPn1VxDpmkqOEtH6uouROqy/gzT75Zvg62XPjmlyw/iXznbpjFnmsY1N5LEC7ce2WNcu2yOZj1pOW67f7S9V2z8hjocdDx5g5K3W7lpKz1vdfujVYLt+4Ltevp5Pc1atLq8o5JfSt3Z+xbXF7g+XCn/L9rB9k8yl7Jq1M2eXJ1k9J2Xtdq+rC3nUye+E+OeU+ZgUrSodmRSVcrAxAomG6bAAAACD5cCQw89qrQ+XUqTPSvfvzUv7REvZW765bNfcXO/WTixcvmxmbdHDg+NBAyfi/S0n3tsVDgyeRXZLtXy2UvQ/Xk6Ylsrg23TgrP3+xUPaUaSrtStqta3Z8L5+dyC+taz4omU3bI+v/vpwp6x94RrpUcQVwTGDm3H1y+a5S0rlWdrPNuHFSvv/4e7lcp6HUL2S/h+XChUuSObP1+hr0WHxe7r+eTsq2Cmvhc2HzN/Lx7oLyepSf3+ItaCInZc2Xv0qWOrWlbEAa16YT6+SDzy9K3T51pJD5DhqYOSb3Zzsvl8vVCfts107Lz18ulI15npLXn7C/R8T3uLRTZnx+TB5uX0ceckdZ/tkin39xXMq+1EDMYbP+54MZ16XxK9Xs4NJ1OXsiWO7M4R/19wGQYAjMAAAAAMmHI12ZHnqooPm7bt0v5m9U1q3bbIIyd96ZXgoWyGtvjbuAmg2lzu2bZNSn62TvBXtjBJc3L5c1AdXCgjLqdn95tHlxubxyS9iMRSVqSuda7qCMyiglaxWUyzv3iedL7z19jzTzDMpY9s5dLn891jhcUEaZoIzbwWDJ0TR8t6vMj1SUUn/vlt8u2xtiJbtUa/tUWFBG5agi1fIcke2ek16d/VOOFKgX/rOlvU8ebVFe/Ddsku037G3hhMiWWdskoKlHUEbdW1ZaVgyR7388aVaDdh6Wa8WKeLT4SSP+BGUAAAAAALcoRwIztWo/Zv7+8stOWbNmk1n25vTpszLty4VmuXadx+SOdHeY5Xi5PYuUbf2CvF5DZPUH4+X9mdsk6Jr9nG3X7xfloZLhAylGxpySX85KlCPdZPOXgMsh4hk38X8wj4QfWni3bNmTTSqUiWZcm4Cc8lCkMYmzS45sIXI+2F5NAPdnyyiXwwV6ckrZcl4+W4bi8lDu03LkqL3u6cY++f1sXimZzV73kCGfdSz/do0rFJD3Prly9Lhc8BrcAQAAAADg1uJIYObBB3NKnbpVzPJnn86SZUvXScQeVRs3bJf/9R1juvaoxx4ra/4mlMyFqkjnPi2l/j37ZPzIOfLjCfsJOSln/zkvP3/umko7/ONb2RwSIudDm8xYQk7K3rXfy4yZc+SD4V/IiJE/yUH7KbeAHBGCPH+flr9yBEhue9Wne/0lwF5MONfl7MFt8v3cb2XqJ/p5v5BJG8/bz9n8/eV+HykjR7Y0cvZfe8VT0FkJOrdbJkU6Ztbj833y3+VLrpZGBZ6Udrl3ywdjFsqaP85KhJgYAAAAAAC3FEfGmFH6tmPHfiU/rvvVrGfJklly5XI1t/jnn3/l1Kl/zLJb1qz3yMBBr4bO0JSQrh1dIx9MF2nWq5rklpPy/agN4t/1GSkbTdjqr3VzZM72LFKyZgl5JNd9kjlzemurPXhu9yomqOIe/LddSfMvLjo2yzJ/eeM5z/FfIvA6RozL9i+nSVCtNlLTS+uUUN7+/9I+mTP+Z7lcrLg8Vjq/5PDPIhnSRvyM4T9/RL9/9Yn89vDL0lKHBvJ8j5h8J08XjsvPi7+X7/8KkDrPhR8cGEDiYowZAAAAIPlwpMWMuu222yQwsLW0bFVP7rgjrZw/f0F27z5gHhqUyZgxgzz7bG0ZMfINueuuLGaw4IEDPpIzZ87Zr5Bw0uYuIiXvOCZ7/ta17OJ/71n5y1t3HU+Xt8myn/yl8St1pFqRnHZQRreHRN8KxC+j+AedjrpLVCI4uuonOV+xqbSrVUryBbiCMurKFdcMTaEuXJSz9mJ45+VssL/k9jbUT4C/BPx1UqI7bKEy55RHWzwnvZpmlDUT18T8/wAAAAAASEUcC8woDc40bPiEfD55mAwd+rp0fqm5tG3XUIa+3VUmTBwszzatLQ88kFMGDX41kYMzIXI5JL1k8XOtFS6QRX7btM+14kvweTl7n7/cZ6+6Xf7tYKSuTJFkKC4l7z0sWw7b60nkzNnrEpDdDiC53Tgs23aH2Cu2kCOy/Q972dOJLbJF8slD9nEK5/a8ks//iGzca6/HkAbFHkoTLGfsdQAAAAAAbiWOBmbctMVMgYJ5pXr1R6VevapSoEAeSZMmbOag7NnvcwVn7vYzwZkB/T+MY3DmvOz9ebf85RmHuGFtW7hOfstTXB62pwbKXLGKPHp8nXy+4XS41i/XTmyTGcvsgE22XJLv5G5ZHzo2jfX84TUy9c9Mks9e9y29lK2TTw5O+0Z+Drpub7PcCJG/gry3VYm1DOklw7nz4Vq+5M+XRX77YWfYwMTXzsqWGZvkwv3hZ4YS/wC5/EOEz3Zht8yZcUwealQ+wkDGblnksYYF5a85Xr7T5m9l2S7X6oW9O8PNhnXt6B+yJ1N2yWOvAwAAAABwK3FsjJm4OHnytAwY8LGc+zdYAgL8ZdDg12I55kyIHF23Uhb9fEzOXkkradJck+vXM0ruSpWlaY0Hw0/ZfO20bPl6mSw7cFXSmPBVGvErVFzq1y4rud3TQZ/YIlNnbZejl/XZNJK17OPSrOZFmTcmmjFm3P7ZKd/M3iJ7/nUHMtJJ3qfqScuS/vEfY8by18qZMnnjJUmTNos89kJTeSzgkuxdvFDmbb/kCsllyi5PtqwtebbOiDzGzEu5ZPuMH2TzKfuz6b6tI4wF4+UzXgvaJnNm/CoHz1vHRN/jjoxSuHIVefLRnGZa8cuH18mMmbvlxDXr+Fvrd2QtKM+0rCL5opmgCkDCYYwZAAAAIPlIUYEZFf/gDADc2gjMAAAAAMmHaQuSkphuTYNeMd2agoLOmjFnIg1eCwAAAAAAkAKkuMCM8gzOPFmrstx5Zzr7GQAAAAAAgJQjRQZmlAZnRo3qJfXrV7e3AAAAAAAApCwpNjCjMmUKN1wvAAAAAABAipKiAzMAAAAAAAApGYEZAAAAAAAAhxCYAQAAAAAAcAiBGQAAAAAAAIfEOjCTPn06uXLlqr0GAEhJNP/WfBwAAABA8hDrwEy2bPfKsWMn7TUAQEqi+bfm4wAAAACSh1gHZgoXziu7dx+Uf/89b28BAKQEmm9r/q35OAAAAIDk4babFns5xv7887hs2bJLihbNJ7lyZZc776RZPAAkV9p9SVvKaFCmbNli8uCDOe1nAAAAADgtToEZdebMOdmz57D8/fc/EhLCmDMAkFzpmDLafUlbytxzz132VgAAAADJQZwDMwAAAAAAAIgfpssGAAAAAABwCIEZAAAAAAAAhxCYAQAAAAAAcAiBGQAAAAAAAIcQmAEAAAAAAHAIgRkAAAAAAACHEJgBAAAAAABwCIEZAAAAAAAAhxCYAQAAAAAAcAiBGQAAAAAAAIcQmAEAAAAAAHAIgRkAAAAAAACHEJgBAAAAAABwCIEZAAAAAAAAhxCYAQAAAAAAcAiBGQAAAAAAAIcQmAEAAAAAAHAIgRkAAAAAAACHEJgBAAAAAABwCIEZAAAAAAAAhxCYAQAAAAAAcAiBGQAAAAAAAIcQmAEAAAAAAHAIgRkAAAAAAACHEJgBAAAAAABwCIEZAAAAAAAAh9x202Ivx8jhwyftJQAAAAAAgNQnb97s9lLio8UMAAAAAACAQ2LdYgYAkLppy8ikvEMAAAAQE7NmLZfmzWvba0DqQYsZAAAAAAAAhxCYAQAAAAAAcAiBGQAAAAAAAIcQmAEAAAAAAHAIgRkAAAAAAACHEJgBAAAAAABwCIEZAAAAAAAAhxCYAQAAAAAAcAiBGQAAAAAAAIcQmAEAAAAAAHAIgRkAAAAAAACHEJgBAAAAAABwCIEZAAAAAAAAhxCYAQAAAAAAcAiBGQAAAAAAAIcQmAEAAAAAAHAIgRkAAAAAAACHEJgBAAAAAABwCIEZAAAAAAAAhxCYAQAAAAAAcAiBGQAAAAAAAIcQmAEAAAAAAHAIgRkAAAAAAACHEJgBAAAAAABwCIEZAAAAAAAAhxCYAQAAAAAAcAiBGQAAAAAAAIekmsBMUNAZeeKJ9lKwYG1p166XXLp02X4mehMmzDb/p49VqzbaWwEAKUXQirHSrnb90Ly84eST1tYjMqmBa71gwRGyxrUrrOMyraXrWFV6c70E21sBAADgjCQJzHgGTWL6IEACACnPsYmdQvPx7qvsjZ6uH5FxocGSJtY+F+wn4u7AxECpFLhQNhy8am+xXPdYRniH18ucza7jEzR/nfxqlgAASN08yygRH8XLt5DqTfvJiInr5cAl+x+AJERXJgBAErkga3p3k9G7XWsBzXvJ8BqZXStxFbRQBo3c71oOKCW9v/xCfvpprsx+Po9rm+OuStCO1TLpra5Sp+1cOWZvdVTeytKmhr+1kE5ytaoiZVxbAQC4ZYWcPSvHtm2SSSMHS52S9aXOgPUSdN1+MgGEBO2WFRNHS7vaXWXSYXsj4CFJAjNZsmSS/v0D5aOP3gp9vPhiM/tZkYYNnwj3nD4eeqiA/SwAIDU4MLGXdJpvt5Ap0V6+HFRe0rvW4m7HLtlgLxZ7IVA6VMguAQGZJX0ae6PjfpHhjUfIiFm75cC55NKKJ480/Wym7Nu3SFYPqix+9lYAAG4VpTv2lrEfhj0GBFaWivnS2c9elQPTB0ulpjPkQAIFZza801UCRy6TDQcv2luA8JIkMHPnnemlatVyUqdOldBH2bIP2c+KFC78QLjn9JEt2332swCAFO/gDOn+nrtlS3WZMKWl5E/g4En+fMmllQwAAEjOcpWrLrXqhj3adO0vU5cvki0z2ku1AHunHVOk7bBt9gqQuOjKBABIXMHrpXubKbJL7zqlKSC9p/WWajTTAAAAyYzfIy1lwrSWUsxeD5o6RabpfAJAIku2gZnr12/ImjWbpGPHt6RcuaahAzNVqdJa3nvv82hnXbpx46Zs2LBNGjd+VYoUeco8dFm33bx5094rZvSzfPvtD1K//svmddyf4913J8mFC4wOBQC+HZFJ7QfLoiBdziz1x42UDvnME5FdPyu75k6RwKYtpGzxsAH5ylYJlO7Td4ebPSh0AL/Oq+0tIos6u/+nU/T9t69vk0GV3PtHGIQ4Fp/Dt/XS3fyf9d3tLbJ7ilS3X6vgm+vtjW5X5djaGdK3fSeP96wvZet1lb7Tt0mwl6bUkQZaDjkpKwYEhv1/2RbSbMBqORbi2j+M+7NZjwYzvI97Y73WmomDpVm1JlLcvW/xJlKn/RTZymUPAJCa5Wsv3RrZy7JbVqw9ay/bzu6XOWP6hb9GFqkvlZoOlmnbwk9qsOZN1/Od5tsbrHLRiJr2/4SbMTKsHFCprPt5HZS4k7QblrDj3SB5SraBmalT50unTv1k7dpf5N9/w4rBJ0+els8+myVdugyW8+e999G7ceOGfP75XHn++b6yY8deuX79unnosm6bPHlejIMz+h7duw+X119/W/7446B5HaWfY/z42dKy5Rty/Pgpsw0AEN6BiSNlxA7XcrFeo2VUFIP9rhnQQhr2niErtp2VYI9gQvDJ/bJoQFepk2BTO+sgxENkmgkWRf5cSfc5bNePyJyOLaV6xykyZ/0Rj/e8KsF7d8ucAb2kbDWr8BbVm55dL92rPyeB0/eH/X/wWdk6fYRUrxnN/0Z0cK40K/ucdBq5XrYevyChHyfkghxYv15+tY8bAACpVbUnK9tLIht27LOX1CbpWzFQ+o7dFP4aef2qBG1bL4OaPhenGSePTe4WWg4I8rhmh5w9IhsmJ+x4N0iekm1g5tq1a1KiRCH55JOBsn37fNm3b7msXv2FPPlkJfP8xo3bZNOm38xyRDt37pMpU76RwMBWsmbNl+bx2mttzVg3GliZNGmu7N9/xN7bN91XW+doaxn93x49XjCfZffuJTJ0aFezTYM148ZNDw3YAABczi8dIW3tGZMCGvWXLztGMwaMVboJqNBAhs37QrbsXG7y/Z3Le0tTu4VN0HyrwGK3hMnVarT89NNM+end8q4NllrvWuu67afR0iaXvdELz0GIA5p7+Vyx+By+lZOB5rN0k1r2FinURGabbdajXzl7o2umqr5rXZ8nfaE65n3NPkv6Sxcze5Ll5GrpFLhQfMVE1g4bJYuyVA/939XzuoV+Xv3fvh/EsI988DIJfGq8bLVLmvmfbi8TltifeclIGdAqd/wHbAYAILkrkEfy24sS8p+9oP6TK+IvFZ/vJgvWzJWdVhlh3x+LZNmH1e2x8y7IojGLQlujVuznuoaOqmtvkDzSZYZ9Xf3pFalob9XATvpClaX3xLGyZbtd9vhppPSuat842jFFxq51LSJ1SraBmUaNasrs2aOlZs2KkjFjBrMtV67s8tJLLcXPL7No96Lt2/eY7RFduRIib77ZQV59tY3kzJnVPF55pbV5qFOn/pE1a342y1H57be9snChtg8XeeGFJmYmKf0sadOmlWbN6kjTprXNc+vWbZa//qLVDAB4WrNodWggIaBw7mhn/3nojS/kpy8DpWmJ7OJn1/7T56suw95w37U6Ir/usGc2yphZAgL8JcAvk2vdkt7PWtdtUczKFLwqfLBo2dDIsxLF6nP4lE78zGfJEhbISJPF/nz6ue2ZH3Z/LYM8ZqpasLCbeV+zj1VA6/bZRBnljuxs/ELGbbaXIwj2ry0Lvu0d+r+5StSRYXP6S337ywV9tUzWxOD+wYb3J8gKe79ivSbIstEtpVoh+zMXKiVtBvWXNnldzwMAkGqlSe/jRkQx6bNmpkztW0eK5bTKG7opTTrJX7e3dHcHX3bvCu326y6bZPF4MVf5QB/2/1sCnh5ibsh0qFpA/DK6tqUPKCUd+tYPDRBt3WpPooBUKdkGZgIC7jHBl59//k0++GCqBAYOlurVn5PWrXtIcLCrEPv336fN34jy588T2rLG7bbbbjNBHn1dFZMWM9u27TZjyGgg6IknKprXcNPlChVKmWUN9Bw86LWXPgDcsuq/3V/q2zMb7Bo5RMYddC37EpA9u8ilk7Jr7TKZNGy0dG/fSapr/+3AsPFYjp2M+wh8Vw/OkLZd7GCRTtc9wvtU0Yn9OTwd2/iLfVcts7Tp6W2mqsxSv20d+3NekA2bvV+7Sr/QVIpF/F+/ytK2kX2n7foBORDtZWqTLJplB4nytpTh0bVwAgAgtQo6430MNvG3ygkiISd3y5r5M2TEW4OlXb0WUr18fQlcbO8iJ+VULLv9prfKHn7aZXjjapk2ZrT0DQy0yh4tpOxTM+SAvc+xk3/bS0iNkm1gRseWefzxNtKmzZvy8cdfyYoV6+XEiVOSIcOdkiZN1B/73nvvlowZ77TXwmiAJUMGV1zyxImgaAcQ1m5KSgNBTZq8GjoIk/uhwSKlASS6MgFABP6VZdSHDcQVmzkio9tEPdbJgVm9pFKZ56Rhx9EyYvIyWbT+iBw7flXS+9utS+LlFxnonhnKr7KMjWK67sT9HOHt3+W++3WP5MphL0aUI7u4e2YdOHDUXgovV3a7y1MEATlcNyP0+P/uLtn5cviA/O6+lJUuGDojBQAAt5qgA/tCx5PLnz+3vWTRceE6t5DiVbpKpzenyKRZ62XD3rNy7FK60Fa2cRG8cazUKdtE6rQdIYPGLpM5K/ZbZY+zVpkl4cseSJ6SZWBml1VQ7dXrPTlz5pwZZ2bSpLdl06bZsnv3t/L5529L5sx2+654uPtuP0mfnoQOAInqkUD5slcB13LQaunU3vvgdSFrR0jbt7aZWQcCqraUsTpWypZFsm/fItkyImwAvrgrIBUq261HgrfLss12y5AIEv9zOMVfctutlwAAQFTOyvL5u+3l7FK7qrsF6VVZM6Cb9F2lszRllmqBvWXBmpmu8eh2zpX3Q8eRiaXDc6Vt+4VyQMd3y1ddBnw5Vn7apGWP5bJlTitulNwikmVgRlvL/PPPv6Z1TN++neXxxx8Rf/+7TPchnQY7ugmVLl26Iv/9F7nkf/jwXxIU5JruTLs0pUnj43ap7YEHcpq/d92VWb755mNzcvh61KhRwewLAAgvf8eRYeOk7JgibXtHntVo7Xz3eDTlpc+H7aWWjpXivkt0LbrxXGLCXxoM6iVNTXDigizq0tEqWEUOziT+5wgvd353Ye+MHDthL0bk0Zy6WLHQoQjDu2b/DeeqbN3q7vqUXXJltxd90bFp7EU5dtLnQMMAAKRmwYtHySD3mG4Vmkibovby9V9kobvLb61O8nHX6lIsp39oS5mrXq/F0TuwdJmrRa9VVunyXm9pU6GAdUm2yx7XQ8JmfkKqliwDM4cOHTd/77gjraRLF9aqRae43rBha+gYM77s2fOnbN/+h73morM8ff31crl8+YrpClWpkmt8mKg89FBB8xnOnbsg3333U4yn2AYAeMos9YeHjTcTNH+wtJ3oOVbKETka2s3mDkkfrinwBVmxdLu9HE8Zy8uwae1dY7FcPytzuvSSSeHGvUmiz+Eh/yOlQsePmTZ2rhyLdE/hgiyavNAOZGWXahW8R1cWLVgWeQrvg9Nl4gp7ueijUjG6FjMZrX0esZc3T5fhcZjuEwCAlOuqHJjeS+p02+RaTVNAeg9yd8m2HDsSOt6LpPMY3F8Fr5dlP9jLsXT0gLtMZL1m2JwGxoEV68PeE6lasgzMFCjguoOoAZipU+fL6dNn5fz5i/LllwvNeDPR0VmZuncfLrNmLZWTJ0/Ln38ek0GDxsr8+d+b58uXf1gqVow+MPPIIw9Zj+Jm+bPPZsnAgR+b1woJuWrGp9m795C8/fanMn166EhPAABv/CrLqGktQ5vj7hrZTbqHVvzzSP7C9qKsl7FjtknQJZGQ4P2yZlgvCVycgAGCfC3ly3HVXYWs6/tlRLhxbxLjc2SSu9wjDO9eJdM2npSgoN0yaZY9ffUjraS3u8HlxvHSrMVYmbND9zkrQXvXy+jOHaW7HVwJaB4oXdx37SJaMVrqdJ4hG45b/2f974G1U6RTmxmyyzyZWep3bRLWGsYnf2nzhrsAekEWdX5Omg1bJrvs19TPM+nNwTIt2qnCAQBI3o79slpWLHU/dLD/ftKwbH2pM8C69usOabJLmykjpUM+s7tLLquc4O5wsXS6jLau6SHXr0qwdX0c0X6wLIp0hyTMXX52d2o5IgtnbpNj1nV11+SFstXaUqCwu/XsEZk2ZpkcCL7qmoRgej9p+370E9YgdUiWgZlatR6T++/PapYXLFgpFSu2kDJlGsu7706SNm0amK5FUXn44cKmtctbb42RKlVaW6/XQWbO/NYM0ps1671mKm33FNxR0X169+4kuXPnMIP7agBGX6t48fpSsmQjqVevs0yZ8o1cvGjPhwYA8C1fexnlHm9GK/4eLVaqtQsLHOz6tJdUKllbipcNlE5TRXqHTlOdMPxq9PY57k3Cf45S0sA9M5JV4JrU9jmpVKmrjNh80d7mL03HjpEuj7hahwZtWyh9G+s+LaRSvcEyzvRj1/FuAuXLQeV9TN0pUr9dA5G1U6RdNev/rP+t03GGrLH7IgU07y4Da4S1Po2Sjgk0tFRocGbr5NHS0H5N/Twj5h+lSTUAIMXbOnGEBL7mfuhg/5tklx1YSV+ojoxdPkEGVIhQ50xTWTp2sluuXt8v46xrevEi9aWsdX2cJO2l29Oup7wpXbdGaMubXRN7SXXrutpw2C45Z63natZEatkBn6Clo6VO2fpSsORz0nDALqnQqwFjzNwikmVgJm/e+2XKlOFSvfqjcued6U3XoyJF8sn48YPlqacet/fyLVOmDPLee72kc+fmZoYmpYP9Nm9eV77++gMzoHBMFStWQBYuHCevvNLafC73jFD6HsWLF5Q+fV6Uli2jOAsBAKF0vJkJoVM475cRXae4giIlXpQFc16U+qUy28GHdOJXSgtGo6VDoRgGFWIh3OfQcW86L0y0z1G671gZ26pA2GwN6TNL6fzZ7BWLX1HpNm2qLBjRQCoW8hc/9904a79cpSpL74lfyOqJDXzOImVUDpRlMyN87kJFpcOH1v8O9T4tuC/5m4+U1d/3l96NCkiAxz/6ZS8gtQLbS4Pom94AAJCCWNfMnHmkYvP2MnbhTNm5pJvUyuv9ml/sjbEye1BlKe0eA0av6a16y+oZLaVYWtcmrx4JlAVj64T9nylf5BXTFMHPKmes6S8dKmcPLQP45SsvvWdMlFFPumdXRGp3200GTgEAeDh8+KTkzRvdSLFw2rGJnaT6SFcT5/qfLZdRNcwiAACp1qxZy6V589r2GpB6JMsWMwAAAAAAALcCAjMAAAAAAAAOITADAAAAAADgEAIzAAAAAAAADiEwAwAAAAAA4BBmZQIAhMOsTAAAIDliViakVrSYAQAAAAAAcAiBGQAAAAAAAIcQmAEAAAAAAHAIgRkAAAAAAACHEJgBAAAAAABwCIEZAAAAAAAAhxCYAQAAAAAAcAiBGQAAAAAAAIcQmAEAAAAAAHAIgRkAAAAAAACHEJgBAAAAAABwCIEZAAAAAAAAhxCYAQAAAAAAcAiBGQAAAAAAAIcQmAEAAAAAAHAIgRkAAAAAAACHEJgBAAAAAABwCIEZAECqEHJ4m6xYuk2OhdgbgOTk7H5Zs3ST7Dprr0eD9IxEE8u0mHCuyrGNq2XFxpNCsgaA8AjMAABSgW0yonEvCXytlzR8Z5u9DUguzsqc1wKl02v9pOFrCyXI3uob6RkJ49jETlKwYG0p+OZ6e0ts02IC2jxBGrYdIYFtA2XEZnsbAMBIssDMpUuXpV27XubiULVqWzl8+C/7mfB69XrP7DNhwmx7CwAg2Ts8Qxpq4T+6R2jlIKEVkKp1/UXS+EvtygXsbXEXWpmxHoGLL9hbI1g1wrVPgxlyzN6E5Ga9dHenPY9H8fKdpN2w1YnSGiVo4wzp2/45aTf5iL1F+UuZGgUkvaST0jVKSYC9VSvJGyaOlna1u8qkw/YmI2HTM5ziPf0VLNtCmr05V7YmeYsV5SstJpyQg8tkdGCglB0QIb8vVEpqZ7f+Zi8nVQu5NgFJzue1+4KsebOJ67lKI2RNsL05sbk/j7dHCi9f+MwL4JUjLWb++uuUjB49Ra5du2ZvAQCkaGkzSdac/pLL/fBP59qeJp0EhNt+h2t7gsss1YbOlH1/zJRhNTLb2xLGih4jZVFSFdCQaPyyh6XNkLNHZMPkEVK95mhZc8neIYH8PneKzFl/Us5dtzfY8j8/VnbuWySzn89jb1G7ZM7IZbLh4EV73S3x0jOcEZr+cmaW9MFnZev88dKsXhJW/jx4T4sJJ2jVXBm3Yr8ERzy3/CrLsHXLZd+63lLNz94GJBMHJvaSTvMvWOWWAtJ7mgNpNGJ5SR9ZM9lPpkw+8wJ4leSBmbRp00qGDOll2bJ1smTJWnsrACBFy9lAJqyZKavdjxGVXdsLtZLZntv7lndtTyHSZ0wncn2TdO+zTIjNpGR5pMs0Ow1uWiQ7l7SUYmmszSeXyaDx+127AInGI/2tmSs713WTWlrpC1otgz4n/QFOC141QtqOtM7FNNmlzZSR0iGf/URSilhe0sfEBpLLfhqpX5IHZrSVTKNGNeWOO+6QUaOm+OzS5OnChUsyceIcqVnzeSlSpK5p2lWtWjsT2Ll586a9V1g3qPHjZ5vndB9dr1evs/z2217z3p9/PlcqVGhuXqd+/ZfNdk/6er/8skNatOhu7fOUebRp86bs3+/ZJBkAEGchJ2XFsK5Sp3x9u7lufSlbr59M2hyhXX9o96gRsua69T8DAqVscVfz3rKNB8ucvVftHV3WvOl6ruHECPm1+/3Kup53vd942Wo/HZWQGnWkjbb1XzFa+vjq0hTOVTm2doZ0b9pCyhax3694E2k2YL0Eebag8PxuwbtlUuBzrv2L1JeGwzZJsO57cr0MatpEirtfw73d09ltMu3NsONSvHygDFrKwJrRSV+ovQzv5G+Wj/2w3dVU/Ox+mRMuXVrprLaVLreF/90909mBWf2kuh77xnPlmP2bdprv2m/XSLs7nN0UPeJYH671wbLIrB2RETXDXlf5TM/2b17JnZ6tNFOp6WhZcTj8+eD5fiF7l0n3xvb3Kv6cBE7cHT7QqOdXxHPSes01SToAyS0kex1pWsO1eOz4364FW/DmuVb+YZ/39u8Q/rd1d4/qJJMOX5CtE/uF5m3Fa3aV0Wuj7x8VedwZW3R5ZbTniOuzVR9pp9n5g+39rHzObPD87GaDzco3l46VdvXc39vV3TBw4rZIeZ7neRG8doq0q2l/lrKdZNCKk/ZeQCwEL5M+XVZLkGSW+uPGyoAKEVsp2umztp3WrDy3TuCM0K6IIYv72WlwbORyxcbRUlafS6AuSa78waN8od0iB0Tulut5jgdvHCsN9Zwu4joPwz23bYYEur+XdQ6NsPOPIKvM08w+z7Vc4d4eKh55AXxzpCtT1arlpEWLp0yXpk8+mRFtl6ZNm36T996bLBky3CmNG9eSEiUKycmTQdK79/uyatVGe68wGpQZNGis3H777ZIpUwbZu/eQ9OgxUgYPHicffTRNMmbMIHfemV7++OOg9Onzvpw+7UpsGpSZPHmetG3bS/btOyx161aR8uVLyObNv5vgzG+/7TH7AQDiKHi99K1pVQwn75YDl9K5mupmtzbv3SQjWraIXAk1Tsrn7a3/WfyP+N3nL37prf13WK/ToKfMia4cbr1f9+r2+110NxPOJH5BF+WcvUuU0paSAR82MOMwrBgwSlZE22zmFxnVcYpVkcoiD9W1Kl+18ojfNavyNH2wNBywyUvA5ICMbt9Txv0WIn4B2jrnquya3E/avjfDqkgPloUn75CA7Nb2EOs1rO0dZ3kUjg7OlWZVesmg+UfE75HK0vTpohJwab9Me+05aeb1OMKT311ZXAvXXJXeY3NHSt+pByQ4bylp2ryyVMybToIPWumyRa8IlUjbbxOk41ubXAVifY2M+aV28zrW/7me9ith/SbWetPa+cVKspGkL6jPl7LvhmaWYpperP1rF7Q/lzehv/l+qxJhN3X3swrR25ZJYM2W0n2Vl+DhnunSrMFYWXsmk6uLoVa+R3aVV0LT0lmZo+eXniPXs0st/cy1rJNyxy7rHLV3QYK7ahd9/fzCuiocmBwolVqOl0W7M0uZp+tI/cr3SIj+trW7yaSD9k4e1r5lnetjdklIFn8JsNJByOHdMq5jRxkUl4F1Y5BXRn+OZJOKVvqpVcKu2Jr9NF0Xk6yuLV5ckDVvtZPqry2UDXuvSnrzvv6SPviIlU57SdmmM6x0ae/qIfjbkVKn81zZfy2T+e5i7T8tMDBu3x23rutHZFL70bLCSmPFeo2WUZG6jnqkz9Ou/LFWMetcXTEltCti+ho1pJa2wAxeJ2t2uP7LbcPSH00QvHSLOvFu+RKaP2yz8u4A13niF3LWKl+MkOrVXZ8lkkvLpE/7hbJLn4t4HlnXhrZtpsvWkLBzaFLHnjJi4ghp+NoqOZbRtT3k7H5r+yCZ5lHeik9egCjcTCIXL1662bZtz5sFCtS6uXLlhpunT5+9+fTTL90sWvSpm4sXr7H3unmzZ893zT7jx8+yt9y8uX//4Zv79h22127e/O+//2726vWe2e+NN0bevHHjhtnu/t/HH29z89Ch42bbtm27b5Yt29hsf/TRZje3b//DbN+z50+zXrhwnZtr1mwy2/buPXSzUqWW5v8PHDhitulrf/rpTPP/3boNv3nt2jWzHQBSq0OHTthL8bByuMk3C9SffvOovUn91N+VHxd4ZvLN/VfsjZZz3w66WUa3F3795mz32x+afrOBbrMeFXv8ePOcO/u9su/m2Pqu7WUGb7U33ry5uodrW4MJ7uvF+ZsLu7i2FXjms5u/nrM3x8DRCR1d/2e9r/p1sOtzl+lqfQ6zxeL1O+67ufrbEzc9vtrNc8vt71Zg0M3l7u/g8d2qvbfP3nj+5vKu9vGxHuY728+EHbev7fc6c3N2G9d+Xb4+Y7YYBya7XrfwWzeXX7S33dJ+vNnNHM+ONycesjcZITeXv+o6fu7f+NQvP9781eNQ3rx2ODSd1f4krAziTmcFCjS+2fbzfeF+axU5HbpETFMuvj6ft9c5c/PLFq5t4c4H67vs/9h+7Yof3/zV3h76fgXa3Ry44bxro2caa7Pg5inddOxrOy32vDnb8xw5s+/mfrMD4s7773tu62c3GxR2/TajfrM3nlhws61us87d2R7pcP8n9u/46io7rblf03p45qPXzkT+bS3e0l3kbTHLK2N6jnhP68rL8dgwys77u9wcuyfE3mg5s+pmtzKu1247M+xNQ88/61rxpfta4fE5PK8JSJ1mzlxmL8VR6LX745sTe7jOGc/rbTi/fHyzou77hJW3hmb2YflotdGu67f7Gh12Pbdc23pzoEnDVrkmqrzUR3kpnBNf32yq+1jXnW7LPU5Cj/JQRY+0H5b/W5+p/88e14vw14bQ/OecdW7a55t5j5X2NSP0O1jXos/DyobxzwvgjSMtZtS9994tvXt3kjRp0sgHH0yV4xGacnrKnz+PFCgQNkCZjlNTqVJps3zq1D9y+fIVs+xWs2YlyZv3frNcsGBeKVbMNaPBU089blrbqFy5skmhQg/I9es35ODBo2bbmjU/m9fT/8+XL7fZdtttt0nlymXkrrsyy86d++Ts2WhvlwIAvLm+XubM0jv6/tJlUHvJ79GMwK9ue+lS1Fq4vlsWRWqKX1S6vFFZ/PSOlEpfQDq86BqrJnjjNjlglrwIWiVzVuhCURkw7kUprXeE4qh0336mS1Pw4lEycIWXVgmhCki1utnDtZDwe6y8VDBLR+VopLbM1ndr5551J7PUql/OXra/s71Wsaq9fdc+MSNSHF4m07TBqF8D6djE1SXHyFdDGpjjuEnW/OLahAgunZQNE/vJwKW6klnaNHeNhxTwSGUp7XEoJU0eqVbVteHAAVc5IZxHWsn7z+vsNknE+s3nmNYA5aXPII/zQdJJ/pfaS31dt9L8woht6Wu1lN6hTfM90tiuo66m9enukLvMhv2y5juPbnD+BSR/YkzZc0s6IuPatJDq1axHFe2eNFd2Wflg/dEjpVsJ1x7HFi+SDdetU7p1E2nqkQ7z160h5h7zip9lg9niZqXdnh75aBp/qfVCbdddeStf3OqllYlPMcwrY32OxMCaua7xu3J16iZdCtmDxiv/6tL9ZVfZf8PidZGm9c7V6RVpozM8KetzNGjg2jd475GknQIcKdfehTJCB/u1zqUKT5YMvd56WjPLNaV8xU6tpHRoZh+Wj7q7wlas+5j5/2NLf7TObdsvq2WhJu66DaVBTPLS3VOkut0tyP1wtyI+tniZq5tUrU4yvJbHSWiVh7p0rW4Wg+avj9yVyq+ODOtf3uN64aFCE2lj5z86MHcDu3ulXtv6uFsOpSklVe3tuw6EtcRNjLwADnVlcqtQoaQ0bvyk/PnnMfn005k+uzRp8GT79j/knXcmSfPm3eSxx1pLz57v2s9Glj37vfaSmG5LOXK4zgb9q4EW5bnd/b7ucWSmTp0f7qR45plX5Ny5C9bnuB5uTBsAQCwcO2I3SS8lpd2FgVB5JH9h19K58+ddC6Gym+5OntIXyy/5dWHvSfFZBNixy1WRKVRKKkb4/1izCie9h1eXALkgiwZ+HOVMKiFBu2XFxLHSNzDQVMTKlhktps7jVXYJ8Cyw5c/rqoRF/M7u7e7K1oHDrsJf8EJp5nG90rEbRuw2e8iV2FTMUr2wMVwKlnxO2o3cZhW200npvqNlwCP2LtevyoGNc2X0W4OlXT2rAl2+vjT8NGKQMEyxJ8olylTDPrl/86LFpHRGsyVMmtzykLnvdEHORUybGbN4Dx4Fn3d1UQmoI92e18R2QVb0fk6Kl31OAsesT5SpxG9lwSfPyrHj1uOkdnsrKgO+nSmjng47yffvcZVBg6f28jifrUfNKa7fPdL5fI/kymEvuhV7SFy3Lb0FgaMQ07wyludI9Kxrgj1KQOnSkaeFz5XP5PLWReFipG6gfnd5BHE8edkX8KpQSxnbS9OddV1/rZeX7oJh6XPDWy3Cn5edV7uesLvCSoX60ka7sR5eLxtMVx6Rrd+5ujHVb1Q9ZgF8L7MyZdUJCCzu/KFY6WKRX8tdPnDn6Z5qlJeK3oIyyqove17DChS2G0FYhQ+v20P+c/1VCZ4XQDkamNHWMi+/3NK0XJk/f6WsXBl5vBgNmgwc+JE8++zrMn36IjPOTO3aj0mbNg3tPRLeww8XNmPgRHzUrfu4pE/v40IAAEg6Zy667or6ZbHv9kchTfoEadWQvmp3GdY8s+hMKn2HrPc6S5PO7FC9UlcJHLlMlh+6Q0o/9qi06d/EriwlAr8CrjFBvDwqRqy03eLCpiu2jtnz7WXC93PDpgvWcQaa1pc6bcfLuKW75MoDj0rFRq2k29OetwRTKw1QfSFbFnaTDpWzS/rgk7Ji7GDfYxYgDvJI7++Xy74/FsmCQaUk4NJuGdQg0Ou4MaFjE0V6RDVOi+3MP3LaLGQSv4jBu5iIKq+8pc8RpE7ppVjHkTKhkXVdv75fRrTxneflquztnLQeoWOIFZDaJtB6RBZ+p0GUbbJQW+P4WftUNTtEz8usTBNaRRUpdQh5QaJxNDCjsme/T7p3b2+WP/zwSzl2LHyXph079snixWvk/vuzyoIF42TKlOHSr9/L8vDDri5JCSlbtvvMX+3+NHjwazJkyOvhHj16vCB+fu7mwACAWMmVx9XKxSqwbI0wQJ7nnalc2SMWRK7K1Qh3i4P27nMFRorl9j2gXsA9rud2b5MNCVLBTCfV+vaSpgHaZHiUjFh10d7utl8mDdOZHURqjZ4hW5aMkVFDu0m3RnkSvmWF+7tdzC1NB3WTYdb7RHw01S5NsHlOVzxWxvZtKdXyht1oCVkxQUZomszbRBZsmimzx1rHUPeJ72iNCemB7K7zZ/cu2RpxUN7rR+V3M8mkv+SOY2LzK1pHek/5QnZuGikdNO3oVM4TmMo5QaVJJ8VajZSJL1l5XIhVEXxxvOyy87as2V2VmuD8T3g9n4cNbWC3pgsTErEVzYED8rv+9SsoBWKTDmKQVybOOZJHctuNYrZujZzWjh20O6rm9k/a1mm4hWSWaiNGS29txWvleZ3aew42nV2yuka2EL/Hmng5J61HYPnQtFmsRQNzE2bXyl8kaPN6043Jr1F13y1WYiF3ftdNhF1bd0VuEeZuTZnznuiDtwkgRVwvUyjHAzOqWrXypkuTzp6kMzB5Onv2nJkuO3PmjGaGJXX+/EWZN+87s5yQqld/1LzPmjWbrAuE3Rbcot2X1q3bLJs377S3AABiLU05qVNXF87KuAFT5IBH6SJ4xXSZpNlumvLSsEbElonrZeyn+8MKI8HrZfjHrjy6dN0qvgvsJWpIAzNDzjYZ/dYyj+mqr8qB6XZ/7djKWF4G2F2a5szaZG90+1uOmibMmSXrfWFB/APTF0XRlSmO3N/t+moZbVWewxXUzlrfd3LEz4aoBB23p5sIuFcC3IVoK51NnBv3ptnHjp6xl2LijBw7YS/6ku8xqW3S8yYZPmC9xzTCVnqeMF0W6XreOlI7UjfBaAQdkQOeX9O/lFQt7Uq/wZeiGk8JcVWsazfXNPyH50rHYdtc256yZ21ZNF3G7fWcHtv6HTaPl0lr7ZVQR2TSR6vD0oHexX7HNV6L39OVY9dKLwZ5ZZzOkWMnox3vpWot13hhxyaMDv+9z66XUZ+7um/UerpGgrR6BLxKk0c6jH5Rimm63jFF2vZ2t4hNZ6U9V/rc9fl0WREuqV+VY3OnyBy725KRvYY01QHlNq+TgZNXWa+RXdo8W8r1XDzlr1rZlT+smCB9PD9IyH4Z97GrW1WuRvZ4VIkssfICJJPAjGeXpogefDCXaVWjQZvWrd+UHj3ekaeeelFu3Lhh75FwSpQoKE8/XU3++edfadWqh9Sv/7L06vWe1KvXWTp16ifBwRRQACDurELO0P5SXyskO2ZInbJNwgbDDNSWJpml/rheUitSE/zMEvRVoFSq3VW6BwZK2UqDZZFe4Uu0l+HNo2o6W0C6jW9vCltBS0dLpZL2+5VvInUGbIvZdNlehHZpiqSYVDRNli/ItI7PSbtuoyWwcX1puPaOROjKVEA69NUAkVVgfN86JuU7mffr3v45KVuxl4zb5dEXHNHK9UgpV4DPqgDXadxP+nbrKtUrjZLT9l3K2HiotKupUvD0flJW01v7ua5Bdr0qJmXMGDeaZlzps91UV2U0Mo/0PH+w9Ztbr+1Oz+/vtwpTBaS3Pm/vHWOX1kv38vWtzzlY+r7lSkOdplvlHev1urROmEoFIkgTNg1/0NQhrimeiz4rA+wuFaPrNZGy9az8TsdvqG3ljy3nyu+hwRK3zJL+5xFSqWKgBFrptY6VB5i72AHV5f03Yvu7RZ9XxuYcyVW8mGsgVd23ivU6VUbLGvNMZOnr9grtSmK+t76v9Shb0ZXPBzTqL8PrMowAElneJvLlONc1VfPXtvagu+lrdQptTRNYsb5Uamql/bf6STPr3KgeGsBx85cGrTSQs1tWrLTy0LzVpXZCtVwt2l4musfDCbTODz2v9DwpGyij9by3ykMTX408TlNiiG9eAN+SRWBGubs03Xln+Ji4Bmbef7+XCdro7Ek//rhFnn++sbRuXd/eI+HobE8DBgSah36eP/44KAsWrJSrV/+T//3v5dCZoAAAceRXWUat/kLGtiogAekvuAbDtArf+Ss3kLHfz5BR7pkAwiknA+f1lwaZDsiiFfutglBmKd2omyyb0VLyu+/W+JKvpSxY09+MneF3zfV+QZJdavVqKGXsXWIvrEtTeP7SdNQY6V0ru6QPOSkblq6SAzlayZdjm7rudCUwvxq9ZdmcF6V+KeuYnT0iGxYvk0U7QiR//Rdldl/XTEOIoVKBsmBsHSlmlSCDd2yShev/k2qjxsqAmI4N4CGgeXcZZqUBvzRXJdhKb8GZMkVxt99f2rwdKLXyWRXPECt9nrwoWfyy2M95oel5w0grjeURvxB7MNlL6azzwfrNN4yVDvns/WIjY34pUyqTBG/WWdOsNLT5guTS83H56Li9HmLmkU52gPeCTHttrGy9nlmqvfuFzB7kmu0keO9uWTRrvfx+KY/UHzRSBkZKi/dIh3FjpFu5C7J28W45cDGdlY+2lAlLeks1b9PLRCe6vDI250iFTvLx8wXEz0r4OuhxUPpMUYwFpt97hqz+sI6Uzm7tr2naekjeotLhwy9k9bths9MBiUmvqV+a4IfIrpHdpPsqDVDnkQ5zrDLL80Ulf6arErRtk5VPbpMDAfmt9DnENeCvh/S16rhmyLsuUvqFhgnagiV/x7GyZUZ7qVUos4TYg4mHZCxg8octc2JQHkoo8cwL4NttOme2vQwAgBw+fFLy5k0GA84dniENzYwk1WXCPquyYW8GgFvXeulecLAsMgMKT5AOESqGQGo3a9Zyad68tr2WzAQvk8Dyo2XF9aIy7KcxXm7gAL4lmxYzAAAAAACkPBdkzZAJskK7HdZtKA0IyiCWCMwAAAAAABBbh+dKOzMmU0vppFNkB1SXCUOrM2A1Yo3ADAAAAAAAsZVW5JyOjRSs4+XFY5wn3PIYYwYAEE6yGWMGAADAQ7IeYwaIB1rMAAAAAAAAOITADAAAAAAAgEMIzAAAAAAAADiEwAwAAAAAAIBDCMwAAAAAAAA4hMAMAAAAAACAQwjMAAAAAAAAOITADAAAAAAAgEMIzAAAAAAAADiEwAwAAAAAAIBDCMwAAAAAAAA4hMAMAAAAAACAQwjMAAAAAAAAOOS2mxZ7OUZmzVpuLwEAUqMKFUraSwAAAMCtKW/e7PZS4qPFDAAAAAAAgEMIzAAAAAAAADiEwAwAAAAAAIBDCMwAAAAAAAA4JNaD/wIAUrfDh08m6WBnAAAAMaET0TRvXtteA1IPWswAAAAAAAA4hMAMAAAAAACAQwjMAAAAAAAAOITADAAAAAAAgEMIzAAAAAAAADiEwAwAAAAAAIBDCMwAAAAAAAA4hMAMAAAAAACAQwjMAAAAAAAAOITADAAAAAAAgEMIzAAAAAAAADiEwAwAAAAAAIBDCMwAAAAAAAA4hMAMAAAAAACAQwjMAAAAAAAAOITADAAAAAAAgEMIzAAAAAAAADiEwAwAAAAAAIBDCMwAAAAAAAA4hMAMAAAAAACAQwjMAAAAAAAAOITADAAAAAAAgEMIzAAAAAAAADiEwAwAAAAAAIBDCMwAAJLchAmzZdWqjfaabzt37pMhQ8bZa/GX0K8HAAAAxNdtNy32cpLQt9uz55AsXLBKfvttj1y8eFluu+02CQjwlyefrCRP1XtcMmbMYO/tsnHDdhk5cqIULZpf+vV/WTJkSG8/43L5cogMGfyJ7N59QHr16igVKpY02//551/p03u0eY+BgwKlYMG8ZrsvwcEXZIH1uX5ct0WCgs6az3rnnekkb96c0v75Z6RIkQftPaM2Z/ZymT59sb3mcvvtt0vOnFnl2aa15bHHysi1a9dlxIiJsvXXXfLoow9LjzdfkLRp09h7i1y9+p+8PfQzc4xatXpamjarbT/jm/v7BgWdMcf0tdfbSLVq5e1nwzt37ry89b8P5dixk2bd87j5Ot7u7eqZZ2pK23YNzPt42rfvsAwcMFYyZcogw0d0k3vvvdtsH/X+FFlnHVdf38V9zKpUKSvd32gf+jqXLl229/DOvb/nd49I01NMfn8ALocPn7Tyvez2WuLQwEz+/HmkRo0K9hbvNJDyzTffSb9+Xewt8ZPQr5dYLl++Iq+99rbUqlVZmjatY29NWJpvfvTRNOnZs0Ok625qc+VKiMyZs1xmzFhsLV+VGzduSMOGNaRbt/b2HkDC03SnZZuvv15u0t21a9dMueyNN56Xu+7KYu8FIDZmzVouzZtHXy/yRW8KLV/+o1Wn6WFvcdE614gRE+Tdd3uaOpsnrRO6b+po+SFi/UdpuWb8+DmSJUsme4tLyZJFZNiwruY13nzzXXn55ZZSvHhB+1kx+cLgweMkT54c0qHDs5Fee+/eQ9K16zAZM6avFCr0gL0VqVGStpjRYMSkSXOlb5/RsmHDNhMwUZpQT506I199tVi6vj5cDhw4arYnFX1//TwvvzRY5s39znwW3ab0Qrpnz5+y47e9Zj02NKijASd9aHDj6NGTMmb0VJn/zUpJl+4OE9y48870sn37Htm375D9Xy6//LJDfv99v+TOnV2efLKivTXm9POvXrXJBHi80cDHiRNB9lrsLV26zqrg7LfXEp4Gqe677+7Q4+fnl9lsv+OOtNZ21zZ9ZPELn/lpZnb33VlCn9eHvo5n0AsAkju9Nrz6ahupWTP2+X9MaXBCA0Cp3fnzF62K8EjzXefN+8gqlE+RNWumSpcurew9gMSh51iFCiVl0aJPTbpbvXqqFCtWwKrgfWIqYwCShwMHjsjw4eOlT58XIwVl1PHjf8uRIyfk8OG/rHriP/bWyF58sak51z0fo0f3tuqBd9p7hKf5wKefzpI0adJI+/bPeA34rFixXvLmvV/Wrt1kb0FqlWSBGQ0UzP/me/l2yQ8m0dWuXVm+mDpcvpn/kcyd94EMHvKaORG0pcroUVPk9Omz9n8mvvXrt1rv+YVpnZE/f2557/2e5jPpZ5s1e5S88mpryZw59ncTy5UrIeMnDDaPKV8Ml8erPmKOw+bNv5tWPkWL5pOSJQubOyqLF62R69evm//T55Ys/sF1R6/RE3K3v5/ZHlPaOkcDERph1YwmIn2f1at+NvtEjOrGhAaV/vvvP/liyjemlVFiePDBXPLBh31Dj9/LL7cw2wsUyCsffvS/0O2dOjU129004+v7v86hz+tDX0dfDwBSCr1OPvxwYfH3v8vegriaOXOJOZZ6vdCAl1v69OnsJSBxaEs0DcSkSeMqbuvfunUfN+XN+NwcA5Bwjh8/Jf36fWiCMiVKFLK3hrdt2x9SvfqjUrp0Mfnll5321vjROuEUqy6lgZ7/WXWXtGnT2s+E0RsL2rvhxRebmxa/uo7UK8kCM3///Y8sX77eJMLmzetI55eah7aC0EBCiRIFTbeZbNnuMyfIsmU/mucS279ng2X2rKXy33/XrBOuvAwb3s0EZ/QzKQ1CPPFEBan71ONmPa40CJIrp6trQPr0d5iLs25r2KiGKSj++utuE0hRP/+8Xf7446AUKZJPKlUqbbbFhr7eo4+WNAGfNat/Mcfck7bc2bFjnxQpmk9y5Aiwt8ZczpzZTLcgbdmkrX8ivj6AW9f16zfk229/kGeeeUVq1GhvHq1bvymbN3svyGza9Jt1TegmNWs+L1WqtJZp0xaa14jKhQuX5N13J0mtWh3M6z/+eBsZP362/WzM6GsMG/aZeY2qVdtKvXqdZe1aV36pD22yvHLlBnvvMPqc/t8PP2y2t/jmHs/mjz/+lHbtelnXEtfx0PdR+t2fffZ1s+3JJ1+QJUvWhstP9X/1Ndx0XZtaz7KuWU899aJ1zXpOatfuGPp6Sit8vXq957Vbpzbf1qbW2nKkW7cR5r21OXe9ei+Zz/DTT1vNfnr8Fy9ebd5Dt+sx+vzzuSnyDr/e5NHrXZMmtbzeiQSS2h13pDGtf321aAaQdHRoh3femSCvvNLaBPC9MfWpNZvMDffKlcuYFiy6LT70Wq9lpT//PC69e3fyGpRRW7fuNvVlrSdr/U7XkXolWWDm1y27TAFJW8U8Wauy1wKSBmUq2uOc7Pr9gGk5kti2bf9Djh37W+655y4z/osGYhKatnzRoMvKlRutkyqdVZB+LPR9tK+gfmd3q5mzZ4PNXw0M1Xv68Ujj6cRU+UdLmC4/27btljNnztlbXX788Ver8H7FqoyUk2t2K53Y0Izhuecamf7RGmzTMYMAQAsakyfPM10xv/zyndBmvO+911PGjZsRKdChQYEtW36XL74YId9/P1m+++5zE5T2FhBx07tFb701xnQPWL58onn9tWu/lKZW/h1T585dkBEjxkvjxrWsAtYk8/8TJw61Psd8E7zQ65Pe1dY8292S0U2bM//992kpXbqovSVq+/cfkYULV8mnnw60Xm+KfPPNRzJ79lITXNHtkyYNNd/h668/kKVLfzBdWKOin1ED+9o1YvXqL8yx0ztuu3bFvGuptizUptX6nno9WrLE1c1CbwTobzht2gLruhEc2v3i228/M9eMKVPmhwscpQR67b3rrsyh450BTtOW4XfccUecbowBSDhantAxX556qmqUN8L1Op4x453mxr32dtA6nHZrig8N7ixYsNIEZXyN8abX2zVrfjblEQ3c1KtXzarDbUlx12HEXJIFZvbvP2z+PvBALjMGiC+FC7sG2NUgTsSBX3Vw31Yte8gzjV4N99Bt+lxc6J1MTeAFCuSRbNnutbcmDB3sVj9fk8avS6+e71sn1e0yaPCroYPsKu1T2KBhDdOlSFvNfPXVIjl48Jg8XLKwiczGVdaAe6RQobymALBjR9j4OBr42bhhm2TPfq8ZZOp8cNyaxOV9IKcZxFfvvGqXJvd4QU7TNNPzzffCpY++fcYkSZAPuNVpU19t0aGDiWfOnNHeKqYCMmBAoBlc3bMZrg4++/zzjU2wV+nfZs2ektWrf44UEFGaV2uA58knK0uVKo+EBvj1b2y6/Pz66y5p1KhmuAHd9TN2795e5s37zuQjei3Srpp//XXK3sNFC0WaN8e0G+i//56XVq3qhRa8NKDdsOETpuVKp07NQgcA1b860K8GtXzRVj4aZNDWH+6uEdmz32fGK/NsNRMf+hsePfq3tG79dOh7aIFQ1/W3japvfXJ05MhfpiuJtnDybMWlgx7H944nEBva4kxbyWlQ+IUXGqf6AbeB5Ozq1WsyZswX5nqs196oaGuZ8uUfNnU2Lac88shDsmzZOvvZ2NOb5t9+u1befffNKMsSeiNIy0laR1XaaubPP4+Z7UidkiwwowP/qttvv81raxmnXLIDCtrXXE+4hKStY9wD0OosRdpFa0D/j0yLGM9opw7opDM1aSFx5fcbzWfRgnZ8Wu+kSZtGqtd41LS88RwEePv2P6yKRpBUqFgqygBZTOgsWqVKFzXBrSWLw38np2jaijj4r64npzQHpFYbN24zg9W6Ay2ecuXKZvJBbbbrpk2CI+6bI8d9ppVhSMhVe0sYLaAcPnxcKlUqZW+JG73jVaxYfnstjI5FpV0M9H20sKStcjwDHppHawufilb+GVNaoAoIuMdec7n//qxmlgYNqnjS7Vro8kUDJDVrVoqUn+kND29dl+JCK47aijPi9VADX5qfarA/JdFAoBaCtUXRjBnvmxZA2jJLr6/aJY0BWJHYtIugBgOffLKD9OkzypzD+fLltp8F4AS9Jpw8edqqf5WNso6gDQW05aWWB9z0f3Sbtr6NSGdlct8AcD/c3YSVDp2hM0PqDaboZmZzd59yB2/0Oqxj4OjNJaROSRaYcbtxw9V/Py50+ubpM94zg/J6PnSbPhcf8flcvngO/jv1yxHy0kvNTd99nX1Km+u7aYbwdP1qpjuV0kJxsWL5zHJ86DF5MF8uk3noIMAanNEgjd7J1kBQfGnBVu8Ea4axePFa8z5O8zb4b89eHUyQDEDi0uCABgm80Yq+BihOnw4LIGhQOja0EHX33X6h45PFlQZEvN2t1qbK+vruwpYGYDSY7W5ZsXv3QSvfS2d9x5xmPSY0MOxtkFlv2zVIpYEhXzQf8/bdE/KGhwaGBgz4OFLBUh+rV29KtAHfE1PEllnaEki742rQRm8sAIlJu0hoQFC7Hmr3Sx1fsGPHt0x+BsAZpUoVkQYNapix2zxb8ka0a9cBMwyHDg/hpmNt+vv7mfJBRN5mZfLsJqXX+DfeeMG0uNHAiy9a7tDXj3gjqEaNCqZVMS0+U6ckC8w88KCrIHvo0DHTtNsXnZpaZc16j2TKFNYUPrHE9HPFl7ZcqfxYGcmdJ4c5mbSA70mjoDrGjnI3l4svvTtdpUpZ8346CLBOka3BE20Kp9NwJwS9G9yo0ROmif2XUxeav1H558y/9lJ4EbutAYA3GhB2D86e0DSvPHv2nKm4Kw3AaCBG82sN3OsYMDomS0K3rkxONDg1btyASAVL9yOqfvjJ1aOPPhypZZau586dI8V1zULKpq3etOtEnTpVzNgRAJyjXZi0S7NOJuCt9aR2qV60aJUZpNfzJsUTTzxvblRomSAuN/X1BkufPp3NpAXaRdgbLXds2rRDOnXqH+69X3vtbdNyV8e9QeqTZIGZMmWKmZYV2o1m5fcbvCZk7cvvnumivClIJX4rB/fnMjNBLV1nmtAnhevXkuZ9ypd3DQL8++/7ZMXy9a7Zp2o8mqAVC52xqnjxAiaqvNTKvLxxB8D2/PFnpDuu2pLn4EFX830tKANImbRFjAa5vdECzpkz/8ZrwEsdX+Xff4PNQLTxoUF4b12lNDCjLU/cXYw0n6xh5Zfr1/9qWl1o3hXTQX+dpPm8t7tpMQlCRPUbpkSFCj1oWsR6o791ag6yIfnSbos6WxgA5+g14Pnnm0iuXNnl7bcjd209dOi4ueG8eLFrIHzPx6JF40w3p7iO96KtcIYP726CQp5jgbrpGDRvvtkh0vvqo0uXltbfjfaeSE2SLDCjTdZ17AENyMyY8a1M/2px6ICxGgzR/nJDBn9iZhDSUa+rVStnnkts7vFd1Jw5y+X996eYGTfcgSP9jMuX/egz4BBT+h3X/bBZDh/6y9ypK16igP1M4tIBjTX4pIEnDXpp16b4dvuKSGeOavdcI9NFSuf299b6Rcd00O+tmdz4z+aEBme08jDTSg+aKWnXglKli5jtAFKeChVKmaa53oICGnzVwce1ABRXWpnRlpRxHezdTfObw4f/stfC/PTTNsmRI6vpzuSmY8Hs23fIFJK0b7e7r3dypfmofsajR0/aW1y0wLlx43Z7zbcyZR4ys2J5+w1TIi1P6FgCEZuq67oGoPR5IKnpjUhtvQzAWdpCVgfj1ptHkybNNUNOuG3YsC30Bn5E2tNB61M6IUBcaR1Ugy/Dh48PVybRgI+ulytX3N4Sno7PpwP1awtfpC5JFpjRqGSLlk/JEzUrmKDH11+vkDate4bOWqRBGe1vq11sur/RPt5jCHjSmYOGvf2ZvNipf7jH1l93mc/V/vlnzOdSP63fKi91HiSNn3nNfDb9jJ9+OksuXIh9VxudXcP9Xs+3/58ZEEoDNPpeBQs+YO+VuPT7VateLrQZd/lyJUwXp4Tm7tKk7+dNkSL5pEmTJ83zevf5uXZ9zPFt2aKHfPPN92afZ555InTk8bjy9VsvWbLW3gNAYtE+2zoDzujRX4QL0J44EWRmP+jcuXm8AhvauqF587ryzjsTw40NokGHo0djPnWlzkin007r53L77be9Mm+edV1q0yBcPqYtDgsXzmemt65aNWluGMSXNs/WacvPnXN1z9WC5tSpCyKNaaNjXWgAxrMFUtmyxcyAhJ99NitccObYsZOm0Kp5bEqiYwGUKFFYxo2bHvp99K+u63Z9HkgsmzfvNK383PRc1AHFdbtOfQvAedrFUAMkel5OnjzX1FM1eP/jj79a1/3y9l6RVa/+qLmhE58bGQ8/XFjat39Guncfbm6iK72JovXhrFm9zxasN6l0MH5a3aU+SRaYUTo2QGBgKxk06BWTEN1dlXS8AE2Aga+0kvfe72kSXELSE0ybrutsEp6PkBDXTEW+PpcWzu+9927r4llVajzxqNkWG1euXA19L20KV7BgXunT90Xp0KGJKRAnlfz580ihQg+YClG58t6jrwnB3aXJGz2WjZs8Kb16d5RChR8IHeBS/+q6Hvsmz9byGdiJKV+/9aWLKasyAaREev7qIKt6J/jZZ18P7RPdu/f70q1be5O/xpe+xsiRPUygx/36DRp0kd9/32/vET29S9Wx47Pmc7lfY8qUeTJiRA/TvDiihx8uZMZWSSmVeP2sOh14s2bdrILjc9ZyoBnDLOKUoHrH7+mnq5v9atXqYGaO0AJq376dTcukp57qHHp8Pv74K+vvo2aA9ZRE02T79o1MFy3392nc+FV56KECJq3G95oDREVbB3fuPCD0PGrQ4GUz89nQoV2Tfes74Fai5+OoUb3NuC46a5JO0pI+/R1RTlJQ2Kq/aFAm4rihsaXX5hdfbC79+n1gGiloN6Unnqjo8/qkN6n0fxYsWGla+iD1uM2qyCbsVEQAgBTt8OGTVmEkYQYIT+n0EqnNjKtVK58iB74FACA1mTVruTRvXtteA1KPJAvMaLcVwEn/+19necRHf00AYQjMhNEuPDo4H3e4AQBwHoEZpFa0mImFObOXy/Tpi+21yHr16igVKpa01xKOzgbSp/doCQo6Y28JTwef6tf/ZTMILwDEV0oNzMyYsUQmTJhjr0U2dOjrsWr1omPX6EwNFSuWitQNKKHfCwAARI/ADFIrAjMAgHBoMSMyYMBH8v33G6R16/ry4otNzdgrAADAWQRmkFoRmAEAhENgBgAAJEcEZpBaJemsTAAAAAAAAAhDYAYAAAAAAMAhBGYAAAAAAAAcQmAGAAAAAADAIQRmAAAAAAAAHEJgBgAAAAAAwCEEZgAAAAAAABxCYAYAAAAAAMAhBGYAAAAAAAAcQmAGAAAAAADAIQRmAAAAAAAAHEJgBgAAAAAAwCEEZgAAAAAAABxCYAYAAAAAAMAhBGYAAAAAAAAcQmAGAAAAAADAIQRmAAAAAAAAHEJgBgAAAAAAwCEEZgAAAAAAABxCYAYAAAAAAMAht9202MsxcvjwSXsJAAAAAAAg9cmbN7u9lPhiHZgBAKRuGoBPygsRAABATMyatVyaN69trwGpB12ZAAAAAAAAHEJgBgAAAAAAwCEEZgAAAAAAABxCYAYAAAAAAMAhBGYAAAAAAAAcQmAGAAAAAADAIQRmAAAAAAAAHEJgBgAAAAAAwCEEZgAAAAAAABxCYAYAAAAAAMAhBGYAAAAAAAAcQmAGAAAAAADAIQRmAAAAAAAAHEJgBgAAAAAAwCEEZgAAAAAAABxCYAYAAAAAAMAhBGYAAAAAAAAcQmAGAAAAAADAIQRmAAAAAAAAHEJgBgAAAAAAwCEEZgAAAAAAABxCYAYAAAAAAMAhBGYAAAAAAAAcQmAGAAAAAADAIQRmAAAAAAAAHHLbTYu9nCT07Xbu2CdffrlQDhw4Kjdu3JBMmTLI8883lidqVrD3cu23ffse+XzSXDl27G+57bbbpFChvPLSyy0kb9777b1iRt/jp5+2yYL5K+Xw4b/kv/+uye233y5Zs94jbds1lEqVSpn9Nm7YLiNHTjTLERUtml/69X9ZMmRIb29xOXnytMyb95388stO+fdssNmm36dQoQek04tNJUeOALMtKpcvh8iQwZ/I7t0HzHqTZ2tJmzb1zXJEV6/+J8OHjZdt2/4w661aPS1Nm9U2y276ffXzfLvkB9m790+5cuWq+b45c2aVBg1ryOOPPyLp0t1h9r148bIMHDhW9u87HOX7fvrpLFm+7EdzrLq/0V7SpEljPxMz06YtkrlfrzC/45s9X5CKFV3HXOn3HjzoE7Pcf8DL5lhHdO7ceXnrfx/K8eN/y2uvt5Fq1crbz4hcunTZfNeVKzfKqVNnzPd3/76PVSkrTZvWDv2+AKJ3+PBJK5/Nbq/F3vXrN2T58h9lwoTZ1rl7wZyTjz76sAwe/JqkT5/O7HPt2jWZOnWBzJz5rcmT/f39pHfvTlK+/MPmeSAhXbkSInPmLJcZMxaba6KmyYbW9bBbt/b2HkDC03Q3ffpi+frr5Sbdab6n5Zc33nhe7rori70XgNiYNWu5NG8evu4TG6tWbTRllJEje9hbXH77bY+MGDFB3n23p6kzedJ66ZAh48xyv35dTH0mIi3zjB8/R7JkyWRvcSlZsogMG9bVvMabb74rL7/cUooXL2g/6yoPDR48TvLkySEdOjwb6bX37j0kXbsOkzFj+pr6JVKvJG0xc+3adfnqq8UyYMDHsn//EfHzyyQBAf7muTNnzpm/buvXb5Vhb39mVcRPmQJ75swZ5Y8//pR+b31o/jem9D3Hfjxd3n9vcuj/3Xefv1VRT2uCKseP/W22ebrjjrRmH/1s7sfdd2cJd6JooW7+/JXy2qtvy3crfgoNyigNdmzdulsOH/rL3hI7Gzdsk7Mer+fpr79OmYCWL/reI0dOkhHDJ5gMRgsCSj/v0aMnzbHo02e0nD591mzXIFL5ciXMsgbC9P8j0qDI7zv3m+9frnyJWAdl9P9/3vibWdZM6cd1W6yK23Wzrh54IJc8+GAuU4DZsmWXvTW8g9Z3PnEiSO69924pUiSfvVVk06Yd0vnFgSZd6e+p31PpX11fu+YXOX/+otkGIPFpAWPo0E/kl192yJdfvmMVgKbImjVTrW1dQwOkmg9MmTJfLl26It9++5msXv2FjBs3QD7++CsrH3IFnYGEoteAN94YKZcvX5F58z4KTZNdurSy9wASh5ZFKlQoKYsWfWrS3erVU6VYsQJWBe8Tk1cCSB4OHDgiw4ePt+pIL0YKyii9MXzkyAlzg//UqX/srZG9+GJTc657PkaP7i0ZMtxp7xGe5gN681vrVu3bP+M14LNixXrTKGHt2k32FqRWSRqYWbv2F5k39zvJmvVeee/9njJ5yjAZP2GwfDltpDR65gl7LzFBiZkzlpjlbv9v717gZSzXPo7fhYiKVLvVQUUOOZZDpYiQhBISkmNOnxJyKirpSC9C2dmRRC8pkYQkOURySLIrOiixaaekVOKldu3nd615Zj0za9Yyg7VmWe//+/nMZ83MmjXzzDNrnue+r/u6r7tvB/fcpEftUqt2NWtgzX51UUTHPjMff/S597rrLNjSq3c799LLT7hnJz7sXpw+0g15sIc77fQioUemKVnyfPfU2Pts2/zL3fd0dgUKpI700qngfbwwZY4FfqpVq+CeHjfYvTr7KTf7tbFu6rTh7pY2jV3+/IllafBlpOPy73/vyrBz8u676y1rJjoaC7aFDKO1az6ybWUbpr800rbplZljvIZpRxuhIcjx1JP/a5k6uPSyCvZ8O7bv9A466YNJmzdvs6DI2WefYVHfRKX9/d/sdT755EsLuPnIQqp+xcV2PVZwiP29evVH9plXqVLOnXnmaXb/qlUb3MgRk9zevfvchRcWs/+pWa8+ae+Xz4LP5KpaVV2e4zVjTyS7LFmyxhoa993X3QLqPo7BfoODYwLHuNtua+7y5s1r96WknO66dLnZRpfjPb6LxOOll+a7SpXKuK5db/bOjWlZr372lkhWKVjwRAvE5MmT2g7hZ8OGtSzTl3aRiCQffZLBg5+yoEzFiqVD90ZipkKdOpe7ypXL2ayEoyF1kGq2BXpoM/ntoSD6vTt27HTdurXy+k+bNdicy2Vbj5XO9ptvvuv90+Vx3brf7EqUODf0m9SABI1232efbbHgBAGSqlXL2338Xf36V1pDisyXPXt+tfsP5eut31gjv0SJYpZKzxQX8JqXXHKRq1v3crudCKKl8+a9Y9dbt27oBt3b1YIOfqeDLJSWLa9zlauUs9vx4gtao2YV28alS9ZaACaIgBXZNMXOO8vbN+eF7k2zefNWm7JF1JU0ObbBb4Sy/5jWM3BQV2soEBxZs+af9ju2PaOMFbbp/bWf2D4sX76UZQ4lgr9b6nXUGDVq3ry+d8Ar5X75ZW94KpavUqXSGQaH+Kw3btxs74sgEvuZDKXpL863KRB16lzmhg7rY8GZ4OfL+2rXrokrcuopdp+IZC2OIYzstGt3Y8wGhm/9+o2uRo3KdiwKKlfuQsvmyyhjMBodm759H/eO4x3d1Ve3dx06DLRRLR/bM3HiTHfttZ3tMY0adXPz579jx7Ugnuf++8fYY/wLj4sHqcuLF6+yqQo33HC7q1WrrWvf/h7L2CNANWnSLHv9OnU6uLZtB7ivv94R+stUTPt6443lrlmzO8OvfeutA9y6dakNP7Z16NDxbvnydXY7iOPrvfeODj/2UHbt+tE9/viE8PY0aNDFBkzAvurff7ilTEejIXjnnY+47du/tdts87x5S21/sr0839ixU22f3XPPSHtMTsH/08cfb3Y33XRt+Bwtkkz58uWxNm90G09Esh9Z/cOHP+ud4261AH4snB+XLVvrLr20otd2qWLtHO47EpzbOfd//fU3No07ozYTMzBOOeUk6z/Rp+O25F7ZFpihMbr9X99aUOFQ8+O++Hyr/cOed/5ZETVdqNfCP+fevfvTTX3KSPELzrEO/ZYt290Kr2HrT3U5EmSt8EUmuHRdw6vCwYCjoXy5kq6497wEnwgABTHCTMCKOi/BQJaPzCAOFOXLlwxnoEQrVeo8V6FCSdu/fLn5SZYOQStEZ6z4QRECYmSfJNqw3bXrJ6+hv82mIJX3XpepUDzHihUfRLwOQRQCK2x/dHCI9MKdO3e78y84OzyNaYO3L6g9VLRoYddCNWREcgSCIr///rs799wzQ/fERsYMgfdoBLXJsiGAcCiMOBOwaNu2iaUKMzVl5Mi7w3UbCIqMGTPFFS9+jlu4cKI9ZubMJ917731ojSofI2VDhoz1nufGcNrxokWTLHAUrzlzlth55vXXx7nly6e6Xr3auWHDxrtnn33FGlsLFjxr07X69u3kRo2abNsOjr/PP/9qxLQvLryPceOmW8CH4yU1KRYtWmmPDyKg9Ntv+1yZMsVD92SOej61a19m+4PtmTRpqJs48RX7PGjwVatWPmaqNOcj9ivHaX+bN278MjwtiOdj8OOZZ6aH/iLnINBUuPBJdg4SyQloF+XLly+uGoQiknUYdKDmS6NGtb2+VcbnfM6BBQsWsH5K2bIlrM/BtKYjQTtkzpzFFpSJHqTycb5dtmyNZdnRlmjc+GqvD/pBuraA5B7ZFpj517Zv3YEDB91ZKWdYp7xTx3tds6Y9Xft2A71G3uyIyOPu3Xvs52lFIxtSBAdOPqWQNWp3/5D6mEOpWKmM1xCtZpkVzOHr13e4W7Pmo0wDNBSjbXNLf9s+//LKjIX2O0Y4vvK+oCDdjUDR0UTH5OKLy9h7ZDt9vC5ZNHRaaIT/+uu+0G9SUUuGbBOULZd60IiFzoPfIdr1/U/2d6hStZzV1YnOWPGDIgTUyKpJFDVgGLEsV/5Cm4LEPqNmT/TrsL21r77UOiHB4BAHHz9jp3LlsuGpEdQb4ndkDvlTm0Qkub77brd13rdu/cayPsimIJOFFGGC2eC7zDTK4JQSH3OwOQ6RkXEoBK45jl90UVpQ4owzioaPEWRonn56UVev3hXhgDKNH6azvPnmCjvGct4ZM2ay69GjTcTzMN2gSJH4M+3ISGzSpE74dcj05HxFwKNNm8b2fODYTpDAD7qTOUgtsHvu6RIx7YsO25AhPSzgQ8OR4yaZhsFsIKxfv8lG8GJNbY2lZ8+2Vnjd307m0VMM/oMPUjNuatasGjNVesWKda5Bg5p2/uA9kdXau3f78GfI8zVqVMv7vK+w2zkJ5xmmkpBxFMxKIsPnSEc8RRJBsHjt2o8sa41pnBl1xkQk6x08mDp4c+ON9dy119YI3Rsb2TIsTMA50B/EoB1xuDZs+NS98cY7bsSIAZmevznn0yf2Z0mQNUOiQ3RbQHKPbAvM+B3t1as3uMnPz7bIH9kO3P+61/h8dsIrViMlM3wh8p+Q2JxwGsw97mxj9WVo+NJhoDBujzsescycWMhGoXMQLP5bsFBq0SY6DAcOpKafZtVJtWbNKvZFDRYBJkDCyB9fSqp2RyNI8eefqRHUPMcnVpwXvEdWvQpmrASDIhQIJmiUCDpfrHRFo53id/zkM7/kkrL2OsuWvh8R9SUbhlHNYNDGz9hhX/tZPdgX+n+i88P/hY8AWjCgFgyqiUjW4ntNkfFZs95y48c/ZNkUZGbw/WdUig4/AXo/SHMkCF4QcGfKUDSOK0zv4XWjsVobgWDOPf60omBB8cNxWVRRdI51pUqdb/cH05N5TNGiRcK1JTgfXnPNFTGDVGQdccwlzZnzQalSF0RMAWVfE2w40lWsLrzwvHAghn160kmFwoXyQWCd20wzw8qV6y2YE73NvGcCTzkN741G8KZNX7rp058IZ0TxP0DGFZ1lkaxElh7BwPr1O7tBg0Z53/krLcNMRJKHcwLtBwYkOH9lhHMg/a9ge4K/4T5WnYzGqkz+AIB/4Rjgo90ye/Yi73hQI5zhmxF/+pQfvDn11MI2UMOgjORO2RaY8fHPNWxYHyvAS0FflqCmgUdx1+i599FSgw9/2hfo+NAIZDyYakQdEl6zQ8emVieFLyPp6wQOosUq/tu4ce3Qb9P858+sKVBZrFiKBWD8IsC8b4IYVk+l7uURHYBYDme7eE5q0LBv/YwVpovRoOUzo7ZLorZu3WGfKUWD/Y4Pz89z8XoEXIK1gsh8IbMmGBxKqzd0Xsxl0glGBYM7BND8YFqBULFmEck+fOepceVngPCdJ5uC4xqjxUcLGS28Ts+ej7oXXmCFp7Spkay+QxC+R4+H0zWQrr/+dsu44/hGgOSss/5mAd4jQUH7WGLdf/LJaZkxTNliVbpYOEaSAfTDD6nTuhjRI4uSQDlIoybDiNTqeHGs5PN58skXbN9QG4ZsJh+vSWYMGTK+TZu+suMvgxWgzkxG25xTMeLYqVPzcDCJDKYOHZpa0Ib/BZGsxBQJP0jNtD8GDLt0uT9mUFlEsgd1Rps0qWtLYEdniQZxDiS71D8H4pxzzrQVg2Mt1BJrVabgNCkG//v1u80ybgi8ZIS+EM9PlmtQ3brVvWPJGvu95D7ZHpgh0lci0JCk3gwd7uD0JE5aCDa0QWObxjSNUb4QiaJR1rRpPfePZ4ZYVgrTeGa9uiiczRMPat6kpKQ2tj/dtCVLirfROCYA4xcBpgFOdJTaM2XLpo5aRot3u2jUf/nlNrvO44M1fAieEETxM1aIBjMXmilMTE9IlF/zhhoOt3W6L5zB8tij4207olefogN31VVV7f0THGK1pdWr/2mdiarVykdMz7qg+Dn2k+BPMLhDAM0PphFlFpHsVaFCqYgGDPhus6Ibtb7IfiMI62f4BaUe43+JOC5lhumNs2Y9Zc/ZrFnPiMK+BGdffnl0ugYSlzlzng7XZYn3tZKNTEn2z1dfbbfbZMuQRcjxMh40PAcOfMJNnTrX5quTQv3WW895jdJeoUekIjOGDBlGCW1QYNka77hcLfTb1M/y+OMTqzWWbOyn6Awfbhcrdlamy56KHG1k0DF14rrrrrLvlogkDwMeTGMeMeK5mNmT9FXmzl1iRXqDAzz16nVyS5eudQsWLI8YHI4XZTAGDeruJkyYYdOZY/n00y1WDqJr1wciXrtXr8fcBx9sjMhsldwj2wIzJUsWswYkaez+iF9G/BoojHgGAwyMbjLPnukwpKMfLhpkVNXGz16nPtGo45U1Ktt7ofjhypUfHtaX8lAIwBCIYXRz0aL3rJFM0CKz6UT+dlEjhy9zLJs2bfEOAl/Y43h8EJlErLzE/li3bmM4KELtl4xq1mSEKViffPyFNeJ5Xj+Lxb/wPnjuVe9tiPh/IK2egBHBIYoTf+YdmAjCXXppZMYOy2aTyUNwZ/Hbq7LkMxCRxDAVxv9ux+JP6+FxBFWjcXz/668/rTZMvDiet2jRwM2YMdrSg5nuQ/CeLBiWmMwMjSPmaifr+EFGTKz9AI6LP/64x/YVeJ9MISLriCALAfZYU7UywupLKSlnuMGDb7cBEX8qLgHwIIJqZMgwSsi+YeouxQ59hQoV9I6734du5XylSxePGQQE56d4A1siRxODXawWJiLJwzmgU6eb3LnnprjHHks/tZV+KOfIefOeSTfAM3fuOOubHW69F7Jwhg3ra0Ghj73+UjRq0AwY0Dnd63K5445bvJ+rQ4+U3CTbAjOpWRdnWGd7VWj6EI3hde9/YqOoNAb9LAimszDvjhRjGoeg/gwBCgI7l1evdMh5eb4Fbyx3C998NyL4QrDHT6mn8e5n6MSL5dQqXVzGGs5/HzvNTZ78WsTyrlyfNm2e+/AI5gDSuSEQQwN8/rx3bP9QryAz1G6hIBVTnp7++zS3YMGKcGCL/bdkyRo3/H8m2r7gcTw+iANUdW/f0lB9b+WHbsOHn9nr+rUFEuGvIMVnPmr0wIhpYVz69esYCiJtsZoUPoIwFSqWtm2c+/pSy9ihUxAdiCPLimKbmD79DfsM6NT5uL5nT3xL7orI0UHjhmkj0Q0VjpVMw/GPOdWqVXRvv70qXVD8fe98wNQiCuQminMCRXd/+ulnO5aRocM5I7OgC1kzv/zym2UlJkP16pdYKnP0fsCWLTvsXMI+9RGQ5thKBiVzzRNZaejbb79PN+2JRmisxh0ZMozmMyrH8TeYbVKtWgVbLSp6gIXbixfnvIYi75laAtGp6twmKJbIVDCRo4XgJlPWRSS5mNpKMW7OYc89N8v7mbb4wKpVG8IDwdE4BzOIzipJh4u+DMGXYcMmRKzES8CH29GD0j6SCxiEor0juUu2BWaKeB3ulq0a2vVRT0y2VZmY3jJmzAv2JWAKSkrK6fZ7/lGvv762BWEeefgfrvNt99tl+TvrLJ37uutq2uPiwdLarMbU5pYB9po8zy2t+1sKGvP8WrVumC7Iw0hkr56PuW5dHwhfevcaGq6BQ/ZInz7tXcVKpa3mDcWLg1N1uD7zlYU20ngkCMQQGIG/qlFm/ELHbBfTtCaMn+Fatexr23Rzi7vc2KemWuSX3/O4WAGpUkwtu+Bsm/tMcCOe143GwY1MGDpEBFliTTsr7XWIyAiicUyB4SCmmfkrmtjt0PSmIDpeTZtd42644Wq7zWfQof2g8GfAdY1GiWQvGi8sOzl69JTAKkx/umnT5nqd+xPCHRF+kkk3Zcpr4UYQBc5ff32JLX8dDzIoSQH2Ay+8HoFepqeAqQIcs2fOXBh+DR5LwH/y5Nl2m+3l3PPQQ0+HC/KCabTZUf+BOe6sGMT+Ck7dZVtYLaJ791YRDUKyZ8h0mTRplqVgcxyMV6VKF7l585aFAxQEZaZMmROzvg4ZM99//6NNDWOp7iDOSwSS+Ez9/crP6dPnx7XMeXajFkDFimXcuHEvhgNg/OQ29/N7kaxCEfLgIBHfFbLXuJ+lb0Uk+cjmJUDC9/L552dZW4Fz5bvvrne1a0eeA4Pq1Lncvef1d2INrsSLwf6OHZu5vn2HWekHMGOBunwZ1a8j447ZB+rn5D7ZWmOGDveQB3tYo49RSi5cf9C778amdUOPSu10N7+pvuvZq6116qkrc/DgQVfvmuru0cd6h4MV8eA1+TumP1E9m+eipgC1CXgufh+NjBOilWRr+JcffthjWSc+Gstsd7/+new9EOQBdWEIMN166/Wu0sWl7b7DRUCESC1BCbJn4mmEZ7Rd/Cxd5gI3cFBX+32wsR9EwU72DRJ53SAyYOgg0eCPtX9BRhArPWHt+x9H1Pkhu4rluREsHByNwFLHTs3ciJEDrDhWcJoXUxS4j8/4phb1Q/eKSFYjYEBxupYt+3iNlg6uYcOu3vH7D2v0+FOZ+DlwYFc7ztaq1dbmTT/88Dg3aFA3S++NB8cXAiw1a95qf9+58/2ubdsbbDUkcIwbNWqg1cqqU6e9PaZBgy7utdcWRRRzp9gtacH9+w+3x3Bp337gYacnJ4JjK0VpCVS1aNE7/PrUgunTp6M12II4JrP8N8Fvju+JIKDCZ9O8eU97jdat+1k2JPdFY98xTYrzgT+Vykf2DOnXO3Z8F96vLVr0smlZrVo1tFWdchL2cceOTW37GjXqbtvLPihfvqTt+0TPbyKJYICre/ch4e92kya3W8b2o4/elWE7TESyn99moBQE06JZfCR//nwxFx7xlfH6VQRl6PMcCc7D3bq1coMHP2mDQmSycq7P6PxEW4C/mTNnsbUHJPc47i9/uFFERMSzbdtOrzGSNoVGJB5vvbXSAloEPERERLLCyy8vdK1aNQjdEsk9si0ww/QSkWSa/tLIiFoJIhKbAjOSKKZGsfR2y5YNw1mXIiIiR5sCM5JbHdMZM9SqWbEidtEl5uE/+FCPcFp7shwL25io3PieRCRNsgMzFBBmSchg3ZcgCvsOHXqXrb6UVXLCNsTr88+/dnffPTJdgVtf/fpX2jSxo4FaOBTlpz6OPzWN+8aPn2GFCB944I7w/SIiIkebAjOSW2kqk4iIRFDGjGSE+fQvvjjPiipTZB4FCpzgunRp4Zo0qaugjIiIZCkFZiS3UmBGREQiKDAjIiIiOZECM5JbZeuqTCIiIiIiIiIikkaBGRERERERERGRJFFgRkREREREREQkSRSYERERERERERFJEgVmRERERERERESSRIEZEREREREREZEkUWBGRERERERERCRJFJgREREREREREUkSBWZERERERERERJJEgRkRERERERERkSRRYEZEREREREREJEkUmBERERERERERSRIFZkREREREREREkkSBGRERERERERGRJFFgRkREREREREQkSRSYERERERERERFJEgVmRERERERERESSRIEZEREREREREZEkUWBGRERERERERCRJFJgREREREREREUmS4/7yhK7HZdu2naFrIiIiIiIiIiK5z/nnp4SuZb2EAzMiIpK7EYDPzhORiIiIiMj/ZwrMiIhIBAIzKSmnhW459/vvf7h9+/7Pfv7xx39C94qIiMixIm/ePC5fvryuYMEC9lNEDi1//nyha1lPNWZERCRDP/+81+3e/bPbv/+AgjIiIiLHKM7hnMs5p3NuF5GcRYEZERGJ6aeffrVGnIiIiOQenNs5x4tIzqHAjIiIpMNo2oEDB0O3REREJDfhHK/MGZGcQzVmREQkQqzV95iPXqjQiTbX9rjjjgvdKyIiIjkd3b0DB353v/223+rFBZ12WmHVnBHJgGrMiIhIjkGDrWjRU1yBAicoKCMiInKM4dzNOZxzeXQQhuL+IpJ8CsyIiEimyJRRQEZEROTYxrmcc3pQdAaNiCSHAjMiIpKp7EzjFBERkawTfU7XiosiOYMCMyIiIiIiIiIiSaLAjIiIZIqCgSIiInLsiz6n582bJ3RNRJJJgRkREckUqzhoAT8REZFjG+dyzulBWpFJJGfQctkiIhKB5bJPPDG/27//QOgeERERyW041xcufFLolohEy746i879F4e9IOf4BPs9AAAAAElFTkSuQmCC;" vertex="1" parent="1">
          <mxGeometry x="160" y="540" width="477.1" height="219.06" as="geometry" />
        </mxCell>
        <mxCell id="lgNXnv1LJeYdg0kMbdjZ-1" value="&lt;div style=&quot;font-size: 10px;&quot;&gt;(Tumbling)&lt;/div&gt;&lt;div style=&quot;font-size: 10px;&quot;&gt;&amp;nbsp;&amp;nbsp;&lt;/div&gt;&lt;div style=&quot;font-size: 10px;&quot;&gt;CREATE &lt;b&gt;TABLE ohlc_by_minute&lt;/b&gt; WITH (&lt;b&gt;KAFKA_TOPIC&lt;/b&gt;=&#39;&lt;b&gt;ohlc_by_minute&lt;/b&gt;&#39;, value_format=&#39;JSON&#39;)&amp;nbsp;&lt;/div&gt;&lt;div style=&quot;font-size: 10px;&quot;&gt;AS&lt;/div&gt;&lt;div style=&quot;font-size: 10px;&quot;&gt;SELECT&lt;/div&gt;&lt;div style=&quot;font-size: 10px;&quot;&gt;TIMESTAMPTOSTRING(WINDOWSTART, &#39;yyyy-MM-dd HH:mm&#39;) as window_start,&lt;/div&gt;&lt;div style=&quot;font-size: 10px;&quot;&gt;code,&lt;/div&gt;&lt;div style=&quot;font-size: 10px;&quot;&gt;EARLIEST_BY_OFFSET(rate) as open,&lt;/div&gt;&lt;div style=&quot;font-size: 10px;&quot;&gt;max(rate) as high,&lt;/div&gt;&lt;div style=&quot;font-size: 10px;&quot;&gt;min(rate) as low,&lt;/div&gt;&lt;div style=&quot;font-size: 10px;&quot;&gt;LATEST_BY_OFFSET(rate) as close&lt;/div&gt;&lt;div style=&quot;font-size: 10px;&quot;&gt;from COINS_CURRENT_STREAM&amp;nbsp;&lt;/div&gt;&lt;div style=&quot;font-size: 10px;&quot;&gt;WINDOW &lt;b&gt;TUMBLING &lt;/b&gt;(SIZE 1 MINUTE)&lt;/div&gt;&lt;div style=&quot;font-size: 10px;&quot;&gt;GROUP BY code&lt;/div&gt;&lt;div style=&quot;font-size: 10px;&quot;&gt;EMIT CHANGES;&lt;/div&gt;&lt;div style=&quot;font-size: 10px;&quot;&gt;&lt;br style=&quot;font-size: 10px;&quot;&gt;&lt;/div&gt;" style="rounded=0;whiteSpace=wrap;html=1;align=left;fontSize=10;spacingLeft=6;" vertex="1" parent="1">
          <mxGeometry x="30" y="270" width="370" height="240" as="geometry" />
        </mxCell>
        <mxCell id="4Zeyqch25ccI9uQiaCqQ-1" value="(Hopping)&lt;br&gt;&lt;br&gt;CREATE &lt;b&gt;TABLE 60_sec_mov_avg&lt;/b&gt; WITH (&lt;b&gt;KAFKA_TOPIC&lt;/b&gt;=&lt;b&gt;&#39;60_sec_mov_avg&lt;/b&gt;&#39;, value_format=&#39;JSON&#39;)&amp;nbsp;&lt;br&gt;AS&lt;br&gt;select&amp;nbsp;&lt;br&gt;TIMESTAMPTOSTRING(WINDOWSTART, &#39;yyyy-MM-dd HH:mm:ss&#39;) as window_start,&lt;br&gt;code,&lt;br&gt;avg(rate) as 60_sec_mov_avg&lt;br&gt;from COINS_CURRENT_STREAM&amp;nbsp;&lt;br&gt;WINDOW &lt;b&gt;HOPPING &lt;/b&gt;(SIZE 60 SECONDS, ADVANCE BY 30 SECONDS)&lt;br&gt;group by code&lt;br&gt;EMIT CHANGES;" style="text;whiteSpace=wrap;fontSize=10;fontStyle=0;strokeColor=default;spacingLeft=8;html=1;" vertex="1" parent="1">
          <mxGeometry x="420" y="270" width="390" height="240" as="geometry" />
        </mxCell>
        <mxCell id="gc59-oUvUR39ebdCF3qe-1" value="&lt;span style=&quot;color: rgb(31, 35, 40); font-family: -apple-system, BlinkMacSystemFont, &amp;quot;Segoe UI&amp;quot;, &amp;quot;Noto Sans&amp;quot;, Helvetica, Arial, sans-serif, &amp;quot;Apple Color Emoji&amp;quot;, &amp;quot;Segoe UI Emoji&amp;quot;; font-style: normal; font-variant-ligatures: normal; font-variant-caps: normal; letter-spacing: normal; orphans: 2; text-align: left; text-indent: 0px; text-transform: none; widows: 2; word-spacing: 0px; -webkit-text-stroke-width: 0px; white-space: normal; background-color: rgb(255, 255, 255); text-decoration-thickness: initial; text-decoration-style: initial; text-decoration-color: initial; float: none; display: inline !important;&quot;&gt;&lt;b style=&quot;&quot;&gt;&lt;font style=&quot;font-size: 12px;&quot;&gt;CONFLUENT&lt;/font&gt;&lt;/b&gt;&lt;/span&gt;" style="text;whiteSpace=wrap;html=1;strokeColor=#9f9999;dashed=1;" vertex="1" parent="1">
          <mxGeometry x="20" y="40" width="830" height="750" as="geometry" />
        </mxCell>
      </root>
    </mxGraphModel>
  </diagram>
</mxfile>
